<?xml version="1.0" standalone="no"?>
<!DOCTYPE svg PUBLIC "-//W3C//DTD SVG 1.1//EN" "http://www.w3.org/Graphics/SVG/1.1/DTD/svg11.dtd" >
<svg xmlns="http://www.w3.org/2000/svg" xmlns:xlink="http://www.w3.org/1999/xlink" version="1.1">
<metadata>
Created by FontForge 20170731 at Thu Oct  7 01:00:20 2021
 By Aleksey,,,
Copyright 2010 The Corinthia Project Authors (https://github.com/googlefonts/corinthia)
</metadata>
<defs>
<font id="Corinthia-Regular" horiz-adv-x="0" >
  <font-face 
    font-family="Corinthia"
    font-weight="400"
    font-stretch="normal"
    units-per-em="1000"
    panose-1="0 0 0 0 0 0 0 0 0 0"
    ascent="800"
    descent="-200"
    x-height="225"
    cap-height="546"
    bbox="-364 -420 1521 843"
    underline-thickness="50"
    underline-position="-150"
    unicode-range="U+000D-FB02"
  />
<missing-glyph horiz-adv-x="531" 
d="M50 -250v860h431v-860h-431zM266 221l156 346h-313zM101 -143l146 323l-146 322v-645zM430 -143v645l-146 -322zM109 -207h313l-156 346z" />
    <glyph glyph-name="fi" unicode="fi" horiz-adv-x="347" 
d="M-5 -305q-25 0 -39 35q-9 26 -9 56q0 69 40 180q17 47 35.5 89.5t39.5 82.5l105 200l35 66q22 40 41 61q14 15 28 15q22 0 22 -17q0 -5 -3 -10t-20.5 -33.5t-52.5 -79.5q-41 -62 -72.5 -112.5t-53.5 -90.5q6 6 12 6q26 0 44 -91q21 -12 36 -12q21 0 44 22q4 22 22 63
q21 49 34 49q20 0 20 -21l-22 -43q-23 -44 -23 -74t22 -30q33 0 78 50q23 26 32.5 38.5l9.5 12.5l2 -1.5t2 -4.5q0 -5 -6 -13q-74 -101 -129 -101q-48 0 -46 50q-23 -20 -46 -20q-4 0 -11 1.5t-17 3.5q3 -16 3 -36q0 -34 -7.5 -70.5t-24.5 -76.5q-33 -82 -82 -124
q-23 -20 -43 -20zM322 226q-20 0 -20 19q0 26 26 26q20 0 20 -19q0 -26 -26 -26zM10 -274q12 0 24 11q47 39 75 112q26 67 26 133q0 33 -6 61q-20 13 -34 35q-15 23 -12 44q-99 -223 -99 -339q0 -57 26 -57z" />
    <glyph glyph-name="fl" unicode="fl" horiz-adv-x="446" 
d="M-2 -356q-16 0 -29 7.5t-21 23.5q-7 14 -9 31.5t-2 36.5q0 35 12.5 85t32 106.5t43 112t45.5 101.5q25 52 43.5 88.5t34 64.5t30 54.5t31.5 58.5q20 36 35.5 61.5t22.5 33.5q5 5 15.5 11.5t19.5 6.5q14 0 14 -17q0 -5 -3 -11q-4 -9 -23.5 -40.5t-64.5 -98.5
q-29 -43 -59.5 -93t-59.5 -103q8 6 15 6q34 0 55 -108q11 -11 23 -13t21 -2q26 0 57 31q-1 2 -0.5 4.5t0.5 5.5q0 45 16.5 92t40.5 92t44 83q19 35 42.5 69.5t46.5 63.5t39 47q26 29 50 41.5t43 12.5q13 0 23 -13q11 -14 11 -27q0 -69 -129 -231q-51 -64 -97.5 -115
t-90.5 -92q0 -1 -2 -5q-1 -7 -1 -14v-15q0 -34 11 -51.5t39 -17.5t65.5 32.5t77.5 91.5q3 5 7 6q6 0 6 -7q0 -5 -2 -8q-14 -24 -31.5 -46t-39.5 -42q-24 -22 -48.5 -35t-49.5 -13q-33 0 -47 18.5t-20 46.5q-1 2 -1 6q-13 -13 -28.5 -21t-30.5 -8h-4q-10 0 -22.5 3t-17.5 9
q2 -10 3.5 -29t1.5 -30q0 -40 -7 -78.5t-25 -87.5q-19 -51 -45.5 -96t-58.5 -63q-24 -13 -48 -13zM317 132q28 24 66.5 69.5t81.5 106.5q97 134 116 194q9 29 9 43q0 19 -13 19q-29 0 -71 -56q-24 -32 -56 -81.5t-62 -107.5q-35 -67 -49.5 -111t-21.5 -76zM12 -329
q7 0 18.5 4.5t19.5 11.5q29 23 47 55.5t34 75.5q15 40 23 80t8 80q0 19 -2 37t-6 35q-13 9 -23 20.5t-17 21.5q-6 10 -12 24t-6 29q-59 -133 -93 -239t-34 -176q0 -34 13.5 -46.5t29.5 -12.5z" />
    <glyph glyph-name="f_f" unicode="ff" horiz-adv-x="516" 
d="M-2 -356q-37 0 -49 29.5t-12 69.5q0 35 12.5 85t32 106.5t43 112t45.5 101.5q25 52 43.5 88.5t34 64.5t30 54.5t31.5 58.5q20 36 35.5 61.5t22.5 33.5q5 5 15.5 11.5t19.5 6.5q14 0 14 -17q0 -7 -13 -30t-34 -54.5t-44 -65.5q-29 -43 -59.5 -93t-59.5 -103q8 6 15 6
q34 0 55 -108q11 -11 23 -13t21 -2q26 0 57 31q16 16 27 32t17 23q3 3 6 3q7 0 7 -6q0 -5 -7 -15q-27 -38 -53 -61.5t-53 -24.5q-15 0 -27.5 3.5t-16.5 8.5q9 -58 1.5 -112.5t-28.5 -112.5q-16 -43 -37.5 -82.5t-49.5 -64.5t-65 -25zM12 -329q26 0 48.5 24t40.5 58t30 65
q22 57 28.5 116.5t-5.5 115.5q-23 17 -40.5 43.5t-17.5 51.5q-59 -133 -93 -239t-34 -176q0 -34 13.5 -46.5t29.5 -12.5zM256 -356q-37 0 -49 29.5t-12 69.5q0 35 12.5 85t32 106.5t43 112t45.5 101.5q25 52 43.5 88.5t34 64.5t30 54.5t31.5 58.5q20 36 35.5 61.5t22.5 33.5
q5 5 15.5 11.5t19.5 6.5q14 0 14 -17q0 -7 -13 -30t-34 -54.5t-44 -65.5q-29 -43 -59.5 -93t-59.5 -103q8 6 15 6q34 0 55 -108q11 -11 23 -13t21 -2q26 0 57 31q16 16 27 32t17 23q3 3 6 3q7 0 7 -6q0 -5 -7 -15q-27 -38 -53 -61.5t-53 -24.5q-15 0 -27.5 3.5t-16.5 8.5
q9 -58 1.5 -112.5t-28.5 -112.5q-16 -43 -37.5 -82.5t-49.5 -64.5t-65 -25zM270 -329q26 0 48.5 24t40.5 58t30 65q22 57 28.5 116.5t-5.5 115.5q-23 17 -40.5 43.5t-17.5 51.5q-59 -133 -93 -239t-34 -176q0 -34 13.5 -46.5t29.5 -12.5z" />
    <glyph glyph-name="f_f_i" unicode="ffi" horiz-adv-x="695" 
d="M-2 -356q-37 0 -49 29.5t-12 69.5q0 35 12.5 85t32 106.5t43 112t45.5 101.5q25 52 43.5 88.5t34 64.5t30 54.5t31.5 58.5q20 36 35.5 61.5t22.5 33.5q5 5 15.5 11.5t19.5 6.5q14 0 14 -17q0 -7 -13 -30t-34 -54.5t-44 -65.5q-29 -43 -59.5 -93t-59.5 -103q8 6 15 6
q34 0 55 -108q11 -11 23 -13t21 -2q26 0 57 31q16 16 27 32t17 23q3 3 6 3q7 0 7 -6q0 -5 -7 -15q-27 -38 -53 -61.5t-53 -24.5q-15 0 -27.5 3.5t-16.5 8.5q9 -58 1.5 -112.5t-28.5 -112.5q-16 -43 -37.5 -82.5t-49.5 -64.5t-65 -25zM12 -329q26 0 48.5 24t40.5 58t30 65
q22 57 28.5 116.5t-5.5 115.5q-23 17 -40.5 43.5t-17.5 51.5q-59 -133 -93 -239t-34 -176q0 -34 13.5 -46.5t29.5 -12.5zM256 -356q-37 0 -49 29.5t-12 69.5q0 35 12.5 85t32 106.5t43 112t45.5 101.5q25 52 43.5 88.5t34 64.5t30 54.5t31.5 58.5q20 36 35.5 61.5t22.5 33.5
q5 5 15.5 11.5t19.5 6.5q14 0 14 -17q0 -7 -13 -30t-34 -54.5t-44 -65.5q-29 -43 -59.5 -93t-59.5 -103q8 6 15 6q34 0 55 -108q11 -11 23 -13t21 -2q26 0 57 31q16 16 27 32t17 23q3 3 6 3q7 0 7 -6q0 -5 -7 -15q-27 -38 -53 -61.5t-53 -24.5q-15 0 -27.5 3.5t-16.5 8.5
q9 -58 1.5 -112.5t-28.5 -112.5q-16 -43 -37.5 -82.5t-49.5 -64.5t-65 -25zM270 -329q26 0 48.5 24t40.5 58t30 65q22 57 28.5 116.5t-5.5 115.5q-23 17 -40.5 43.5t-17.5 51.5q-59 -133 -93 -239t-34 -176q0 -34 13.5 -46.5t29.5 -12.5zM655 255q-24 0 -24 24q0 12 9 21
q10 10 23 10q24 0 24 -24q0 -12 -9 -21q-10 -10 -23 -10zM597 -17q-55 0 -55 59q0 28 20 82q9 25 18.5 42.5t19.5 32.5q6 9 14 9t16 -8q5 -5 5 -13q0 -7 -4 -14q-22 -34 -36 -68.5t-14 -61.5q0 -36 26 -36q14 0 32 7.5t36 23.5q12 11 25.5 25t27.5 33l26 32q5 0 5 -8t-7 -16
q-91 -121 -155 -121z" />
    <glyph glyph-name="f_f_l" unicode="ffl" horiz-adv-x="732" 
d="M-2 -356q-37 0 -49 29.5t-12 69.5q0 35 12.5 85t32 106.5t43 112t45.5 101.5q25 52 43.5 88.5t34 64.5t30 54.5t31.5 58.5q20 36 35.5 61.5t22.5 33.5q5 5 15.5 11.5t19.5 6.5q14 0 14 -17q0 -7 -13 -30t-34 -54.5t-44 -65.5q-29 -43 -59.5 -93t-59.5 -103q8 6 15 6
q34 0 55 -108q11 -11 23 -13t21 -2q26 0 57 31q16 16 27 32t17 23q3 3 6 3q7 0 7 -6q0 -5 -7 -15q-27 -38 -53 -61.5t-53 -24.5q-15 0 -27.5 3.5t-16.5 8.5q9 -58 1.5 -112.5t-28.5 -112.5q-16 -43 -37.5 -82.5t-49.5 -64.5t-65 -25zM12 -329q26 0 48.5 24t40.5 58t30 65
q22 57 28.5 116.5t-5.5 115.5q-23 17 -40.5 43.5t-17.5 51.5q-59 -133 -93 -239t-34 -176q0 -34 13.5 -46.5t29.5 -12.5zM256 -356q-37 0 -49 29.5t-12 69.5q0 35 12.5 85t32 106.5t43 112t45.5 101.5q25 52 43.5 88.5t34 64.5t30 54.5t31.5 58.5q20 36 35.5 61.5t22.5 33.5
q5 5 15.5 11.5t19.5 6.5q14 0 14 -17q0 -7 -13 -30t-34 -54.5t-44 -65.5q-29 -43 -59.5 -93t-59.5 -103q8 6 15 6q34 0 55 -108q11 -11 23 -13t21 -2q26 0 57 31q16 16 27 32t17 23q3 3 6 3q7 0 7 -6q0 -5 -7 -15q-27 -38 -53 -61.5t-53 -24.5q-15 0 -27.5 3.5t-16.5 8.5
q9 -58 1.5 -112.5t-28.5 -112.5q-16 -43 -37.5 -82.5t-49.5 -64.5t-65 -25zM270 -329q26 0 48.5 24t40.5 58t30 65q22 57 28.5 116.5t-5.5 115.5q-23 17 -40.5 43.5t-17.5 51.5q-59 -133 -93 -239t-34 -176q0 -34 13.5 -46.5t29.5 -12.5zM633 -13q-54 0 -67 65q-1 9 -2.5 18
t-1.5 18q0 45 16.5 92t40.5 92t44 83q19 35 42.5 69.5t46.5 63.5t39 47q26 29 50 41.5t43 12.5q13 0 23 -13q11 -14 11 -27q0 -69 -129 -231q-51 -64 -98 -115.5t-91 -92.5q-1 -8 -1.5 -16.5t-0.5 -16.5q0 -34 11 -51.5t39 -17.5t65.5 32.5t77.5 91.5q3 5 7 6q6 0 6 -7
q0 -5 -2 -8q-14 -24 -31.5 -46t-39.5 -42q-25 -22 -49.5 -35t-48.5 -13zM602 132q28 24 66.5 69.5t81.5 106.5q97 134 116 194q9 29 9 43q0 19 -13 19q-29 0 -71 -56q-24 -32 -56 -81.5t-62 -107.5q-35 -67 -49.5 -111t-21.5 -76z" />
    <glyph glyph-name=".notdef" horiz-adv-x="531" 
d="M50 -250v860h431v-860h-431zM266 221l156 346h-313zM101 -143l146 323l-146 322v-645zM430 -143v645l-146 -322zM109 -207h313l-156 346z" />
    <glyph glyph-name=".null" 
 />
    <glyph glyph-name="nonmarkingreturn" horiz-adv-x="333" 
 />
    <glyph glyph-name="CR" unicode="&#xd;" horiz-adv-x="147" 
 />
    <glyph glyph-name="space" unicode=" " horiz-adv-x="147" 
 />
    <glyph glyph-name="exclam" unicode="!" horiz-adv-x="250" 
d="M125 102q-7 0 -7 7q0 17 87 186q32 62 52.5 100.5t33 60.5t20.5 36q2 2 3 2q7 0 20 -10q14 -11 14 -15l-6 -9l-27 -42q-52 -82 -91.5 -148t-64.5 -115l-19 -40q-6 -13 -15 -13zM84 -11q-26 0 -26 24t26 24q25 0 25 -24t-25 -24z" />
    <glyph glyph-name="quotedbl" unicode="&#x22;" horiz-adv-x="184" 
d="M131 307q-3 0 -3 8q0 34 -1.5 61.5t-3.5 47.5q21 3 30 3q2 0 3 -1v-2q0 -7 -1.5 -21.5t-5.5 -37.5q-7 -46 -12 -54q-1 -4 -6 -4zM62 307q-3 0 -3 8q0 34 -1.5 61.5t-3.5 47.5q21 3 30 3q2 0 3 -1v-2q0 -7 -1.5 -21.5t-5.5 -37.5q-7 -46 -12 -54q-1 -4 -6 -4z" />
    <glyph glyph-name="numbersign" unicode="#" horiz-adv-x="634" 
d="M170 56q-1 -3 -12 -3q-9 0 -8 5q6 25 14 51t18 54q-38 -4 -69 -7.5t-51 -7.5q-3 -1 -8.5 8t0.5 10q32 8 66 14t71 11q11 30 24.5 61.5t28.5 64.5q-36 -4 -66 -7.5t-49 -7.5q-3 -1 -8.5 8.5t0.5 10.5q61 15 137 24q8 17 20 40.5t25.5 48.5t24.5 45q2 2 5.5 2.5t6.5 0.5
q16 0 19 -10v-1.5t1 -2.5q-15 -22 -32.5 -53t-34.5 -66q63 7 135 9q14 29 30.5 59.5t33.5 61.5q2 2 5.5 2.5t6.5 0.5q16 0 19 -10v-1.5t1 -2.5q-14 -20 -29.5 -48.5t-32.5 -60.5q28 0 56.5 -0.5t58.5 -0.5q2 0 4.5 -3t3.5 -6q4 -7 4 -12t-4 -9l-1.5 -1t-1.5 -2q-20 2 -45 3
t-54 1h-36q-15 -31 -29 -62.5t-28 -61.5q29 0 59 -0.5t61 -0.5q2 0 4.5 -3.5t3.5 -5.5q4 -5 4 -12q0 -6 -4 -10l-1.5 -0.5t-1.5 -1.5q-20 2 -45.5 3t-54.5 1h-37q-15 -37 -26 -67t-18 -52q-1 -3 -12 -3q-9 0 -8 5q7 27 16 56t19 60q-34 -1 -69.5 -3.5t-69.5 -4.5
q-13 -34 -24 -62.5t-16 -47.5zM222 194q33 4 67.5 6.5t70.5 3.5q11 30 24.5 61t28.5 63q-34 -1 -68.5 -3.5t-66.5 -4.5q-15 -31 -29 -63t-27 -63z" />
    <glyph glyph-name="dollar" unicode="$" horiz-adv-x="446" 
d="M100 -56q-5 0 -5 8q0 10 5 34t15 61q-34 7 -58.5 23t-35.5 41q-1 2 -1 5q0 7 4 7t10 -10q14 -19 35.5 -30.5t51.5 -13.5q14 47 32 93.5t40 96.5q-52 29 -82 63t-30 62q0 29 27 55.5t76 48.5q81 38 154 40q39 57 48 57q16 0 16 -14q0 -5 -29 -47q54 -9 51 -63l19 11
q11 0 11 -8q0 -11 -12 -23q-13 -12 -29.5 -26.5t-42.5 -41.5q-17 -22 -28 -22q-7 0 -7 9q0 3 7.5 15.5t23.5 32.5q34 41 34 62q0 28 -44 31q-40 -58 -73.5 -114.5t-61.5 -112.5q19 -13 43.5 -33t43.5 -44t19 -48q0 -26 -16.5 -46t-41.5 -33.5t-53 -20.5t-52 -7q-9 0 -18 0.5
t-17 1.5q-7 -23 -10.5 -46t-8.5 -46q-3 -8 -10 -8zM205 286q27 59 56.5 111.5t61.5 103.5q-30 -1 -61.5 -6t-62.5 -19q-78 -35 -78 -85q0 -45 84 -105zM135 67h9q20 0 46.5 4.5t52 15t42.5 27.5t17 41q0 42 -95 93q-22 -47 -40 -91t-32 -90z" />
    <glyph glyph-name="percent" unicode="%" horiz-adv-x="372" 
d="M27 2q-8 0 -8 7q0 3 11 30q55 134 237 349q-15 -5 -28 -5q-17 0 -31 8q-37 -60 -80 -60q-29 0 -29 33q0 48 42 112q-1 5 -1 9.5v9.5q0 29 20 58t49 29q18 0 30 -24q5 -10 7.5 -19.5t2.5 -19.5q0 -44 -35 -114q13 -8 28 -8q27 0 47 17l23 25q17 18 44.5 46.5t53.5 51.5
q2 2 6.5 3t6.5 1q20 0 20 -12q0 -1 -2 -5q-25 -24 -73 -73q-121 -122 -198.5 -219t-113.5 -172q-1 -3 -7 -17.5t-13 -35.5q-2 -5 -9 -5zM203 412q21 53 21 86q0 19 -6 38q-8 26 -22 26q-19 0 -30 -23q-8 -17 -8 -40q15 16 27 16q13 0 18 -8q0 -3 1 -4t1 -5q0 -3 -9 -3
q-14 0 -31 -32q10 -31 38 -51zM142 351q13 0 31 19q8 8 13.5 16t9.5 15q-27 18 -42 42q-25 -51 -25 -76q0 -16 13 -16zM236 36q-29 0 -29 34q0 48 42 112q-1 5 -1.5 9.5t-0.5 8.5q0 29 20 58t50 29q19 0 30 -23q4 -7 6.5 -18t2.5 -22q0 -46 -34 -114q8 -5 8 -8q0 -5 -14 -5
q-39 -61 -80 -61zM311 117q20 54 20 87q0 18 -6 37q-8 26 -21 26q-19 0 -30 -23q-8 -16 -8 -40q13 16 27 16q13 0 18 -8q0 -2 1 -4v-5q0 -2 -8 -2q-15 0 -32 -32q11 -33 39 -52zM250 56q13 0 31 19q8 8 13.5 16t9.5 15q-28 18 -42 42q-25 -51 -25 -76q0 -16 13 -16z" />
    <glyph glyph-name="ampersand" unicode="&#x26;" horiz-adv-x="548" 
d="M163 -26q-62 0 -104 24q-52 28 -52 87q0 79 81 137q50 36 151 75q-50 -1 -75 16t-25 42t24 52q22 25 61.5 43t85.5 27.5t89 9.5q39 0 72 -14q42 -18 42 -52q0 -7 -1 -13.5t-4 -11.5q-7 -15 -26 -15q-4 0 -4 5q0 2 1.5 4.5t3.5 8.5q5 13 5 21q0 26 -38 40q-27 9 -62 9
q-26 0 -61 -7.5t-68.5 -23t-56 -38.5t-22.5 -54q0 -33 60 -33q19 0 50 6q17 4 29 5.5t16 1.5q14 0 14 -8q0 -7 -19 -12l-59 -18q-62 -19 -112 -56.5t-79 -81.5t-29 -81q0 -32 26.5 -53.5t85.5 -21.5q94 0 185 44q110 54 110 137q0 21 -7 41q-25 -4 -47.5 -8.5t-36.5 -7.5
q-56 -12 -82 -31q-37 -25 -37 -69q0 -6 -4 -6q-8 0 -8 8q0 38 7.5 65.5t36.5 42.5q26 13 121 28q41 7 75 17t47 23q9 9 9 16t-8 12q-9 6 -9 9q0 5 4 5q11 0 18 -12q9 -13 9 -24q0 -39 -80 -63q12 -30 12 -58q0 -90 -118 -145q-96 -44 -197 -44z" />
    <glyph glyph-name="quotesingle" unicode="'" horiz-adv-x="86" 
d="M62 307q-3 0 -3 8q0 34 -1.5 61.5t-3.5 47.5q21 3 30 3q2 0 3 -1v-2q0 -7 -1.5 -21.5t-5.5 -37.5q-7 -46 -12 -54q-1 -4 -6 -4z" />
    <glyph glyph-name="parenleft" unicode="(" horiz-adv-x="280" 
d="M156 -73q-22 0 -36 72q-5 26 -7.5 49t-2.5 42q0 139 73 245q32 46 79.5 89t111.5 83q35 21 49 21q13 0 11 -12q-116 -48 -204 -172q-90 -127 -90 -250t18 -151q4 -5 4 -10q0 -6 -6 -6z" />
    <glyph glyph-name="parenright" unicode=")" horiz-adv-x="365" 
d="M11 -76q-11 0 -11 11q57 23 107.5 66.5t95.5 104.5q46 63 69.5 124.5t23.5 121.5q0 125 -20 157q-3 6 -3 10q0 6 6 6q22 0 35 -72q5 -26 7.5 -48.5t2.5 -41.5q0 -139 -72 -246q-64 -93 -192 -172q-34 -21 -49 -21z" />
    <glyph glyph-name="asterisk" unicode="*" horiz-adv-x="397" 
d="M184 17q-6 0 -11.5 6.5t-5.5 21.5q0 17 8 48.5t29 80.5q-33 -22 -60 -41t-67 -42q-1 -1 -4 -1q-7 0 -7 9q0 17 30 40t107 57l-5 6q-31 24 -54 42.5t-52 49.5q1 -1 -0.5 1t-1.5 3q0 4 4.5 8t12.5 4q17 0 42 -21t62 -75q2 8 5.5 32t8.5 51t11 46.5t13 19.5q6 0 11 -7t5 -23
t-7.5 -46t-24.5 -74q36 27 63.5 46.5t70.5 44.5q1 1 3 1q7 0 7 -10q0 -16 -31.5 -39.5t-104.5 -55.5l-11 -5q2 -2 3 -2l20 -15q26 -20 46 -37.5t41 -40.5q-1 1 0 -0.5t1 -3.5q0 -4 -5 -7.5t-13 -3.5q-35 0 -102 92v-4q-1 -10 -4.5 -35t-8.5 -53t-11 -48t-13 -20z" />
    <glyph glyph-name="plus" unicode="+" horiz-adv-x="452" 
d="M166 20q-4 0 -4 5q0 6 1 10q2 12 4.5 24t7.5 34q4 17 7 29.5t5 20.5l8 29q-20 0 -70 -3q-24 -1 -40.5 -1.5t-30.5 -0.5q-6 0 -10 7q-1 2 -1.5 5.5t-0.5 4.5q0 3 1.5 6t10.5 4q13 1 40.5 2t68.5 1h38l15 69q5 22 8 39t7 30q2 6 10 12q9 6 16 6l4 -5q-2 -16 -8 -45.5
t-17 -68.5l-10 -37q35 -1 72.5 -2.5t74.5 -4.5q10 -1 10 -6v-4q0 -3 -4.5 -4.5t-7.5 -1.5h-58t-93 -1q-37 -136 -45 -147q-4 -6 -9 -6z" />
    <glyph glyph-name="comma" unicode="," horiz-adv-x="192" 
d="M70 -82q-2 0 -2 1q0 2 3 6t4 5l11 11t23 27.5t15 29.5q-18 3 -18 20q0 11 9 22t22 11q11 0 17.5 -7t6.5 -17q0 -22 -36 -66q-14 -16 -26 -26.5t-19 -13.5q-6 -3 -10 -3z" />
    <glyph glyph-name="hyphen" unicode="-" horiz-adv-x="228" 
d="M39 106q-20 0 -20 7q0 13 35 25q17 6 45 6q17 0 40.5 -1.5t52.5 -6.5q15 -2 20.5 -4.5t5.5 -5.5q0 -6 -26 -8q-4 0 -22 -0.5t-32 -2.5q-16 -1 -39 -5t-55 -4h-5z" />
    <glyph glyph-name="period" unicode="." horiz-adv-x="185" 
d="M132 -10q-26 0 -26 21q0 11 9 22t22 11q11 0 17.5 -7t6.5 -17q0 -11 -8.5 -20.5t-20.5 -9.5z" />
    <glyph glyph-name="slash" unicode="/" horiz-adv-x="296" 
d="M63 -14q-2 -5 -14 -5q-5 0 -8.5 2t-2.5 5q132 230 396 528q3 3 8.5 3.5t8.5 0.5q20 0 20 -12q0 -1 -2 -5q-36 -35 -81.5 -88.5t-94 -115t-94 -122t-81.5 -111t-55 -80.5z" />
    <glyph glyph-name="zero" unicode="0" horiz-adv-x="492" 
d="M145 -19q-29 0 -57 9t-48 25q-42 36 -42 93q0 94 84 166q44 36 120 66q38 16 74.5 23t63.5 7q26 0 26 -5q0 -2 -8 -4q-15 -1 -43.5 -8.5t-63 -19.5t-66 -28t-52.5 -34q-39 -36 -66 -84q-30 -52 -30 -101q0 -34 25 -63.5t83 -29.5q57 0 111 28t115 83q18 17 32.5 35.5
t23.5 33.5q14 23 21 43.5t7 39.5q0 32 -16 48t-59 16q-112 0 -203 -79q1 1 -0.5 -0.5t-3.5 -1.5q-4 0 -4 4q0 14 54 44q80 45 151 45q58 0 90 -25t32 -69q0 -74 -77 -146q-27 -25 -58 -45t-66 -36q-38 -17 -77.5 -23.5t-72.5 -6.5z" />
    <glyph glyph-name="one" unicode="1" horiz-adv-x="220" 
d="M31 -28q-7 0 -7 6q0 3 1 5q17 36 34 79t33 79q11 23 23.5 51.5t24.5 57.5t19 51q-2 0 -8.5 -4t-10.5 -7q-7 -6 -12 -6q-4 0 -4 5t7 12l78 72q1 1 5 1q3 0 9.5 -1.5t10.5 -3.5q11 -7 13.5 -9t2.5 -4l-1 -2q-13 -17 -30 -45t-41 -70q-28 -50 -54.5 -97t-48.5 -95
q-7 -16 -15.5 -31t-19.5 -41q-1 -3 -9 -3z" />
    <glyph glyph-name="two" unicode="2" horiz-adv-x="340" 
d="M5 -7q-5 0 -9 9t-4 18q0 11 46 27q14 5 37 16t45 24q33 20 62.5 44t69.5 59q99 87 99 133q0 20 -6 28t-26 8q-68 0 -174 -130q-3 -4 -7 -4q-5 0 -5 6v2q6 26 25 50.5t46.5 44.5t57 31.5t54.5 11.5q32 0 51 -15t19 -44q0 -37 -30 -73q-10 -11 -26.5 -26.5t-33.5 -29.5
q-1 -1 -30.5 -18.5t-76.5 -49.5q-81 -54 -83 -64q4 0 23 3.5t29 3.5t17 0.5t12 0.5q33 0 59.5 -8t38.5 -18q5 -5 5 -8t-3 -3t-7 2q-19 9 -31.5 11.5t-28.5 2.5q-44 0 -85.5 -7t-80.5 -21z" />
    <glyph glyph-name="three" unicode="3" horiz-adv-x="340" 
d="M95 -24q-75 0 -90 49q-5 17 -6.5 26.5t-1.5 19.5q0 17 9 17q3 0 7.5 -1.5t4.5 -3.5q0 -92 76 -92q32 0 57.5 11.5t50.5 36.5q51 51 51 116q0 32 -10 48t-39 16q-5 0 -17 -4q-7 -2 -10.5 -3.5t-7.5 -1.5q-8 0 -8 7q0 15 22 15h4t5 -1h10q15 2 26.5 8t31.5 22q22 17 31 32
t9 25q0 11 -8 17t-20 6h-5q-22 -1 -32.5 -5t-22.5 -12q-14 -10 -16 -15t-4 -8q-1 -3 -5 -3q-8 0 -8 10q0 5 5 10q8 8 20.5 18t28.5 17q17 7 33.5 10t28.5 3q17 0 31 -10.5t14 -27.5q0 -23 -17.5 -43t-43 -35t-49.5 -23q41 -16 52.5 -41t11.5 -51q0 -64 -66 -115
q-31 -24 -66 -34t-67 -10z" />
    <glyph glyph-name="four" unicode="4" horiz-adv-x="331" 
d="M134 -25q-4 1 -13 4t-9 8q0 11 32 78q17 37 28.5 57t12.5 24q-13 0 -33.5 -2t-38.5 -4t-24 -3q-29 -6 -50.5 -9t-28.5 -3q-4 0 -4.5 6.5t-0.5 11.5q0 6 22 21q11 8 16.5 10.5t13.5 8.5q34 23 66.5 47t65.5 48q24 17 51 41.5t48 46t25 28.5q7 0 16 -9.5t9 -23.5v-16
q-5 -6 -20 -27.5t-38 -59.5q-48 -76 -48 -84q0 -2 8 -2t24 -2t19.5 -7t3.5 -9q0 -5 -8 -8.5t-10 -3.5q-14 3 -29.5 3.5t-30.5 0.5q-17 -30 -38.5 -76.5t-36.5 -94.5zM62 164q31 5 65 7.5t70 2.5q4 0 18.5 27.5t33.5 62.5q16 30 23 43t8 17q-8 -7 -35 -26.5t-52 -37.5z" />
    <glyph glyph-name="five" unicode="5" horiz-adv-x="330" 
d="M104 -17q-19 0 -41.5 6t-36.5 18q-11 10 -15.5 23.5t-4.5 26.5q0 15 4 29t8 24t9 10q4 0 4 -6q0 -4 -1 -6q-8 -14 -8 -43q0 -9 1 -17t5 -15q9 -18 24.5 -25t33.5 -7t36.5 5.5t32.5 13.5q36 20 65 66q30 47 30 84q0 36 -15 49q-10 8 -20.5 10t-20.5 2q-25 0 -48 -14
t-40 -29q-3 -4 -7.5 -8t-9.5 -9q-4 -3 -8 -3q-14 0 -14 12q0 2 8.5 19.5t24.5 42.5q6 10 17 28.5t21.5 35t12.5 19.5q-7 5 -13 9t-6 5q0 8 13.5 16.5t19.5 8.5q2 0 8 -1t10 -2h13q33 0 66.5 2.5t70.5 2.5q11 0 19.5 -0.5t17.5 -2.5q8 0 8 -8q0 -6 -6 -6q-13 0 -25 0.5
t-23 0.5q-31 0 -63 -2.5t-64 -10.5q-4 0 -16 -5q-3 -5 -14 -21t-23.5 -37t-22.5 -42q40 17 79 17q44 0 70.5 -18t26.5 -55q0 -67 -63 -130t-130 -63z" />
    <glyph glyph-name="six" unicode="6" horiz-adv-x="295" 
d="M96 -20q-19 0 -36.5 9t-28.5 26q-19 32 -19 70q0 78 85 178q38 45 80 77.5t82 52.5q2 1 5.5 2t6.5 1q4 0 4 -2q0 -4 -8 -10q-10 -7 -23.5 -17.5t-27.5 -22.5q-30 -25 -59 -55.5t-52 -65.5q-54 -81 -54 -148q0 -40 11 -61t40 -21q55 0 97 53q21 27 28 55t7 53
q0 30 -12 44.5t-32 14.5q-8 0 -17.5 -3t-17.5 -7q-16 -8 -27 -17t-16 -9q-3 2 -3 4q0 8 12 17.5t27 16.5q28 14 51 14q27 0 49 -18q14 -10 21.5 -30.5t7.5 -37.5q0 -28 -14.5 -60.5t-43.5 -59.5t-62 -35t-61 -8z" />
    <glyph glyph-name="seven" unicode="7" horiz-adv-x="298" 
d="M38 -28q-6 0 -9 8q-2 6 -4.5 14.5t-2.5 12.5q0 20 12.5 43.5t31 48t38 46.5t33.5 38q1 1 13.5 15.5t30 35t33.5 39.5t25 28q13 14 18.5 27t5.5 17q0 9 -20 9q-44 0 -94 -10t-81 -39q-7 -6 -14.5 -13.5t-18.5 -7.5q-4 0 -6 6.5t-2 13.5q0 13 6 26t19 18q44 18 95.5 22.5
t91.5 4.5q7 0 19 -4.5t21 -9.5t15.5 -14t6.5 -16q0 -11 -35 -44.5t-93 -104.5q-46 -56 -79 -103.5t-42 -89.5q-4 -17 -14 -17z" />
    <glyph glyph-name="eight" unicode="8" horiz-adv-x="310" 
d="M38 -7q-27 0 -43.5 13t-16.5 41q0 21 14 48t40 53q5 5 23.5 18t58.5 46q-8 17 -11.5 35.5t-3.5 32.5q0 42 42 73q39 30 86 30q25 0 47.5 -9t35.5 -32q23 14 42.5 25.5t30.5 16.5q3 2 9 2q5 0 5 -3q0 -5 -12 -13q-1 0 -16 -9.5t-31.5 -19t-20.5 -11.5q13 -29 13 -44
q0 -9 -5 -9q-6 0 -30 39q-5 -1 -25.5 -14t-50.5 -34q-34 -25 -50 -38.5t-17 -16.5q6 -6 18.5 -32.5t12.5 -55.5q0 -25 -12.5 -48.5t-33.5 -43.5q-43 -40 -99 -40zM145 231q18 14 54 38.5t90 61.5q-8 17 -24 27.5t-42 10.5q-37 0 -65 -20q-18 -12 -24.5 -27.5t-6.5 -32.5
q0 -19 18 -58zM46 5q20 0 38.5 14.5t34.5 33.5q16 18 21 35.5t5 36.5q0 11 -8 31t-17 37q-8 -8 -26.5 -25t-37.5 -41q-43 -55 -43 -85q0 -37 33 -37z" />
    <glyph glyph-name="nine" unicode="9" horiz-adv-x="306" 
d="M124 -42q-4 0 -4 9q0 60 89 240q-17 -15 -41 -31.5t-50.5 -28t-49.5 -11.5t-37 15.5t-14 43.5q0 31 19 65t59 68q39 32 78.5 47t71.5 15q61 0 61 -47q0 -11 -2.5 -21t-6.5 -17q-2 -3 -8.5 -8.5t-6.5 4.5q0 2 1.5 7.5t2.5 12.5q5 17 5 23q0 33 -44 33q-53 0 -122 -66
q-68 -66 -68 -120q0 -33 30 -33q33 0 63 21t56 49.5t46 51.5v0v0q0 -1 2 0.5t3 1.5q2 0 8.5 -1t10.5 -5t9 -10.5t5 -8.5q0 -3 -48 -78q-44 -70 -73.5 -119.5t-34.5 -78.5q-5 -23 -10 -23z" />
    <glyph glyph-name="colon" unicode=":" horiz-adv-x="144" 
d="M134 154q-26 0 -26 21q0 11 9 22t22 11q11 0 17.5 -7t6.5 -17q0 -11 -8.5 -20.5t-20.5 -9.5zM94 -10q-26 0 -26 21q0 11 9 22t22 11q11 0 17.5 -7t6.5 -17q0 -11 -8.5 -20.5t-20.5 -9.5z" />
    <glyph glyph-name="semicolon" unicode=";" horiz-adv-x="139" 
d="M174 154q-26 0 -26 21q0 11 9 22t22 11q11 0 17.5 -7t6.5 -17q0 -11 -8.5 -20.5t-20.5 -9.5zM57 -82q-2 0 -2 1q0 2 3 6t4 5l11 11t23 27.5t15 29.5q-18 3 -18 20q0 11 9 22t22 11q11 0 17.5 -7t6.5 -17q0 -22 -36 -66q-14 -16 -26 -26.5t-19 -13.5q-6 -3 -10 -3z" />
    <glyph glyph-name="less" unicode="&#x3c;" horiz-adv-x="382" 
d="M273 -32l-8 5q-10 18 -23.5 36.5t-30.5 34.5l-63 61q-3 1 -3 7q2 7 23.5 33.5t60.5 69.5q35 39 61.5 66t41.5 41q13 13 25 13q8 0 7 -7q-1 -9 -42.5 -60t-118.5 -134q42 -74 64.5 -109t20.5 -41q-3 -17 -15 -16z" />
    <glyph glyph-name="equal" unicode="=" horiz-adv-x="228" 
d="M57 182q-20 0 -20 8q0 13 35 25q8 3 19.5 4t25.5 1q17 0 40.5 -1.5t52.5 -5.5q26 -3 26 -10q0 -8 -26 -8q-18 0 -54 -3q-19 -1 -40.5 -4t-53.5 -5zM39 106q-20 0 -20 7q0 13 35 25q17 6 45 6q17 0 40.5 -1.5t52.5 -6.5q15 -2 20.5 -4.5t5.5 -5.5q0 -6 -26 -8
q-4 0 -22 -0.5t-32 -2.5q-16 -1 -39 -5t-55 -4h-5z" />
    <glyph glyph-name="greater" unicode="&#x3e;" horiz-adv-x="382" 
d="M92 -40q-6 0 -5 7q2 9 44 63t119 137q-43 70 -66.5 104t-22.5 40q3 18 16 16l9 -5q10 -18 22.5 -34.5t29.5 -33.5q16 -16 34 -33t31 -31q3 -1 3 -7q-1 -6 -24 -32.5t-62 -70.5q-9 -10 -29 -32t-40.5 -43.5t-32.5 -31.5q-15 -13 -26 -13z" />
    <glyph glyph-name="question" unicode="?" horiz-adv-x="425" 
d="M197 106q-18 0 -18 24q0 21 15.5 47.5t47.5 57.5t58.5 54.5t57.5 53.5q63 60 63 95q0 31 -32 31q-61 0 -126 -36q-55 -30 -103 -82q-5 -5 -11 -5q-4 0 -4 4t6 14q8 12 38 38q102 87 194 87q25 0 47 -16t22 -42q0 -25 -15.5 -53t-48.5 -56q-31 -26 -59 -46.5t-62 -47.5
q-64 -52 -64 -95q0 -8 6 -10q-2 -17 -12 -17zM170 -11q-26 0 -26 24t26 24t26 -24t-26 -24z" />
    <glyph glyph-name="at" unicode="@" horiz-adv-x="675" 
d="M361 -57q-103 0 -174 56q-79 61 -79 163q0 44 18.5 88t56.5 87q32 37 70 66.5t87 50.5q57 25 120 25q38 0 71 -9.5t58 -28.5q59 -43 59 -119q0 -28 -9 -61q-8 -30 -26 -58t-43 -54q-58 -62 -112 -62q-65 0 -65 85q0 16 3 32q-66 -117 -117 -117q-31 0 -31 34q0 49 48 123
q25 38 50 60t48 29q7 2 16 4t16 2t15 -2.5t18 -6.5q8 -3 14 -9t6 -13q-4 -1 -16 -10q-11 -15 -20 -59q-4 -20 -6 -36t-2 -27q0 -63 38 -63q17 0 39 12q28 14 48 36t36 49q21 35 29 63t8 53q0 59 -52 90q-41 25 -108 25q-36 0 -69 -6.5t-64 -20.5q-44 -20 -82.5 -46.5
t-66.5 -57.5q-69 -76 -69 -161t73 -129q62 -38 151 -38q41 0 80 8.5t69 22.5q121 58 181 224q4 8 6 8q5 0 5 -9q0 -63 -72 -152q-34 -42 -66 -70t-64 -44q-28 -14 -59 -20.5t-65 -6.5zM296 118q32 0 80 78q19 31 32.5 57.5t23.5 53.5q-2 1 -8 1q-42 0 -92 -63
q-50 -64 -50 -107q0 -20 14 -20z" />
    <glyph glyph-name="A" unicode="A" horiz-adv-x="750" 
d="M140 -56q-54 0 -87 24q-39 27 -39 78q0 58 49 107q43 43 104 60q50 14 130 21t189 6q28 33 46 54.5t31 37.5t25.5 31.5t28.5 37.5l56 75q5 5 9 5q13 0 13 -12q0 -1 -2 -7l-62 -83q-6 -8 -20 -26t-30 -40t-31.5 -42t-24.5 -32q25 -1 49.5 -5t48.5 -9q28 126 72 238
q7 17 16 37.5t24 50.5q3 7 27 21q23 14 31 14q9 0 9 -9q0 -3 -5 -11q-86 -143 -141 -350q45 -13 45 -26q0 -10 -11 -10q-1 0 -7 2.5t-11 3.5q-8 4 -14 5.5t-8 2.5q-14 -60 -21.5 -107.5t-7.5 -82.5q0 -34 10 -34q9 0 24 12q16 13 19 13q9 0 9 -11t-19 -22q-19 -12 -33 -12
q-38 0 -38 63q0 32 6 79t19 108q-25 4 -54.5 5.5t-63.5 2.5q-15 -19 -34 -41t-45 -49q-33 -36 -55 -58t-37.5 -35.5t-30.5 -24.5q-75 -56 -158 -56zM128 -17q75 0 149 50q23 16 53.5 43.5t65.5 64.5q13 14 28 29.5t34 37.5h-28q-86 0 -151 -5.5t-109 -17.5q-25 -7 -47.5 -20
t-39.5 -29q-42 -40 -42 -88q0 -31 28 -50q24 -15 59 -15z" />
    <glyph glyph-name="B" unicode="B" horiz-adv-x="630" 
d="M206 -57q-66 0 -127 26q-78 33 -78 91q0 67 64 110q29 19 60 28.5t65 11.5q17 40 42.5 93t50.5 99q8 14 21 37.5t31 50.5q15 22 51 22q14 0 14 -8q0 -2 -2 -6q-94 -127 -174 -288q225 -4 335 -101q32 43 32 79q0 63 -85 99q-66 27 -140 27h-23q-13 0 -13 9q0 18 29 23
q5 1 20.5 3t27.5 4q121 24 177 77q23 21 23 38q0 36 -93 54q-63 12 -130 12q-179 0 -336 -65q-6 -2 -8 -2q-8 0 -8 8q0 13 13 26q14 15 26 20q104 42 265 42q96 0 178 -18q128 -27 128 -86q0 -48 -78 -87q-57 -29 -121 -40q71 -16 122 -47q70 -42 70 -101q0 -48 -49 -103
q29 -35 29 -51q0 -14 -11 -14q-5 0 -8 5q-7 14 -14 24t-14 17q-64 -60 -170 -92q-91 -27 -192 -27zM206 -35q222 0 335 122q-56 47 -141 74q-79 25 -159 25h-14.5t-14.5 -1q-60 -127 -60 -171q0 -5 1 -8t1 -8q0 -13 -11 -13q-16 0 -16 27q0 45 51 169q-133 -22 -133 -123
q0 -45 61 -72q48 -21 100 -21z" />
    <glyph glyph-name="C" unicode="C" horiz-adv-x="568" 
d="M220 -42q-73 0 -118 30q-53 35 -53 104q0 55 25 109t65.5 103t88.5 89.5t93 68.5q136 83 266 83q113 0 113 -78q0 -68 -75 -125q-72 -55 -141 -55q-73 0 -73 56q0 40 18 40q7 0 7 -9v-3.5t-1 -5.5t-1 -5v-4q0 -39 51 -39q53 0 120 51t67 101q0 49 -83 49q-8 0 -16.5 -0.5
t-16.5 -1.5q-87 -9 -196 -72q-44 -25 -89.5 -60.5t-83.5 -78.5t-61.5 -92t-23.5 -102q0 -28 9.5 -53t28.5 -40q32 -26 89 -26q181 0 352 144q4 4 8 4h6.5t0.5 -7q0 -5 -4 -9q-39 -36 -82 -63.5t-91 -50.5q-108 -52 -199 -52z" />
    <glyph glyph-name="D" unicode="D" horiz-adv-x="786" 
d="M244 -58q-19 0 -39 1t-40 4q-44 7 -81.5 21.5t-60.5 37.5t-23 54q0 47 27.5 79t71 50t90.5 21q14 33 33 73t40 80.5t40 74t32 52.5q15 22 51 22q14 0 14 -8q0 -5 -11 -18q-43 -58 -84 -127t-81 -149q270 -6 367 -135q44 31 79.5 70t56.5 84t21 92q0 57 -30.5 98.5t-82 68
t-114 39t-125.5 12.5q-169 0 -300 -74q-7 -4 -13 -4q-13 0 -13 15q0 23 31 39q32 17 82.5 28.5t104 17t93.5 5.5q75 0 147.5 -15t130.5 -45.5t93 -77.5t35 -112q0 -54 -24.5 -104.5t-64.5 -93t-88 -74.5q4 -8 4 -14q0 -14 -10 -14q-4 0 -14 16q-150 -90 -345 -90zM230 -35
q189 0 338 95q-24 30 -63.5 53.5t-86.5 39.5t-94 24.5t-87 8.5h-13t-13 -1q-60 -127 -60 -171q0 -4 1.5 -8t1.5 -8q0 -13 -12 -13q-16 0 -16 27q0 45 51 169q-133 -22 -133 -123q0 -39 40 -61t93 -30q14 -1 27 -1.5t26 -0.5z" />
    <glyph glyph-name="E" unicode="E" horiz-adv-x="583" 
d="M203 -42q-73 0 -118 30q-52 34 -52 104t49 152l-46 -9q-6 0 -6 7q0 25 21 32q3 2 15 4t42 6q42 58 93.5 103t109.5 79q133 79 260 79q112 0 112 -78q0 -41 -32 -83q-16 -21 -31.5 -35t-35.5 -26q-7 -4 -13 -4q-17 0 -17 16q0 9 8 14q93 72 93 120q0 49 -83 49
q-102 0 -229 -74q-56 -33 -100 -72t-81 -83q43 5 82 7.5t76 2.5q151 0 151 -28q0 -13 -14 -13q-7 0 -19 1.5t-30 3.5q-37 6 -57 6q-92 0 -217 -18q-25 -37 -40 -72t-15 -67q0 -30 10 -55.5t34 -42.5q39 -28 102 -28q155 0 338 153q5 3 7 3q7 0 8.5 -1t1.5 -8q0 -5 -4 -9
q-37 -34 -81 -62.5t-93 -51.5q-55 -25 -104.5 -38.5t-94.5 -13.5z" />
    <glyph glyph-name="F" unicode="F" horiz-adv-x="632" 
d="M390 -48q-46 0 -46 61q0 66 55 201q-11 -1 -22 -1h-22q-249 0 -340 83q-25 22 -25 45q0 47 55 80q120 72 293 72q32 0 80.5 -3.5t113.5 -10.5q5 8 13 19.5t19 26.5q12 15 48 15q13 0 13 -5l-43 -61q96 -9 156 -9q62 0 86 11q7 4 12 4q9 0 9 -10q0 -34 -128 -34
q-66 0 -156 9q-70 -102 -116 -203q16 1 38.5 4t72.5 10q36 5 63 8t46 3q9 0 9 -6q0 -12 -17 -17l-62 -11q-36 -6 -78.5 -11t-83.5 -7q-63 -141 -63 -207q0 -36 21 -36q8 0 25 11q9 6 13 9t6 3q8 0 8 -9q0 -11 -20 -22q-21 -12 -33 -12zM370 240h20t20 1q50 117 104 209
q-41 4 -81.5 5.5t-79.5 1.5q-318 0 -318 -121q0 -57 147 -81q87 -15 188 -15z" />
    <glyph glyph-name="G" unicode="G" horiz-adv-x="548" 
d="M17 -266q-148 0 -148 122q0 165 318 295q-12 20 -12 35q0 116 142 222q114 85 248 126q3 18 15 18q19 0 29 -22q78 -7 78 -50q0 -13 -13 -32t-27 -19q-7 0 -7 7q0 2 7 16t7 26q0 28 -35 28q-6 0 -9 -1q-1 -13 -4.5 -32.5t-11.5 -62.5q-6 -31 -13.5 -67.5t-17.5 -79.5
q6 1 12 1h11q51 0 51 -17q0 -10 -16 -10h-6t-9 1t-9.5 1h-7.5q-10 0 -18 -0.5t-15 -1.5q-84 -327 -336 -455q-94 -48 -203 -48zM220 164q42 16 88 31.5t96 29.5q29 27 54.5 58.5t48.5 70.5q49 81 58 154q-166 -47 -264 -156q-30 -33 -55 -78q-30 -52 -30 -90q0 -12 4 -20z
M451 238q16 4 32.5 8t33.5 8l20 102q-19 -32 -40.5 -61.5t-45.5 -56.5zM44 -233q91 0 169 34q217 93 297 427q-27 -7 -50 -13.5t-42 -11.5q-91 -90 -169 -90q-29 0 -47 18q-293 -117 -293 -262q0 -102 135 -102zM253 146q46 0 103 39q-31 -9 -59.5 -18.5t-54.5 -19.5
q3 -1 11 -1z" />
    <glyph glyph-name="H" unicode="H" horiz-adv-x="811" 
d="M156 -91q-68 0 -118 33q-56 38 -56 104q0 123 203 180q68 20 144.5 29t159.5 9q18 0 34 -0.5t29 -1.5q52 128 52 191q0 39 -25 39q-13 0 -33 -11t-22 -11q-6 0 -6 9q0 13 33 26q30 12 48 12q46 0 46 -65q0 -69 -48 -194q90 -12 136 -28l32 72q36 81 68.5 136.5t58.5 86.5
q14 15 48 15q13 0 13 -5q0 -1 -2 -5q-124 -166 -189 -312q64 -31 64 -66q0 -7 -5 -17q-6 -9 -13 -9q-12 0 -12 12q0 3 3 7q3 5 3 8q0 20 -50 43q-54 -127 -54 -188q0 -36 21 -36q8 0 25 11l18 12q9 0 9 -9q0 -11 -20 -22q-21 -12 -34 -12q-46 0 -46 61q0 62 53 194
q-54 17 -139 26q-34 -64 -77 -115t-102 -100q-70 -58 -132 -83.5t-118 -25.5zM156 -67q108 0 226 103q101 89 157 200q-11 1 -24.5 1.5t-27.5 0.5q-151 0 -280 -36q-190 -52 -190 -163q0 -53 46 -81q38 -25 93 -25z" />
    <glyph glyph-name="I" unicode="I" horiz-adv-x="439" 
d="M213 -35q-39 0 -44 47q-13 -1 -42 -7t-69 -14q-38 -8 -63.5 -12.5t-37.5 -4.5t-12 13q0 8 10 12q4 2 19 6t42 11q41 11 79 18.5t75 12.5q5 42 25.5 99t58.5 136q35 71 66 125t62 98h-17q-29 0 -54 -1t-46 -3q-125 -15 -125 -48q0 -14 28 -30t28 -22q0 -8 -10 -8
q-4 0 -7 1q-80 38 -80 67q0 22 43 43q57 27 186 27q17 0 35 -0.5t37 -1.5q12 17 49 17q15 0 15 -6q0 -2 -10 -15q56 -4 115 -12q6 -1 15 -2t20 -3q11 -3 11 -11t-11 -8l-3 1q-27 3 -68 6.5t-96 7.5q-44 -56 -81 -111.5t-63 -104.5q-79 -150 -95 -237q51 6 92 6q91 0 110 -21
q6 -7 6 -20q0 -8 -2.5 -14t-7.5 -3q-12 7 -35.5 11t-48 6t-39.5 2q-18 0 -37.5 -1t-40.5 -3q2 -29 20 -29q5 0 12 1.5t15 6.5t12 9.5t5 4.5q8 0 8 -9q0 -13 -20 -22q-22 -11 -34 -11z" />
    <glyph glyph-name="J" unicode="J" horiz-adv-x="541" 
d="M13 -351q-52 0 -84 27q-30 26 -30 67v12q14 117 198 224q79 47 163.5 77t157.5 43q11 35 18 64t12 57q5 32 11 72.5t6 79.5q0 34 -6 64.5t-23 50.5q-13 17 -32.5 25t-40.5 8q-34 0 -69.5 -13t-64.5 -33t-61.5 -50.5t-60.5 -66t-45.5 -69.5t-17.5 -60q0 -20 9 -35t31 -20
q17 -3 30 -3q20 0 38 6t36 16q17 10 33.5 22t28.5 21l12 9h5q3 0 3 -5q0 -4 -2.5 -8.5t-7.5 -10.5q-16 -19 -45.5 -37.5t-49.5 -25.5q-11 -4 -26.5 -6t-28.5 -2q-8 0 -16.5 1t-17.5 4q-30 10 -44 33t-14 53q0 31 17 67t45.5 72t62.5 66.5t68 51.5q31 18 70 30t78 12h4
q27 0 52 -9t44 -26q26 -23 35 -63.5t9 -86.5q0 -33 -2.5 -69t-8.5 -65l-2 -10q-5 -26 -10.5 -53t-14.5 -55h9q30 0 43 -4t13 -16q0 -10 -5 -10l-9 7q-4 2 -15 2h-19h-12.5t-12.5 -2q-30 -85 -77.5 -162.5t-106.5 -138t-124 -95t-130 -34.5h-6zM24 -336q35 2 71 16.5t75 44.5
q81 63 144 154.5t98 199.5q-40 -6 -95.5 -22.5t-117.5 -44.5q-58 -25 -96 -50.5t-68 -51.5q-46 -40 -72 -79t-31 -77q-1 -6 -1 -8.5v-4.5q0 -20 6.5 -31t16.5 -21q11 -10 28 -18t42 -7z" />
    <glyph glyph-name="K" unicode="K" horiz-adv-x="731" 
d="M83 -63q-47 0 -77 21q-36 24 -36 68q0 69 95 155q92 83 160 83q9 0 9 -7q0 -6 -15 -11q-112 -43 -178 -127q-40 -50 -40 -100q0 -63 72 -63q100 0 197 96q38 38 71 84t61 99q-47 68 -47 83q0 11 6 30q6 21 13 21q3 0 5 -5q10 -24 21 -47.5t21 -42.5q50 121 50 197
q0 48 -29 48q-13 0 -33 -11t-21 -11q-7 0 -7 9q0 13 34 27q14 6 26 8.5t21 2.5q51 0 51 -73q0 -88 -59 -220q206 95 263 204q1 2 5.5 12.5t7.5 20.5t10 10q11 0 11 -15q0 -64 -77 -127.5t-225 -127.5q21 -31 50.5 -66.5t56.5 -64.5q89 -93 131 -93q23 0 23 25q0 3 -0.5 7.5
t-1.5 9.5q-3 14 -3 15q0 9 8 9q17 0 17 -40q0 -22 -13 -35q-14 -14 -33 -14q-52 0 -141 87q-31 31 -58.5 62.5t-56.5 69.5q-30 -52 -65.5 -96.5t-76.5 -79.5q-102 -87 -203 -87z" />
    <glyph glyph-name="L" unicode="L" horiz-adv-x="583" 
d="M416 -56q-101 0 -231 67q-58 -37 -110 -37q-61 0 -108 41q-47 42 -47 102q0 31 13 53q16 28 44 28q29 0 104 -69q42 -38 70.5 -63t32.5 -28q51 65 101 208q-23 -7 -44.5 -10.5t-41.5 -3.5q-46 0 -75 13q-41 18 -41 57q0 42 74 83q67 37 112 37q11 0 11 -9q0 -6 -11 -9
l-36 -10q-121 -40 -121 -90q0 -47 89 -47q22 0 45.5 4t48.5 12q4 10 12 34t17 48t14 34q15 33 32 59t33 45q55 64 100 64q63 0 63 -54q0 -58 -65 -126q-25 -26 -54 -50t-62 -41l-61 -31q-18 -50 -28 -75t-20 -46q-17 -37 -34 -63.5t-34 -43.5q17 -9 42.5 -18.5t56.5 -17.5
q32 -8 60 -12t48 -4q48 0 84 12q51 17 51 54q0 13 -14 27q-15 14 -15 19q0 8 8 8q4 0 8 -3q36 -25 36 -58q0 -49 -57 -73q-22 -9 -46.5 -13t-53.5 -4zM340 294q47 18 120 93q79 80 79 122q0 20 -17 20q-7 0 -16 -3q-90 -32 -166 -232zM72 -1q42 0 82 23l-99 78
q-79 63 -89 63q-22 0 -22 -40q0 -49 40 -86q41 -38 88 -38z" />
    <glyph glyph-name="M" unicode="M" horiz-adv-x="1114" 
d="M999 -72q-57 0 -57 67q0 44 24 117q9 27 22.5 61.5t32.5 74.5q10 21 15.5 32.5t10 22t10.5 27.5q5 14 7 23.5t2 16.5q0 11 -7 11q-51 0 -182 -143q-46 -51 -86 -99t-72 -95l-33 -50q-2 -5 -6.5 -11t-9.5 -13q-3 -1 -8 -1q-30 0 -30 24q0 6 3 10q1 2 10 18.5t28 57.5
q101 211 101 302q0 42 -26 42q-42 0 -140 -107q-57 -63 -108.5 -133t-99.5 -150l-22 -37q-16 -26 -26 -33q-23 0 -23 22q0 8 4 12q54 66 119 212q35 78 52.5 135.5t17.5 94.5q0 100 -110 100q-29 0 -64 -7t-76 -22q-30 -10 -56 -22t-56 -29q-59 -32 -109 -70
q-76 -58 -76 -97q0 -56 109 -56q11 0 28 1.5t36 4.5q45 7 65 7q8 0 8 -4t-5 -7q-34 -24 -113 -24q-59 0 -98 16q-56 23 -56 71q0 52 75 112q26 21 55 39t66 36q30 14 57 25t64 22q44 14 83.5 20t73.5 6q146 0 146 -111q0 -89 -72 -229q29 34 58.5 70.5t55.5 66.5
q42 47 76 70t59 23q60 0 60 -90q0 -79 -61 -226q35 39 70.5 76t74.5 74q110 106 158 121q12 4 22 4q31 0 31 -40q0 -32 -20 -81q-17 -43 -31.5 -76.5t-31.5 -75.5q-21 -52 -30.5 -90.5t-9.5 -61.5q0 -36 27 -36q14 0 38 17q25 17 28 17q4 0 4 -5q0 -20 -27 -35
q-28 -15 -49 -15z" />
    <glyph glyph-name="N" unicode="N" horiz-adv-x="884" 
d="M410 -37q-22 0 -22 22q0 8 3 12q26 32 56 84.5t66 132.5q72 161 72 234q0 108 -128 108q-61 0 -139 -27q-45 -15 -87.5 -36t-86.5 -52q-111 -76 -111 -146q0 -57 77 -57q39 0 111 20q4 1 6.5 1.5t3.5 0.5q8 0 8 -6q0 -17 -52 -29q-20 -4 -37 -7t-31 -3q-112 0 -112 88
q0 82 114 161q88 60 188 91q82 25 154 25q165 0 165 -130q0 -92 -73 -229q29 34 58.5 70.5t55.5 66.5q42 47 76 70t59 23q73 0 73 -70q0 -60 -58 -186t-58 -164q0 -30 28 -30q15 0 39 17q25 17 28 17q4 0 4 -5q0 -20 -27 -35q-28 -15 -50 -15q-53 0 -53 56q0 41 30 110
l38 87q11 25 19 47.5t13 42.5q12 41 12 64q0 35 -25 35q-14 0 -31 -8q-36 -16 -82 -59.5t-99 -110.5q-40 -50 -77 -102.5t-69 -108.5q-7 -12 -19.5 -30.5t-29.5 -39.5z" />
    <glyph glyph-name="O" unicode="O" horiz-adv-x="656" 
d="M177 -26q-131 0 -131 105q0 33 15 70q-66 32 -66 97q0 86 84 159q67 58 163 92q105 38 208 38q97 0 163 -36q83 -47 83 -135q0 -71 -56 -151q-73 -105 -204 -171q-134 -68 -259 -68zM185 -5q120 0 240 72q112 67 184 171q54 78 54 141q0 71 -64 105q-50 28 -128 28
q-100 0 -214 -45q-87 -35 -150 -83q-89 -68 -89 -137q0 -59 52 -77q23 41 58.5 83t79.5 83q93 85 176 120q21 8 39 13.5t33 5.5h2q12 0 12 -9q0 -10 -15 -13q-35 -6 -68 -23q-34 -18 -83 -56q-25 -19 -52.5 -43.5t-56.5 -54.5q-38 -39 -59 -68t-26 -48q17 -4 37 -4
q89 0 179 84q20 19 28 26t7 7q7 0 7 -8q-21 -30 -45.5 -52t-53.5 -39q-65 -38 -129 -38q-10 0 -19.5 1.5t-17.5 3.5q-17 -34 -17 -62q0 -39 29 -62q28 -22 70 -22z" />
    <glyph glyph-name="P" unicode="P" horiz-adv-x="500" 
d="M117 -72q-16 0 -16 27q0 69 90 259q-83 17 -83 47q0 20 25 33q22 11 43 11q11 0 11 -7q0 -4 -6.5 -7t-17.5 -5q-10 -2 -17.5 -6.5t-7.5 -11.5q0 -17 62 -34q19 40 37.5 76t37.5 69q1 2 11.5 20t22.5 35q15 21 51 21q14 0 14 -7q0 -1 -2 -7q-72 -97 -135 -214q23 -3 44 -3
q84 0 165 37q95 43 119 111q3 8 4 16t1 15q0 67 -88 83q-61 12 -138 12q-83 0 -164.5 -14.5t-161.5 -43.5q-4 -1 -6.5 -1.5t-4.5 -0.5q-7 0 -7 6q0 12 17 27q14 14 28 18q110 36 256 36q104 0 200 -21q113 -26 113 -108q0 -24 -14 -54q-32 -65 -122 -105q-77 -34 -160 -34
q-22 0 -45 1.5t-46 3.5q-101 -191 -101 -251q0 -5 1 -8q1 -2 1 -4v-3q0 -14 -11 -14z" />
    <glyph glyph-name="Q" unicode="Q" horiz-adv-x="654" 
d="M571 -260q-55 0 -153 99q-34 34 -65 71.5t-60 78.5q-61 -15 -111 -15q-131 0 -131 105q0 33 15 70q-66 32 -66 97q0 86 84 159q67 58 163 92q105 38 208 38q97 0 163 -36q83 -47 83 -135q0 -71 -56 -151q-107 -154 -316 -215q20 -31 48 -65.5t62 -72.5q90 -97 135 -97
q23 0 23 24q0 4 -0.5 8.5t-1.5 9.5q-3 11 -3 15q0 9 9 9q16 0 16 -40q0 -22 -13 -35q-14 -14 -33 -14zM190 -5q39 0 91 12q-38 56 -38 70q0 5 1.5 12.5l3.5 17.5q5 21 13 21q3 0 5 -5q13 -31 25.5 -57.5t25.5 -48.5q183 57 297 221q54 78 54 141q0 71 -64 105
q-50 28 -128 28q-100 0 -214 -45q-87 -35 -150 -83q-89 -68 -89 -137q0 -59 52 -77q23 41 58.5 83t79.5 83q93 85 176 120q21 8 39 13.5t33 5.5h2q12 0 12 -9q0 -10 -14 -13q-34 -6 -55 -16q-19 -9 -39 -21.5t-43 -29.5q-23 -18 -55.5 -46t-61.5 -57q-78 -79 -91 -122
q3 1 9 1q20 0 20 -10q0 -13 -25 -13q-3 0 -6 0.5t-6 1.5q-17 -34 -17 -62q0 -39 29 -62q28 -22 70 -22z" />
    <glyph glyph-name="R" unicode="R" horiz-adv-x="524" 
d="M523 -75q-58 0 -160 113q-34 39 -66 80.5t-60 85.5q-11 1 -21 3t-19 4q-102 -193 -102 -254q0 -5 1 -8v-7q0 -14 -10 -14q-16 0 -16 27q0 71 93 267q-48 23 -48 62q0 23 16 40q17 18 38 18q24 0 42 -24q11 20 27.5 49.5t38.5 66.5q17 21 52 21q14 0 14 -7q0 -2 -3 -7
q-29 -40 -55.5 -80.5t-49.5 -82.5l33 -59q44 3 87.5 14t80.5 27q50 22 80.5 50.5t42.5 61.5q3 8 4 16t1 15q0 67 -88 83q-61 12 -138 12q-83 0 -164.5 -14.5t-161.5 -43.5q-4 -1 -6.5 -1.5t-4.5 -0.5q-7 0 -7 6q0 12 17 27q14 14 28 18q110 36 256 36q104 0 200 -21
q113 -26 113 -108q0 -24 -14 -54q-16 -33 -45.5 -58.5t-69.5 -43.5q-66 -31 -152 -37q-10 -1 -24 -1.5t-25 0.5q20 -32 49 -69t66 -78q94 -104 138 -104q24 0 24 26q0 4 -0.5 8.5t-1.5 9.5q-3 11 -3 15q0 9 8 9q17 0 17 -40q0 -21 -15 -38q-15 -16 -37 -16zM169 235l24 48
q-10 19 -24 19q-22 0 -22 -29q0 -23 22 -38zM228 218l-14 24l-11 -20q5 -1 11.5 -2t13.5 -2z" />
    <glyph glyph-name="S" unicode="S" horiz-adv-x="570" 
d="M151 -33q-145 0 -145 82q0 72 90 138q83 61 159 61q32 0 32 -21q0 -57 -100 -114q-13 -7 -22.5 -11.5t-14.5 -4.5q-8 0 -8 4q0 7 21 19q56 32 79 73q2 4 4.5 10t2.5 7q0 5 -8 5q-61 0 -132 -47q-78 -51 -78 -109q0 -54 122 -54q93 0 207 33q136 39 174 97q11 17 11 33
q0 63 -167 113q-22 7 -35 10t-36 10q-25 8 -41 14.5t-27 12.5q-42 24 -42 60q0 69 121 118q102 41 181 41q104 0 104 -52q0 -25 -18 -55q-19 -33 -43 -33q-9 0 -9 7q0 2 17 22q11 13 14.5 22t3.5 16q0 40 -70 40q-19 0 -41 -2.5t-47 -8.5q-54 -13 -109 -37q-79 -36 -79 -71
q0 -31 92 -58q80 -23 123.5 -36t48.5 -15q93 -37 93 -98q0 -41 -43 -81q-64 -61 -180 -102q-109 -38 -205 -38z" />
    <glyph glyph-name="T" unicode="T" horiz-adv-x="469" 
d="M285 -48q-49 0 -49 62q0 75 69 228q25 56 53 110t59 106l-150 -43q-45 -13 -82 -18t-69 -5q-91 0 -91 47q0 14 10 30q29 44 103 67q60 19 125 19q59 0 86 -8q13 -4 13 -13q0 -8 -8 -8h-3q-41 0 -62 4t-23 4q-51 0 -105 -14q-68 -18 -92 -48q-10 -11 -10 -20q0 -25 61 -25
q29 0 69.5 6.5t90.5 19.5q36 10 61.5 16.5t48.5 13t51 14.5q1 2 7 11.5t12 16.5q14 15 48 15q13 0 13 -5q0 -2 -17 -25q31 5 59.5 8t54.5 3q55 0 111 -29q65 -35 65 -83q0 -16 -10 -16q-5 0 -7 9q-3 16 -8 26q-8 15 -25 27.5t-39 20.5q-40 15 -81 15q-64 0 -147 -18
q-71 -101 -130 -220q-73 -147 -73 -242q0 -39 13 -39q8 0 25 11l18 12q9 0 9 -9q0 -11 -20 -22q-21 -12 -34 -12z" />
    <glyph glyph-name="U" unicode="U" horiz-adv-x="689" 
d="M599 -77q-47 0 -47 75q0 43 15 110t46 158q-30 -40 -60 -83t-59 -79q-45 -58 -81 -85.5t-62 -27.5q-64 0 -64 62q0 26 11.5 66t36.5 92q20 43 40.5 80.5t36.5 72.5q21 45 21 75q0 59 -74 59q-82 0 -183 -59q-102 -61 -134 -133q-18 -39 -18 -63q0 -31 35 -31q8 0 23 3
q17 3 23 3q8 0 8 -5q0 -13 -28 -20q-10 -3 -20 -4t-18 -1q-63 0 -63 52q0 24 13 51q40 87 160 160q116 71 215 71q98 0 98 -80q0 -41 -28 -98q-15 -31 -39 -77.5t-57 -123.5q-13 -31 -18.5 -54.5t-5.5 -39.5q0 -29 21 -29q53 0 143 113q33 41 67.5 91.5t70.5 108.5
q5 7 16 26t26 47q8 19 21 45t32 60q6 8 23 14t28 6q9 0 9 -5q0 -2 -2 -4q-48 -83 -81.5 -150t-52.5 -119q-56 -154 -56 -245q0 -60 26 -60q9 0 25 14q17 14 19 14q9 0 9 -9q0 -13 -26 -28q-26 -16 -41 -16z" />
    <glyph glyph-name="V" unicode="V" horiz-adv-x="588" 
d="M358 -9q-39 0 -39 60q0 23 6 53.5t19 66.5l47 116q50 123 50 143q0 68 -79 68q-81 0 -180 -60q-49 -31 -83 -65t-49 -67q-18 -39 -18 -63q0 -31 35 -31q8 0 23 3q17 3 23 3q7 0 7 -5q0 -13 -28 -20q-10 -3 -20 -4t-18 -1q-63 0 -63 52q0 21 14 51q20 42 58.5 82t99.5 77
q117 72 215 72q100 0 100 -77q0 -43 -42 -148q-12 -30 -25.5 -62.5t-24.5 -58.5q-15 -39 -22 -70t-7 -54q0 -34 16 -34q5 0 11 3q90 46 263 343q148 256 225 256q26 0 26 -12q0 -8 -12 -8q-10 0 -21.5 -5.5t-20.5 -13.5q-11 -10 -31.5 -35t-40.5 -53q-76 -105 -151 -227
q-30 -49 -57 -86.5t-57 -74.5q-94 -114 -149 -114z" />
    <glyph glyph-name="W" unicode="W" horiz-adv-x="1009" 
d="M350 -26q-56 0 -56 51q0 48 47 135q5 9 12 21t22 36.5t43 70.5q92 152 92 236q0 70 -73 70q-83 0 -210 -97q-112 -85 -169 -169q-38 -56 -38 -93q0 -32 36 -32q10 0 34 8t30 8q11 0 11 -6q0 -14 -35 -26q-29 -10 -47 -10q-55 0 -55 58q0 78 84 172q37 41 82.5 78.5
t102.5 71.5q109 64 185 64q114 0 114 -98q0 -44 -26 -101q-14 -31 -33 -67.5t-45 -79.5q-21 -36 -43 -71.5t-43 -71.5q-37 -62 -37 -102q0 -33 28 -33q34 0 94 42q155 107 321 310q1 2 10 12.5t20 23.5q14 11 29 11q11 0 11 -9q0 -7 -7 -18q-97 -169 -97 -279q0 -74 39 -74
q33 0 89 59q47 50 69 90q67 121 67 185q0 5 -2 13.5t-5 18.5t-5.5 17.5t-2.5 15.5q0 34 22 34q12 0 21 -26q7 -18 7 -36v-10.5t-1 -12.5q5 -10 18 -15q13 -4 13 -11q0 -8 -11 -8q-12 0 -26 6q-11 -47 -28.5 -92t-43.5 -90q-28 -49 -61 -85t-68 -59q-28 -18 -58 -18
q-70 0 -70 87q0 55 44 198l-111 -111t-63 -61q-64 -58 -113 -89t-81 -38q-8 -1 -16.5 -2.5t-16.5 -1.5z" />
    <glyph glyph-name="X" unicode="X" horiz-adv-x="532" 
d="M-94 -65q-76 0 -76 52q0 39 46 88q20 22 39.5 37t40.5 28q10 5 13 5q7 0 7 -5q0 -9 -16 -22q-97 -82 -97 -131q0 -31 48 -31q161 0 413 231q-44 127 -44 261v28q2 8 13 21q13 13 21 13q6 0 6 -7v-32q0 -135 40 -251l29 29q23 23 48.5 54t55.5 70q75 99 75 132
q0 14 -15 14q-7 0 -16.5 -2.5t-21.5 -7.5q-13 -5 -19.5 -8t-7.5 -3q-5 0 -5 5q0 14 42 29q36 13 57 13q31 0 31 -28q0 -52 -97 -173q-37 -46 -74 -86t-70 -71q13 -31 26.5 -58t28.5 -50q47 -75 85 -75q33 0 40 52q2 14 11 14t9 -10q0 -32 -22 -57t-53 -25q-48 0 -99 67
q-17 23 -32.5 50.5t-28.5 59.5q-49 -43 -99.5 -79.5t-100.5 -65.5q-132 -75 -231 -75z" />
    <glyph glyph-name="Y" unicode="Y" horiz-adv-x="745" 
d="M186 -351q-45 0 -77 19q-39 24 -39 65q0 121 222 230q79 39 161 67.5t167 47.5q5 20 11.5 82.5t14.5 165.5l-7.5 -12.5t-6.5 -9.5l-52.5 -72.5t-75.5 -99.5q-41 -52 -75 -77.5t-60 -25.5q-69 0 -69 64q0 60 63 184q64 125 64 162q0 59 -74 59q-82 0 -183 -59
q-102 -61 -134 -133q-18 -39 -18 -63q0 -31 35 -31q8 0 23 3q17 3 23 3q8 0 8 -5q0 -13 -28 -20q-10 -3 -20 -4t-18 -1q-63 0 -63 52q0 24 13 51q40 87 160 160q116 71 215 71q98 0 98 -80q0 -38 -29 -98q-14 -29 -35 -74.5t-47 -107.5q-10 -23 -13.5 -42t-3.5 -33
q0 -29 22 -29q54 0 146 113q14 17 35.5 44t49.5 63q10 17 25.5 41.5t35.5 56.5l4 33q2 16 24 36q23 21 37 21q12 0 12 -13q0 -4 -1 -5l-9 -23q-8 -22 -16 -60t-16 -94q-4 -31 -12 -78.5t-21 -109.5h10q13 0 25.5 -1t25.5 -4q36 -7 36 -25q0 -11 -11 -11q-3 0 -9 2
q-27 12 -50 12q-17 0 -34 -4q-48 -162 -168 -276q-133 -127 -291 -127zM183 -323q74 0 141 29q93 40 176 142q42 52 68.5 101.5t41.5 97.5q-134 -25 -301 -110q-211 -106 -211 -208q0 -52 85 -52z" />
    <glyph glyph-name="Z" unicode="Z" horiz-adv-x="364" 
d="M274 -10q-22 0 -53 7.5t-64 17t-63 17t-52 7.5q-26 0 -59 -13t-67 -21q-8 0 -10 2q-6 2 -6 14t15 15q35 7 75 31.5t81 58.5t78.5 70.5t65.5 66.5q60 64 119.5 124.5t106.5 103.5q-21 3 -56 6.5t-75.5 5.5t-80.5 1q-38 -1 -69 -17t-50.5 -41.5t-22.5 -55.5q-4 -22 9.5 -33
t25.5 -11q29 0 43 16t33 38q1 2 4 2q4 0 6.5 -4t0.5 -7q-15 -25 -38.5 -44t-49.5 -19q-25 0 -42.5 16.5t-17.5 44.5v6t1 7q7 45 35 78.5t68.5 51.5t82.5 18q20 0 49 -4.5t58.5 -10t53.5 -10t34 -4.5q20 0 33 7.5t29 20.5q10 9 18 9q9 0 12 -9t1 -17q0 -11 -7 -15
q-50 -24 -99 -68.5t-98 -98.5t-99 -108q-39 -42 -85.5 -83.5t-85.5 -71.5q20 -1 46.5 -10t55.5 -20t55.5 -19t46.5 -8q54 0 95 30.5t81 100.5q5 8 13 8q5 0 5 -5t-4 -10l-7 -10q-25 -39 -50.5 -74.5t-55.5 -57.5t-69 -22z" />
    <glyph glyph-name="bracketleft" unicode="[" horiz-adv-x="307" 
d="M114 -88q-33 0 -39 3q-10 6 -17.5 18.5t-7.5 27.5q0 8 3 17q14 42 31.5 95.5t37.5 112t40 114t39.5 101.5t36.5 74q12 19 44.5 27t71.5 10.5t69 2.5l-8 -17h-40q-31 0 -58.5 -6t-40.5 -30q-16 -31 -37 -79.5t-44 -105.5t-43.5 -114t-35.5 -106.5t-20 -82.5q-1 -3 -1 -9
q0 -14 7.5 -22.5t15.5 -13.5q4 -1 15 -2t26 -1q24 0 50 1.5t36 4.5l-16 -17q-9 0 -29 -0.5t-43 -1.5t-43 -1z" />
    <glyph glyph-name="backslash" unicode="\" horiz-adv-x="413" 
d="M327 -10q-9 30 -29.5 82.5t-47.5 115.5t-57 127.5t-59.5 119.5t-53.5 90q-1 1 -1 5q5 12 24 12q4 0 9 -0.5t7 -3.5q54 -97 100 -194t80.5 -186.5t52.5 -164.5v-1q0 -4 -4 -6t-9 -2q-10 0 -12 6z" />
    <glyph glyph-name="bracketright" unicode="]" horiz-adv-x="403" 
d="M10 -87l8 17h40q32 0 59 6t40 30q16 31 37 79.5t44 105.5t43.5 114t35.5 106.5t20 82.5q1 3 1 9q0 14 -7.5 23t-15.5 13q-4 2 -15 2.5t-26 0.5q-24 0 -49.5 -1.5t-36.5 -4.5l16 17q10 0 29.5 0.5t43 1.5t42.5 1q33 0 39 -3q10 -6 17.5 -18.5t7.5 -27.5q0 -8 -3 -17
q-14 -42 -31.5 -95.5t-37.5 -112t-40 -114t-39.5 -101.5t-36.5 -74q-11 -18 -44 -26.5t-72 -11t-69 -2.5z" />
    <glyph glyph-name="asciicircum" unicode="^" horiz-adv-x="370" 
d="M263 361q-13 5 -22.5 14t-11.5 10q-16 12 -25 21.5t-14 16.5q-91 -61 -101 -61q-7 0 -4 7q1 7 57 44q25 17 40 27t24 10q7 0 10 -7q6 -11 22.5 -29.5t40.5 -42.5l1 -4v-1q0 -4 -5.5 -6t-11.5 1z" />
    <glyph glyph-name="underscore" unicode="_" horiz-adv-x="632" 
d="M-14 -47q-11 0 -11 7q0 6 7.5 13t17.5 7h650q9 0 9 -8q0 -14 -17 -19h-656z" />
    <glyph glyph-name="grave" unicode="`" horiz-adv-x="117" 
d="M111 280q-4 0 -19 8.5t-33.5 20t-33 21t-17.5 11.5q-2 2 -5 6t-3 9q0 12 3.5 14t5.5 2t7 -1.5t11 -6.5q49 -36 87 -74q3 -3 3 -6q0 -4 -6 -4z" />
    <glyph glyph-name="a" unicode="a" horiz-adv-x="291" 
d="M49 -3q-31 0 -31 34q0 51 50 125q49 73 97 90q9 3 17 5t16 2q36 0 52 -25q3 -4 3 -7q0 -2 -7 -3q-6 -1 -10 -7q-24 -39 -24 -117q0 -72 31 -72q21 0 61 44q6 6 17 21t22 30.5t15 20.5q3 3 5 3q4 0 4 -7q0 -5 -6 -14q-22 -35 -50 -68t-48 -43q-18 -9 -36 -9q-61 0 -61 86
q0 7 0.5 14.5t1.5 15.5q-68 -119 -119 -119zM66 27q11 0 26 12.5t31 33.5q24 32 45 68t37 78q-3 1 -9 1q-41 0 -83 -51q-61 -73 -61 -121q0 -21 14 -21z" />
    <glyph glyph-name="b" unicode="b" horiz-adv-x="243" 
d="M55 -42q-40 0 -40 15q0 6 6 6q4 0 14 -3q11 -4 20 -4q46 0 89 51q18 21 31 43.5t23 47.5q19 45 19 99q0 33 -15 33q-33 0 -88 -91q-52 -85 -52 -127q0 -11 7 -17q8 -6 8 -10t-5 -4q-37 0 -37 54q0 77 81 230q30 57 63.5 111t69.5 104l37 53q28 34 49 34q24 0 24 -12
q0 -1 -3 -6q-8 -9 -28 -30.5t-34 -39.5q-30 -37 -60 -80t-58 -89q-68 -113 -88 -184q12 22 28.5 45.5t32.5 40.5q49 55 85 55q30 0 30 -43q0 -61 -39 -141q-27 -55 -68 -94q-50 -47 -102 -47z" />
    <glyph glyph-name="c" unicode="c" horiz-adv-x="220" 
d="M108 -8q-75 0 -75 80q0 26 15 54t42 57q56 59 103 59q32 0 32 -25q0 -9 -14 -34q-15 -25 -24 -25q-4 0 -4 5q0 4 3 13q4 8 4 14q0 21 -26 21q-11 0 -28 -11.5t-31 -34.5q-26 -43 -26 -79q0 -61 52 -61q22 0 48.5 13t51 33.5t37.5 42.5q8 12 13 12q4 0 4 -3v-4
q0 -2 -0.5 -5t-2.5 -5q-15 -22 -36 -44.5t-56 -45.5q-18 -12 -39.5 -19.5t-42.5 -7.5z" />
    <glyph glyph-name="d" unicode="d" horiz-adv-x="288" 
d="M47 0q-31 0 -31 34q0 62 63 143q33 43 65 64.5t63 18.5q17 58 35 108t39 93q68 140 133 140q42 0 42 -48q0 -105 -239 -386q-6 -34 -6 -66q0 -76 32 -76q21 0 61 48q40 49 44 49q3 0 3 -5q0 -6 -5 -14q-62 -101 -122 -101q-52 0 -52 79q0 25 6 58q-78 -139 -131 -139z
M223 196q194 263 194 355q0 22 -18 22q-50 0 -111 -163q-41 -108 -65 -214zM64 31q23 0 57 45q7 8 17.5 25.5t25.5 43.5q17 29 24.5 46t7.5 22q0 2 -0.5 2t-1.5 1q-1 3 -11 3q-40 0 -87 -62t-47 -104q0 -22 15 -22z" />
    <glyph glyph-name="e" unicode="e" horiz-adv-x="200" 
d="M112 -6q-33 0 -58 19t-25 64q0 27 12 58.5t32.5 59.5t45.5 46t51 18q10 0 17.5 -7t7.5 -21q0 -31 -47 -75q-19 -18 -39.5 -32t-37.5 -20q-4 -13 -4 -30q0 -23 11 -42t35 -19q30 0 55 17t46 41.5t37 45.5q7 10 14 10q4 0 4 -4q0 -2 -1 -4.5t-2 -4.5q-17 -24 -39 -52
t-50 -48t-65 -20zM78 124q26 11 54 39q33 32 33 56q0 12 -12 12q-16 0 -44 -46q-25 -38 -31 -61z" />
    <glyph glyph-name="f" unicode="f" horiz-adv-x="258" 
d="M-2 -356q-37 0 -49 29.5t-12 69.5q0 35 12.5 85t32 106.5t43 112t45.5 101.5q25 52 43.5 88.5t34 64.5t30 54.5t31.5 58.5q20 36 35.5 61.5t22.5 33.5q5 5 15.5 11.5t19.5 6.5q14 0 14 -17q0 -7 -13 -30t-34 -54.5t-44 -65.5q-29 -43 -59.5 -93t-59.5 -103q8 6 15 6
q34 0 55 -108q11 -11 23 -13t21 -2q26 0 57 31q16 16 27 32t17 23q3 3 6 3q7 0 7 -6q0 -5 -7 -15q-27 -38 -53 -61.5t-53 -24.5q-15 0 -27.5 3.5t-16.5 8.5q9 -58 1.5 -112.5t-28.5 -112.5q-16 -43 -37.5 -82.5t-49.5 -64.5t-65 -25zM12 -329q26 0 48.5 24t40.5 58t30 65
q22 57 28.5 116.5t-5.5 115.5q-23 17 -40.5 43.5t-17.5 51.5q-59 -133 -93 -239t-34 -176q0 -34 13.5 -46.5t29.5 -12.5z" />
    <glyph glyph-name="g" unicode="g" horiz-adv-x="243" 
d="M-141 -406q-49 0 -80 28q-33 29 -33 75q0 107 152 205q129 83 250 102q4 19 9.5 48t13.5 67q-68 -119 -119 -119q-31 0 -31 34q0 51 50 125q49 73 97 90q9 3 17.5 5t15.5 2q16 0 34 -9q8 -4 14 -9.5t6 -12.5q0 -4 -9 -7t-12 -9l-11 -51q-5 -25 -14.5 -63.5t-20.5 -89.5h4
q53 0 53 -23q0 -6 -4 -6l-8 5t-29 5h-10t-10 -1q-19 -75 -43 -133.5t-52 -99.5q-108 -158 -230 -158zM69 30q11 0 26 12.5t31 33.5q24 32 45 68t37 78q-3 1 -9 1q-41 0 -83 -51q-61 -73 -61 -121q0 -21 14 -21zM-137 -392q63 0 122 52q47 40 85 105q53 91 77 221
q-65 -10 -157 -57q-46 -23 -81 -46t-59 -46q-75 -72 -75 -143q0 -39 24 -62q26 -24 64 -24z" />
    <glyph glyph-name="h" unicode="h" horiz-adv-x="311" 
d="M229 -6q-54 0 -54 65q0 22 8.5 52.5t21.5 56.5q-14 -13 -35 -34t-41 -46q-39 -48 -60 -83q-11 -8 -26 -8q-27 0 -27 13q0 11 11 41t32 78q32 73 67.5 140.5t75.5 129.5q121 193 199 193q43 0 43 -49q0 -64 -104 -179q-22 -24 -59.5 -61.5t-93.5 -88.5q-13 -12 -37.5 -33
t-49.5 -46q-3 -4 -8 -16t-13 -31q-16 -39 -16 -49q1 -1 1 -3q11 14 32.5 37.5t46.5 51.5q23 25 44 47t33 30q9 6 16 6q20 0 20 -21l-24 -52q-24 -52 -24 -82q0 -35 34 -35q28 0 60 29q23 20 47 54l22 31q2 3 5 3t5.5 -3t0.5 -7q-2 -6 -9 -16q-34 -50 -70 -82.5t-74 -32.5z
M112 170q35 26 81.5 69t98.5 104q117 135 117 192q0 33 -22 33q-54 0 -153 -166q-34 -57 -66.5 -117t-55.5 -115z" />
    <glyph glyph-name="i" unicode="i" horiz-adv-x="179" 
d="M139 255q-24 0 -24 24q0 12 9 21q10 10 23 10q24 0 24 -24q0 -12 -9 -21q-10 -10 -23 -10zM81 -17q-55 0 -55 59q0 28 20 82q9 25 18.5 42.5t19.5 32.5q6 9 14 9t16 -8q5 -5 5 -13q0 -7 -4 -14q-22 -34 -36 -68.5t-14 -61.5q0 -36 26 -36q14 0 32 7.5t36 23.5
q12 11 25.5 25t27.5 33l26 32q5 0 5 -8t-7 -16q-91 -121 -155 -121z" />
    <glyph glyph-name="j" unicode="j" horiz-adv-x="158" 
d="M122 300q-24 0 -24 24q0 12 9 21q10 10 22 10q24 0 24 -24q0 -12 -9 -21q-10 -10 -22 -10zM-258 -406q-47 0 -76 25q-30 26 -30 71q0 107 162 209q137 86 260 105q7 19 14 56.5t14 80.5q-9 -15 -20 -30t-19 -25q-8 -8 -12 -8q-5 0 -5 5t4 10q24 33 39.5 63.5t19.5 55.5
q3 19 29 19q17 0 17 -11q0 -23 -12 -85q-7 -36 -15.5 -66.5t-16.5 -63.5q7 0 17.5 -1t18.5 -3q23 -5 23 -15q0 -7 -7 -7q-2 0 -6 2q-10 5 -31 5h-8.5t-8.5 -1q-23 -75 -50.5 -132t-59.5 -101q-119 -158 -241 -158zM-253 -392q62 0 126 52q25 20 49 48.5t42 56.5
q59 91 92 221q-34 -5 -73.5 -19t-87.5 -38q-47 -23 -84 -46t-62 -46q-85 -76 -85 -150q0 -37 23 -58t60 -21z" />
    <glyph glyph-name="k" unicode="k" horiz-adv-x="337" 
d="M243 -9q-23 0 -42 15t-33 37.5t-22 46t-8 39.5q-12 -14 -27 -29t-26 -29q-15 -18 -21 -52q0 -1 -1.5 -6.5t-1.5 -7.5q-12 -5 -23 -5q-22 0 -22 10q0 23 42 119q31 71 65 136t76 132q122 195 199 195q45 0 45 -41q0 -72 -126 -201q-40 -41 -90 -83.5t-106 -85.5
q-10 -21 -18.5 -41t-15.5 -40l104 102q38 38 65.5 54t43.5 16q26 0 26 -38t-54 -76q-24 -16 -51.5 -26t-50.5 -10q11 -48 37 -70.5t55 -22.5q58 0 127 91q6 9 12 9q5 0 5 -5t-4 -10q-24 -35 -68 -74q-26 -24 -47 -35t-36 -13q-2 0 -4 -0.5t-4 -0.5zM134 215q36 23 82 64
t94 90q110 113 110 168q0 21 -17 21q-25 0 -80 -46q-47 -40 -91 -106t-82 -147q-9 -19 -12.5 -30t-3.5 -14zM179 138q29 0 67 26q37 27 37 55q0 20 -13 20q-20 0 -109 -93q5 -8 18 -8z" />
    <glyph glyph-name="l" unicode="l" horiz-adv-x="216" 
d="M117 -13q-54 0 -67 65q-1 9 -2.5 18t-1.5 18q0 45 16.5 92t40.5 92t44 83q19 35 42.5 69.5t46.5 63.5t39 47q26 29 50 41.5t43 12.5q13 0 23 -13q11 -14 11 -27q0 -69 -129 -231q-51 -64 -98 -115.5t-91 -92.5q-1 -8 -1.5 -16.5t-0.5 -16.5q0 -34 11 -51.5t39 -17.5
t65.5 32.5t77.5 91.5q3 5 7 6q6 0 6 -7q0 -5 -2 -8q-14 -24 -31.5 -46t-39.5 -42q-25 -22 -49.5 -35t-48.5 -13zM86 132q28 24 66.5 69.5t81.5 106.5q97 134 116 194q9 29 9 43q0 19 -13 19q-29 0 -71 -56q-24 -32 -56 -81.5t-62 -107.5q-35 -67 -49.5 -111t-21.5 -76z" />
    <glyph glyph-name="m" unicode="m" horiz-adv-x="400" 
d="M25 -4q-8 0 -8 18q0 6 1 8q11 27 23 65t24 87q1 7 2.5 14t5.5 26q1 2 4 6t9 8q11 7 20 7q7 0 7 -6q0 -5 -12 -43t-35 -109l110 147q14 18 31 18q16 0 16 -18q0 -7 -1.5 -19.5t-5.5 -31.5t-7.5 -47.5t-8.5 -65.5q14 20 35.5 49.5t51.5 67.5q15 19 32 19q15 0 15 -19
q0 -8 -1.5 -19.5t-3.5 -27.5l-3.5 -28t-1.5 -20q0 -52 27 -52q39 0 97 84q7 10 10 10q5 0 5 -9q0 -2 -1.5 -4.5t-0.5 -1.5q-12 -16 -25 -32t-31 -33q-41 -40 -72 -40q-47 0 -47 104v17t1 19q-18 -16 -39.5 -46.5t-41.5 -68.5q-15 -28 -33 -28q-6 0 -9 4q-3 11 -3 28
q0 13 3 40.5t10 66.5q3 18 5 31t2 18q0 8 -3 8q-8 -7 -23.5 -25.5t-31.5 -39.5q-20 -27 -42.5 -58.5t-45.5 -68.5q-6 -9 -10 -9z" />
    <glyph glyph-name="n" unicode="n" horiz-adv-x="278" 
d="M196 -6q-57 0 -57 72q0 32 10.5 62t24.5 55q-35 -31 -73.5 -76.5t-75.5 -101.5q-6 -9 -9 -9q-9 0 -9 18q0 4 2 8q11 27 22 62.5t22 83.5l4 20t6 26q2 6 14 14q10 7 20 7q7 0 7 -6q0 -5 -12 -43t-35 -109q6 8 25 29.5t50 55.5l62 68q7 7 16 7q23 0 23 -23q0 -5 -4 -12
q-56 -92 -56 -146q0 -38 36 -38q26 0 60 29q14 11 24.5 24.5t22.5 29.5q21 29 24 29t3 -6t-6 -17q-68 -113 -141 -113z" />
    <glyph glyph-name="o" unicode="o" horiz-adv-x="229" 
d="M59 -12q-35 0 -35 41q0 57 50 134q-1 5 -1.5 11t-0.5 11q0 36 24 70t59 34q30 0 40.5 -21t10.5 -47q0 -22 -5 -42q-5 -21 -15 -47t-25 -55q15 -9 34 -9q17 0 32 4.5t28 17.5t20.5 23t6.5 9q2 2 4 2q4 0 6.5 -5t-1.5 -10q-16 -23 -41.5 -40.5t-55.5 -17.5q-23 0 -40 10
q-46 -73 -95 -73zM148 86q13 32 20 55t7 43v8q0 27 -9 50.5t-26 23.5q-23 0 -36 -28q-9 -19 -9 -42v-6q16 19 32 19q15 0 22 -10q3 -4 3 -7q0 -6 -12 -6q-18 0 -38 -38q14 -39 46 -62zM75 12q13 0 37 24q10 10 17 19t11 17q-34 23 -50 51q-30 -63 -30 -91q0 -20 15 -20z" />
    <glyph glyph-name="p" unicode="p" horiz-adv-x="327" 
d="M-97 -309q-25 0 -25 37q0 25 22 70.5t68 111.5q31 45 64 89t65 88v6v34t-1 29q-7 -10 -20 -30t-34 -45q-1 -1 -2 -1q-5 0 -5 9q0 7 4 12q23 32 36.5 67t13.5 52q0 9 -5 16l-6 7q0 4 7.5 7t23.5 1q14 -2 20.5 -12t6.5 -44q0 -16 -1 -38.5t-5 -49.5q14 26 34.5 58.5
t37.5 53.5q51 64 87 64q32 0 32 -47q0 -58 -41 -137q-16 -31 -40 -61.5t-51 -47.5q44 1 94 31t99 104q3 5 6 5q4 0 4 -6q0 -9 -9 -22q-16 -23 -28.5 -37.5t-25 -26t-30.5 -25.5q-32 -24 -64 -34t-61 -10q-18 0 -34.5 3.5t-30.5 8.5q-16 -41 -36 -82t-48 -86
q-74 -122 -122 -122zM162 -8q22 10 42.5 36.5t37.5 62.5q35 73 35 124q0 31 -17 31q-4 0 -10 -2q-18 -8 -37.5 -32.5t-38.5 -60.5q-15 -28 -30 -61t-24 -63q11 0 24.5 -11.5t17.5 -23.5zM-81 -274q45 0 121 144q10 19 21 52t22 79q-1 2 -1 5v5q0 12 6 22q-1 1 -2 1
q-4 0 -11 -10l-72 -106q-10 -15 -23.5 -37.5t-29.5 -53.5q-37 -70 -37 -92q0 -9 6 -9z" />
    <glyph glyph-name="q" unicode="q" horiz-adv-x="266" 
d="M58 -420q-32 0 -49 42q-13 30 -13 69q0 30 9 58q6 20 18 51t31 71l55 121q-13 4 -13 14q0 6 6 6h3t5 -1t5.5 -1h3.5q12 20 26 45.5t30 56.5q-80 -101 -122 -101q-29 0 -29 30q0 51 57 127q57 77 106 93q18 6 33 6q35 0 50 -24l1.5 -3t0.5 -2t-12 -6q-12 -4 -22 -25
q8 2 11 2q13 0 13 -10l-49 -84q-25 -42 -38 -67t-14 -33h8q68 0 151 107q5 6 9 6t4 -5q0 -4 -8 -17q-14 -22 -31 -41.5t-40 -36.5q-50 -37 -99 -31q37 -18 55 -75q7 -22 10.5 -45.5t3.5 -49.5q0 -16 -1.5 -30t-3.5 -25q-13 -67 -53 -123q-48 -69 -108 -69zM72 42q23 0 60 45
q53 63 93 147q-3 1 -9 1q-40 0 -87 -51q-70 -77 -70 -125q0 -17 13 -17zM61 -391q45 0 85 55q15 21 28 45.5t20 49.5q14 47 14 87q0 38 -15 81q-19 55 -51 55q-2 0 -10 -15q-28 -50 -51 -100.5t-39 -96.5q-23 -67 -23 -107q0 -54 42 -54z" />
    <glyph glyph-name="r" unicode="r" horiz-adv-x="295" 
d="M203 -16q-34 0 -47.5 18t-13.5 46q0 23 7.5 48.5t18.5 47.5t19 35q-3 -1 -6 -1.5t-7 -0.5q-14 0 -31 10q-18 12 -18 25q-6 -14 -16.5 -32t-24.5 -39q-37 -58 -49 -58q-4 0 -4 4t6 12q19 26 38.5 60t39.5 76q-1 5 -1.5 10t-0.5 12q0 23 9 53q11 38 27 38q10 0 19 -18
q3 -7 5 -13.5t2 -13.5q0 -24 -41 -73q9 -31 35 -31q19 0 35 19q17 20 24 20q9 0 16 -7t7 -18q0 1 -12.5 -18t-28.5 -53t-22.5 -58t-6.5 -43q0 -35 33 -35q32 0 81 49q16 17 37 43l26 32q4 0 4 -6q0 -8 -6 -17q-14 -22 -30.5 -43.5t-30.5 -34.5q-46 -45 -92 -45z" />
    <glyph glyph-name="s" unicode="s" horiz-adv-x="261" 
d="M127 -23q-47 0 -85 34q-39 35 -39 80q0 29 16 29q10 0 21 -14q14 12 50 75q16 27 35 55.5t41 48t46 19.5q19 0 32 -9q15 -9 15 -22q0 -8 -23 -8q-22 0 -42 -14q-19 -15 -19 -37q0 -8 3 -17l25 -65q8 -19 10.5 -36.5t2.5 -31.5q58 9 99 59q2 3 5 3q6 0 6 -8q0 -2 -0.5 -4
t-1.5 -4q-33 -52 -111 -67q-3 -16 -11 -28t-19 -20q-25 -18 -56 -18zM181 59v10q0 11 -4.5 30t-13.5 49t-13.5 54.5t-3.5 31.5q-26 -42 -51.5 -79.5t-45.5 -60.5q31 -15 66 -24t66 -11zM114 5q20 0 39.5 7.5t26.5 27.5q-45 0 -83.5 9t-61.5 28l-6 -6q27 -66 85 -66z" />
    <glyph glyph-name="t" unicode="t" horiz-adv-x="200" 
d="M108 -5q-31 0 -44 21t-13 52q0 38 13 79.5t28 68.5h-6q-35 0 -46.5 5.5t-11.5 18.5q0 7 11 7l64 -4q25 50 50.5 93t42.5 60q14 14 39 14q22 0 22 -9q0 -2 -1 -3l-43 -51q-15 -18 -33 -46t-36 -60q11 -1 20.5 -1h16.5q4 0 9 0.5t12 0.5h21q12 0 12 -6q0 -15 -103 -18
q-11 -21 -22 -48.5t-17.5 -54.5t-6.5 -49q0 -46 39 -46q32 0 75 39q17 16 29.5 32.5t24.5 33.5q6 9 11 9t5 -6q0 -4 -1.5 -7.5t-2.5 -5.5q-13 -17 -28.5 -37t-36.5 -39q-49 -43 -93 -43z" />
    <glyph glyph-name="u" unicode="u" horiz-adv-x="313" 
d="M218 -17q-56 0 -56 70q0 17 15 63q-34 -51 -45 -63q-33 -39 -59 -39q-33 0 -33 56q0 32 21 77q24 52 50 52q15 0 15 -8q0 -1 -5 -10t-20 -35q-26 -46 -26 -69q0 -32 19 -32q15 0 45 36t70 110l21 39q8 8 15 8q9 0 16 -7q8 -8 8 -18q0 1 -9.5 -18t-25.5 -49
q-36 -67 -36 -105q0 -35 33 -35q27 0 64 32q24 21 54 60q11 14 18.5 23t8.5 9q3 0 3 -6t-6 -17q-29 -47 -65 -80q-49 -44 -90 -44z" />
    <glyph glyph-name="v" unicode="v" horiz-adv-x="315" 
d="M94 3q-36 0 -36 52q0 17 6 39t19 44l-12 -17q-9 -12 -12.5 -18t-12.5 -16q-5 -5 -10 -5t-5 4q0 5 4 10t17.5 25.5t30.5 45.5q10 14 23.5 29t33.5 15q6 0 11 -2.5t5 -6.5q0 -5 -4 -10q-33 -46 -48.5 -81.5t-15.5 -61.5q0 -21 20 -21q14 0 29 10t35 34q16 18 28.5 35.5
t22.5 39.5l-2 44q0 57 43 73q8 3 12 3q13 0 13 -18q0 -42 -38 -98v-6q0 -25 16 -47q8 -12 17.5 -17t19.5 -5q20 0 37.5 15.5t34.5 43.5q3 4 5 4q5 0 5 -12q0 -5 -2 -9q-18 -28 -37 -44t-46 -16q-30 0 -47.5 19.5t-22.5 48.5q-15 -31 -62 -79q-22 -24 -41.5 -34t-33.5 -10z
" />
    <glyph glyph-name="w" unicode="w" horiz-adv-x="394" 
d="M48 -31q-26 0 -26 34q0 22 9.5 56t30.5 74q23 44 45.5 63.5t41.5 19.5q11 0 11 -7q0 -2 -3 -5q-28 -32 -68 -99q-45 -78 -45 -106q0 -10 8 -10q55 0 148 144l14 22t17 24q5 3 13 3q16 0 16 -13q-36 -57 -36 -108q0 -34 29 -34q22 0 47 43q9 16 16 31.5t12 31.5
q-21 69 -21 77q0 15 13 15q16 0 26 -18q10 -17 10 -35t-9 -38q13 -58 46 -58q14 0 25.5 10t20 22t13.5 17q3 3 6 3q7 0 7 -7q0 -1 -1.5 -3.5t-0.5 -1.5q-41 -59 -74 -59q-15 0 -31.5 11.5t-24.5 37.5q-4 -19 -12.5 -36t-18.5 -31q-27 -39 -58 -39q-30 0 -45 28
q-13 23 -10 55q-26 -36 -64 -69q-49 -45 -77 -45z" />
    <glyph glyph-name="x" unicode="x" horiz-adv-x="262" 
d="M22 -11q-4 0 -4 4q0 8 51 60q28 29 43.5 45.5t18.5 20.5q-4 9 -13 30.5t-19 40.5q0 -15 -9 -34.5t-20.5 -37t-19.5 -27.5q-4 -6 -13 -6q-4 0 -6 2.5t2 6.5l6 8t14 20t13 23q7 14 11.5 29.5t4.5 31.5q0 18 -7 32q-1 1 -1 3q-2 6 -2 8q0 11 18 11q10 0 21.5 -14.5
t22.5 -35.5t19.5 -40.5t12.5 -29.5l65 48q50 37 60 37q4 0 4 -3q0 -5 -54 -46q-4 -3 -19 -15t-29 -24t-17 -17q5 -11 9.5 -21t11.5 -26q15 -31 33 -31q23 0 57 43q17 22 23.5 31.5t10.5 13.5q7 7 12 7q8 0 3 -8l-7 -14q-69 -108 -116 -108q-30 0 -74 92q-9 -8 -61 -58
q-52 -52 -56 -52z" />
    <glyph glyph-name="y" unicode="y" horiz-adv-x="274" 
d="M-100 -406q-49 0 -80 28q-33 29 -33 75q0 106 153 205q130 83 249 102q7 31 15 77t17 107q-6 -14 -17 -34t-26 -42q-17 -26 -29 -42.5t-24 -28.5q-25 -27 -49 -27q-32 0 -32 56q0 31 20 77q22 52 51 52q14 0 14 -8q0 -1 -5 -10t-20 -35q-25 -44 -25 -69q0 -32 18 -32
q32 0 135 201q2 15 25 15q18 0 18 -8q0 -7 -3 -28t-10 -57q-9 -50 -16 -85.5t-17 -77.5h4q53 0 53 -27q0 -6 -3 -6q-1 0 -9 5l-11 5.5t-18 3.5h-9.5t-9.5 -1q-37 -148 -95 -233q-108 -158 -231 -158zM-95 -392q62 0 121 52q47 40 85 105q53 91 77 221q-65 -10 -157 -57
q-93 -47 -139 -92q-76 -72 -76 -143q0 -39 24 -62q26 -24 65 -24z" />
    <glyph glyph-name="z" unicode="z" horiz-adv-x="291" 
d="M212 -5q-26 0 -51 8t-51 8q-16 0 -30.5 -2.5t-30.5 -5.5q-4 -1 -7 2q-5 2 -5 7q0 6 7 7q16 2 29.5 9t28.5 12q32 19 57.5 45t50.5 54.5t54 52.5q-15 2 -40.5 7.5t-45.5 5.5q-21 0 -44.5 -19.5t-46.5 -47.5t-43 -56q-3 -5 -7 -5q-5 0 -5 7q0 10 8 19q13 17 29.5 39.5
t36 44.5t41 36.5t43.5 14.5q16 0 32.5 -6t31 -12t21.5 -6q18 0 31 12q4 4 9 4q7 0 9 -9t-3 -11q-40 -18 -69.5 -47t-56 -60.5t-60.5 -58.5q23 -2 44.5 -10.5t43.5 -8.5q25 0 47.5 16t41.5 38t30 40q4 6 8 6t5.5 -5.5t-0.5 -8.5q-14 -20 -37 -47.5t-50.5 -48t-55.5 -20.5z
" />
    <glyph glyph-name="braceleft" unicode="{" horiz-adv-x="294" 
d="M209 -91q-22 0 -47 1.5t-39 11.5q-20 15 -20 41v7.5t1 7.5q2 14 16 44t24 58q9 24 13 37t5 23t1 24q0 26 -19 36.5t-54 11.5l6 13q29 3 48.5 7t32.5 14q17 13 34 39t27 63q15 43 26.5 71t22.5 41q20 26 63 40.5t88 14.5l-4 -12q-40 0 -68 -12t-46 -44q-10 -32 -22.5 -64
t-26.5 -64q-7 -22 -21 -39t-31 -31q-35 -31 -75 -31q25 -3 44 -22q15 -16 15 -39v-6.5t-1 -6.5q-2 -14 -9 -35.5t-19 -49.5q-22 -55 -27 -85q-1 -4 -1 -8v-8q0 -25 15 -33q11 -4 26 -4.5t28 -1.5z" />
    <glyph glyph-name="bar" unicode="|" horiz-adv-x="175" 
d="M74 -76v561q2 4 7 8.5t12 4.5q8 0 15 -8v-561q-3 -12 -17 -12q-10 0 -17 7z" />
    <glyph glyph-name="braceright" unicode="}" horiz-adv-x="383" 
d="M15 -92l4 12q40 0 68 12.5t46 43.5q11 32 23 64.5t26 63.5q8 22 22 39.5t30 30.5q35 31 75 31q-25 3 -44 22q-15 17 -15 39v6.5t1 6.5q2 14 9 35.5t19 49.5q22 55 27 85q1 5 1 8.5v7.5q0 26 -15 33q-10 5 -25 5t-29 1l6 10q22 0 47.5 -1t38.5 -12q20 -15 20 -41v-7.5
t-1 -7.5q-1 -14 -15 -43.5t-25 -58.5q-8 -23 -12.5 -36.5t-5.5 -23.5t-1 -24q0 -25 19 -36t54 -12l-6 -13q-28 -3 -47.5 -7t-33.5 -14q-17 -13 -33.5 -38.5t-27.5 -63.5q-15 -43 -26.5 -71t-22.5 -41q-19 -26 -62.5 -40.5t-88.5 -14.5z" />
    <glyph glyph-name="asciitilde" unicode="~" horiz-adv-x="303" 
d="M202 401q-19 0 -49 13q-34 14 -50 14q-17 0 -33 -13t-21 -13q-1 1 -1 3q0 15 42 40q16 10 37 10q8 0 20 -2.5t28 -7.5q14 -4 25.5 -7.5t21.5 -3.5q25 0 41 22q6 0 6 -4q0 -15 -39 -42q-13 -9 -28 -9z" />
    <glyph glyph-name="uni00A0" unicode="&#xa0;" horiz-adv-x="147" 
 />
    <glyph glyph-name="exclamdown" unicode="&#xa1;" horiz-adv-x="250" 
d="M185 139q-27 0 -27 24t27 24q25 0 25 -24t-25 -24zM-46 -317q-6 0 -19 10q-14 11 -14 16l8 11q41 59 66 95.5t35 52.5q32 49 51 85.5t33 73.5l13 34q5 15 16 15q7 0 7 -9q0 -17 -87 -185q-40 -78 -66.5 -127.5t-39.5 -69.5q-2 -2 -3 -2z" />
    <glyph glyph-name="cent" unicode="&#xa2;" horiz-adv-x="295" 
d="M35 -37q-11 0 -10 7q8 46 26.5 88t32.5 63q-33 23 -33 75q0 56 64 125q67 70 121 64q2 6 12 21.5t23 33.5t23.5 31.5t13.5 15.5q7 5 12 5q11 0 11 -7q0 -3 -1 -4q-8 -12 -12.5 -17.5t-10.5 -13.5t-16.5 -24.5t-31.5 -50.5q7 -7 7 -17q0 -14 -16 -40q-16 -28 -27 -28
q-4 0 -4 5q0 6 4 15q2 5 3 9t1 7q0 23 -30 23q-20 0 -37 -15.5t-33 -41.5t-20.5 -42.5t-4.5 -38.5q0 -66 59 -66q36 0 73.5 21.5t80.5 74.5q10 13 19 13q4 0 4 -4q0 -8 -14 -28t-40 -43q-34 -31 -69.5 -52t-78.5 -21q-11 0 -22 3q-22 -30 -42 -68t-34 -76q-2 -2 -3 -2z" />
    <glyph glyph-name="sterling" unicode="&#xa3;" horiz-adv-x="673" 
d="M506 -56q-50 0 -108 18.5t-123 52.5q-58 -37 -110 -37q-23 0 -52.5 7.5t-46.5 25.5q-14 15 -24.5 37t-10.5 47q0 15 14 21.5t30 6.5q44 0 200 -87q26 34 49 83.5t47 119.5h-94q-9 0 -9 6q0 8 6.5 15t15.5 7h93q4 19 15.5 50t27 66t33.5 65.5t36 49.5q55 59 100 59
q67 0 67 -65q0 -37 -32.5 -70t-76.5 -56q-2 -1 -5 -2t-6 -1t-3 2q0 8 16 20q4 3 10 6.5t13 10.5q53 56 53 99q0 33 -36 28q-19 -2 -51 -34t-59 -81q-11 -19 -28.5 -55t-40.5 -92h168q6 0 6 -5q0 -9 -7.5 -16t-18.5 -7h-155q-16 -40 -27.5 -69.5t-17.5 -42.5q-18 -36 -37 -61
t-34 -38q18 -11 46 -21.5t56 -17.5q63 -15 108 -15q49 0 86 12q51 18 51 54q0 8 -2 15.5t-9 14.5q-14 14 -14 17q0 5 4 5q3 0 6 -3q17 -13 27.5 -27t10.5 -29q0 -23 -14 -42.5t-43 -30.5q-20 -8 -46 -12t-54 -4zM162 -5q50 0 88 26q-23 17 -85 41q-61 24 -88 24
q-11 0 -11 -6q0 -33 30 -59q32 -26 66 -26z" />
    <glyph glyph-name="currency" unicode="&#xa4;" horiz-adv-x="587" 
d="M40 82l123 134q-14 25 -14 57q0 55 39 99l-81 134l117 -102q18 11 39 18t43 7t40.5 -7t32.5 -19l152 103l-126 -135q7 -13 11 -27.5t4 -30.5q0 -28 -11 -52t-28 -44l83 -135l-119 104q-39 -25 -81 -25t-74 24zM284 185q40 0 68.5 32t28.5 77t-28.5 77t-68.5 32t-68 -32
t-28 -77t28 -77t68 -32z" />
    <glyph glyph-name="yen" unicode="&#xa5;" horiz-adv-x="466" 
d="M110 -68q-47 0 -73.5 16t-26.5 41q0 16 8 26t12 10q2 0 3 -3l5 -15q10 -27 29 -44t47 -17q20 0 52 13t72.5 52.5t84.5 120.5h-60q-5 0 -10.5 1t-5.5 7q0 2 2.5 6.5t14.5 4.5h68q14 26 19 36t11 24h-63q-3 0 -7 1.5t-4 7.5q0 1 1.5 6t10.5 5h69q15 43 23.5 73.5t8.5 73.5
q0 70 -16 93t-49 23q-10 0 -21 -1.5t-23 -3.5q-32 -5 -68 -26t-61 -53t-25 -70q0 -21 9 -42q8 -17 20 -25.5t31 -13.5q2 -1 6 -1.5t5 -4.5q1 -1 1 -4q0 -6 -8 -7q-1 0 -19.5 3t-40.5 15.5t-35 40.5q-7 15 -7 33q0 32 20.5 61.5t53 54.5t69 41.5t67.5 21.5q11 2 20.5 3
t19.5 1q44 0 69 -28.5t25 -105.5q0 -17 -6.5 -54.5t-27.5 -82.5q-3 -6 -3 -9q0 -2 1 -2q4 0 12 10q19 26 42 54t43.5 52t32.5 37q47 50 80.5 79.5t59.5 45t49.5 20.5t50.5 5q11 0 18.5 -5t7.5 -22q0 -4 -1 -9.5t-6 -5.5q-1 0 -3.5 2t-13.5 9q-5 4 -10 6.5t-14 2.5
q-21 0 -52.5 -19.5t-68.5 -51.5t-74 -70t-69 -75.5t-52 -67.5h48q7 0 12 -1t5 -8t-7 -9t-13 -3h-61q-3 -4 -13 -16.5t-19.5 -25t-13.5 -17.5h74q13 -1 13 -6q0 -10 -10 -12t-15 -2h-75q-10 -15 -27 -37t-48 -57q-41 -46 -82.5 -76t-97.5 -30z" />
    <glyph glyph-name="brokenbar" unicode="&#xa6;" horiz-adv-x="166" 
d="M74 253v232q2 4 7 8.5t12 4.5q8 0 15 -8v-232q-3 -12 -17 -12q-10 0 -17 7zM74 -41v232q2 4 7 8.5t12 4.5q8 0 15 -8v-232q-3 -12 -17 -12q-10 0 -17 7z" />
    <glyph glyph-name="section" unicode="&#xa7;" horiz-adv-x="570" 
d="M133 -115q-114 0 -114 72q0 62 71 121q65 53 125 53q26 0 26 -18q0 -51 -79 -100q-22 -14 -29 -14t-7 3q0 6 17 17q46 28 62 64q6 12 6 15q0 4 -7 4q-48 0 -104 -41q-61 -45 -61 -96q0 -47 96 -47q71 0 163 29q50 16 86 37t51 48q9 15 9 29q0 56 -132 99q-18 6 -27.5 8.5
t-28.5 8.5q-10 4 -26 10.5t-27 13.5q-33 21 -33 53q0 60 95 103q39 17 81 25q-15 5 -28 11t-23 13q-33 21 -33 53q0 60 95 103q80 36 143 36q82 0 82 -46q0 -21 -15 -48q-15 -29 -33 -29q-8 0 -8 6l14 20q14 19 14 33q0 35 -55 35q-17 0 -32.5 -2.5t-36.5 -7.5
q-22 -5 -43 -13t-43 -19q-63 -31 -63 -62q0 -27 73 -51q2 -1 21.5 -7t44.5 -14.5t45 -15t24 -8.5q74 -33 74 -86q0 -36 -34 -71q-19 -20 -45.5 -38t-52.5 -29q40 -28 40 -67q0 -36 -34 -71q-53 -54 -142 -89q-85 -33 -162 -33zM408 160q15 0 40 13t48 31.5t31 32.5
q9 15 9 29q0 24 -25 45t-62 34t-74 13q-10 0 -19.5 -1t-17.5 -3q-22 -5 -43.5 -13t-42.5 -19q-63 -31 -63 -62q0 -27 73 -51q126 -40 135 -45q2 -1 4.5 -2.5t6.5 -1.5z" />
    <glyph glyph-name="dieresis" unicode="&#xa8;" horiz-adv-x="156" 
d="M127 280q-26 0 -26 21q0 11 9 22t22 11q11 0 17.5 -7t6.5 -17q0 -11 -8.5 -20.5t-20.5 -9.5zM26 280q-26 0 -26 21q0 11 9 22t22 11q11 0 17.5 -7t6.5 -17q0 -11 -8.5 -20.5t-20.5 -9.5z" />
    <glyph glyph-name="copyright" unicode="&#xa9;" horiz-adv-x="638" 
d="M261 8q-78 0 -142 47q-68 50 -78 125q-3 18 -3 36q0 57 27.5 111.5t79.5 107.5q120 120 251 120q78 0 141 -49q63 -48 74 -125q3 -18 3 -37q0 -56 -26 -109t-77 -106q-117 -121 -250 -121zM273 32q118 0 215 110q85 94 85 193q0 18 -3 37q-4 32 -19 62t-41 53
q-52 45 -122 45q-64 0 -119.5 -29t-101.5 -82q-89 -102 -89 -203q0 -18 3 -38q9 -64 69 -108q55 -40 123 -40zM267 118q-54 0 -76 25.5t-22 62.5q0 41 21 86.5t50 76.5q75 80 139 80q43 0 43 -34q0 -7 -5 -21t-14 -25q-8 -10 -16.5 -14.5t-13.5 -4.5q-11 0 -4 10
q14 20 14 34q0 21 -30 21q-24 0 -54.5 -18.5t-50.5 -49.5q-13 -22 -22.5 -52t-9.5 -59q0 -34 16.5 -59t56.5 -25q25 0 61 13.5t64 35.5q8 6 12 6q5 0 5 -5q0 -6 -7 -14q-7 -9 -22.5 -20.5t-26.5 -18.5q-25 -16 -53 -23.5t-55 -7.5z" />
    <glyph glyph-name="ordfeminine" unicode="&#xaa;" horiz-adv-x="240" 
d="M49 266q-31 0 -31 34q0 51 50 125q49 73 97 90q9 3 17 5t16 2q36 0 52 -25q3 -4 3 -7q0 -2 -7 -3q-6 -1 -10 -7q-24 -39 -24 -117q0 -72 31 -72q22 0 62 48q40 49 44 49q3 0 3 -5t-6 -14q-22 -35 -42.5 -58t-40.5 -33q-18 -9 -36 -9q-61 0 -61 86q0 7 0.5 14.5t1.5 15.5
q-68 -119 -119 -119zM66 296q20 0 57 46q24 32 45 68t37 78q-3 1 -9 1q-41 0 -83 -51q-61 -73 -61 -121q0 -21 14 -21z" />
    <glyph glyph-name="guillemotleft" unicode="&#xab;" horiz-adv-x="420" 
d="M358 21l-8 5q-10 18 -23.5 36.5t-30.5 34.5l-63 61q-3 1 -3 7q2 7 23.5 33.5t60.5 69.5q35 39 61.5 66t41.5 41q13 13 25 13q8 0 7 -7q-1 -9 -42.5 -60t-118.5 -134q42 -74 64.5 -109t20.5 -41q-3 -17 -15 -16zM189 21l-8 5q-10 18 -23.5 36.5t-30.5 34.5l-63 61
q-3 1 -3 7q2 7 23.5 33.5t60.5 69.5q35 39 61.5 66t41.5 41q13 13 25 13q8 0 7 -7q-1 -9 -42.5 -60t-118.5 -134q42 -74 64.5 -109t20.5 -41q-3 -17 -15 -16z" />
    <glyph glyph-name="logicalnot" unicode="&#xac;" horiz-adv-x="687" 
d="M510 58q-9 -17 -17 -17q-3 0 -3 6q0 7 6 22q11 27 29 63.5t38.5 75t37.5 69.5h-117t-131.5 -0.5t-126.5 -1.5t-104 -2.5t-62 -4.5h-8q-13 0 -22.5 3.5t-9.5 6.5q0 6 14 7q98 11 229 18t316 7q6 0 23 -0.5t35 -1.5t28.5 -3t4.5 -6q-10 -6 -30.5 -34t-44.5 -66.5t-47 -76.5
t-38 -64z" />
    <glyph glyph-name="uni00AD" unicode="&#xad;" horiz-adv-x="228" 
d="M39 106q-20 0 -20 7q0 13 35 25q17 6 45 6q17 0 40.5 -1.5t52.5 -6.5q15 -2 20.5 -4.5t5.5 -5.5q0 -6 -26 -8q-4 0 -22 -0.5t-32 -2.5q-16 -1 -39 -5t-55 -4h-5z" />
    <glyph glyph-name="registered" unicode="&#xae;" horiz-adv-x="638" 
d="M261 8q-78 0 -142 47q-68 50 -78 125q-3 18 -3 36q0 57 27.5 111.5t79.5 107.5q120 120 251 120q78 0 141 -49q63 -48 74 -125q3 -18 3 -37q0 -56 -26 -109t-77 -106q-117 -121 -250 -121zM273 32q118 0 215 110q85 94 85 193q0 18 -3 37q-4 32 -19 62t-41 53
q-52 45 -122 45q-64 0 -119.5 -29t-101.5 -82q-89 -102 -89 -203q0 -18 3 -38q9 -64 69 -108q55 -40 123 -40zM178 120q-6 -8 -14 -8q-10 0 -17 7.5t-3 15.5q6 11 19 32.5t27.5 46t26.5 44.5t16 29q0 2 -2 8t-2 7q2 5 8 7t10 2l44 88q8 17 26.5 24.5t37.5 8.5q2 0 2 -2
q0 -7 -9 -9q-8 -1 -21.5 -17.5t-27.5 -38.5t-24 -40.5t-12 -23.5l-1 -4q0 -6 5 -11.5t15 -4.5q38 3 75 12.5t56 22.5q53 35 53 68q0 21 -23.5 35t-65.5 18q-38 0 -70 -2t-74 -13q-4 -1 -6.5 -1h-4.5q-6 0 -6 3t7 8t15 8q19 6 56 11.5t77 5.5q33 0 62.5 -5.5t48.5 -19
t19 -38.5q0 -31 -20.5 -54t-53.5 -39t-72 -25t-75 -11q8 -14 24.5 -37t38 -40.5t43.5 -17.5q21 0 34 13t16 22q2 4 5 7.5t5 3.5q3 0 2 -8q-4 -26 -28.5 -41t-47.5 -15q-32 0 -58 17.5t-44 41.5t-28 42q-5 -11 -15 -35t-23 -51t-26 -47z" />
    <glyph glyph-name="macron" unicode="&#xaf;" horiz-adv-x="150" 
d="M72 295h-36.5t-29.5 3q-6 2 -6 7t4 9q3 3 7.5 3.5t8.5 0.5q29 0 48.5 -0.5t43.5 -2.5q10 -1 24 -4t14 -6q0 -6 -16 -7q-7 -1 -27.5 -2t-34.5 -1z" />
    <glyph glyph-name="degree" unicode="&#xb0;" horiz-adv-x="283" 
d="M151 325q-36 0 -61 25t-25 61t25 61t61 25q35 0 60 -25q26 -26 26 -61q0 -36 -25 -61t-61 -25zM151 347q26 0 45 19t19 45t-19 45t-45 19t-45 -19t-19 -45t19 -45t45 -19z" />
    <glyph glyph-name="plusminus" unicode="&#xb1;" horiz-adv-x="438" 
d="M229 143q-1 0 -4 8q-6 21 -6 92v52q-19 0 -69 -3q-23 -1 -39.5 -1.5t-30.5 -0.5q-6 0 -12 7t-7 14l5 5q17 2 45.5 3t69.5 1h38q-1 10 -1 25t-2 44q-3 44 -3 69q0 6 7 12q8 6 15 6l5 -5q2 -16 3 -44.5t1 -69.5v-37q35 -1 73.5 -2.5t80.5 -4.5q6 -3 6 -6v-4l-9 -6h-58.5
t-92.5 -1q-1 -68 -3 -105t-4 -42q-3 -6 -8 -6zM133 70q-4 0 -12 9q-7 9 -9 15l2 1q20 7 97 7q82 0 106 -12q3 -1 3 -3q0 -5 -6 -5q-31 0 -91 -6t-90 -6z" />
    <glyph glyph-name="uni00B2" unicode="&#xb2;" horiz-adv-x="242" 
d="M15 279q-4 0 -7 6t-3 11q0 3 8 8t21 9q21 8 48 24q20 12 38.5 27.5t39.5 33.5q58 51 58 78q0 11 -3.5 15t-14.5 4q-39 0 -102 -76q-1 -3 -5 -3t-4 7q5 21 33 48q20 18 35 26.5t42 8.5q20 0 31.5 -9.5t11.5 -27.5q0 -22 -13.5 -38.5t-45.5 -42.5q-10 -8 -30.5 -23
t-41.5 -29t-34 -20h31q40 0 55 -11q3 -3 3 -6q0 -2 -2 -3.5t-6 0.5q-17 9 -35 9h-7q-14 0 -32.5 -4t-39.5 -12z" />
    <glyph glyph-name="uni00B3" unicode="&#xb3;" horiz-adv-x="236" 
d="M75 274q-44 0 -55 29q-3 8 -4 15t-1 14q0 11 7 11q5 0 5 -4q0 -54 44 -54q36 0 67 28q29 31 29 68q0 19 -5.5 27.5t-22.5 8.5h-1.5t-3.5 -1l-4 -1q-3 -1 -6.5 -2t-5.5 -1q-5 0 -5 6q0 10 14 10h11q10 1 16 4.5t18 12.5q6 5 13.5 15t7.5 19q0 11 -20 11q-7 -1 -14.5 -3
t-13.5 -7l-14 -13q-5 0 -5 5q0 4 2 6q11 13 31 21q20 9 34 9q11 0 19.5 -6.5t8.5 -17.5q0 -21 -20 -36.5t-42 -23.5q23 -10 29 -24.5t6 -30.5q0 -39 -39 -69q-19 -14 -40 -20t-40 -6z" />
    <glyph glyph-name="acute" unicode="&#xb4;" horiz-adv-x="117" 
d="M6 280q-6 0 -6 4q0 3 3 6q38 38 87 74q6 5 11 6.5t7 1.5t5.5 -2t3.5 -14q0 -5 -3 -9t-5 -6q-3 -2 -17.5 -11.5t-33 -21t-33.5 -20t-19 -8.5z" />
    <glyph glyph-name="uni00B5" unicode="&#xb5;" horiz-adv-x="312" 
d="M-108 -295q-22 0 -22 27q0 52 63 176q8 14 37.5 67.5t80.5 144.5q63 113 63 138q0 13 -11 13q-7 0 -16 -4.5t-16 -10.5q-17 -16 -24 -16q-1 1 -1 2q0 5 7 11t27 18q22 13 31 17t14 4q29 0 29 -19q0 -15 -13 -46.5t-41 -81.5l-23 -40q-7 -13 -7 -32q0 -28 24 -28
q32 0 116 146q6 14 21 39q6 8 14 8q9 0 16 -7q8 -8 8 -18q0 1 -9.5 -18t-25.5 -49q-36 -67 -36 -105q0 -35 33 -35q28 0 65 32q13 11 26 26.5t27 33.5q11 14 18.5 23t8.5 9q4 0 4 -6t-6 -17q-14 -23 -31.5 -43.5t-34.5 -36.5q-49 -44 -90 -44q-56 0 -56 70q0 17 15 63
q-20 -30 -30 -44t-14 -19q-33 -39 -60 -39q-23 0 -31 33q-139 -233 -139 -303q0 -14 12 -14q4 0 9 2t14 8q16 10 24 10l2 -1q-2 -12 -29 -28q-28 -16 -43 -16z" />
    <glyph glyph-name="paragraph" unicode="&#xb6;" horiz-adv-x="575" 
d="M-6 -172q-14 0 -16 9q3 6 10 6q88 0 178 183q14 29 40.5 95t63.5 169q-82 0 -133 32t-51 81q0 86 97 150q42 28 81.5 41t88 17t116.5 4q26 0 39 -4q41 42 85 42q26 0 32 -13q-4 -4 -18 -5q-8 -1 -15 -3.5t-12 -5.5q-27 -16 -59.5 -65.5t-67.5 -129.5q-33 -77 -63 -150.5
t-59 -143.5q-36 -86 -59.5 -130t-47.5 -59q-5 -4 -12 -4q-9 0 -9 7q0 6 9 15q27 26 58 89.5t62 157.5q17 50 33 100.5t34 99.5q22 60 47 106t52 78h-10q-33 0 -62 -37t-56 -100.5t-54.5 -141.5t-56.5 -161q-18 -52 -43 -100.5t-60 -98.5q-89 -130 -162 -130z" />
    <glyph glyph-name="periodcentered" unicode="&#xb7;" horiz-adv-x="144" 
d="M144 114q-25 0 -25 24t25 24t25 -24t-25 -24z" />
    <glyph glyph-name="cedilla" unicode="&#xb8;" horiz-adv-x="123" 
d="M5 -161q-5 0 -5 6q0 5 6 5q36 0 54.5 13.5t18.5 32.5q0 17 -14 34q-9 12 -9 26q0 20 15.5 36.5t43.5 16.5q7 0 8 -4q-16 -3 -25 -13q-11 -11 -11 -23q0 -10 7.5 -20t14.5 -21t7 -25q0 -20 -16.5 -34.5t-42 -22t-52.5 -7.5z" />
    <glyph glyph-name="uni00B9" unicode="&#xb9;" horiz-adv-x="197" 
d="M36 266q-6 0 -6 5v1.5t1 2.5q10 22 19 47q5 11 10 23.5t10 23.5q25 51 39 92l-5 -4l-3 -2l-2 -1q-3 -3 -6 -3q-4 0 -4 4t5 9q24 22 34 30.5t12.5 10.5t3.5 2q2 0 6 -1t7 -3l-1 1q2 -2 4 -2q7 -2 7 -6l-1 -1q-1 1 -12 -17.5t-27 -47t-31.5 -58t-27 -50.5t-12.5 -25
l-14 -28q-1 -3 -6 -3z" />
    <glyph glyph-name="ordmasculine" unicode="&#xba;" horiz-adv-x="191" 
d="M59 266q-35 0 -35 41q0 57 50 134q-1 5 -1.5 11t-0.5 11q0 36 24 70t59 34q30 0 40.5 -21t10.5 -47q0 -22 -5 -42q-5 -21 -15 -47t-25 -55q15 -9 34 -9q33 0 62 26t27 26q7 0 7 -7q0 -2 -2 -4q-13 -27 -40 -43q-12 -7 -26 -11t-29 -4q-23 0 -40 10q-46 -73 -95 -73z
M148 364q27 65 27 106q0 27 -9 50.5t-26 23.5q-23 0 -36 -28q-10 -22 -9 -48q16 19 32 19q15 0 22 -10q3 -4 3 -7q0 -6 -12 -6q-18 0 -38 -38q14 -39 46 -62zM75 290q13 0 37 24q10 10 17 19t11 17q-34 23 -50 51q-30 -63 -30 -91q0 -20 15 -20z" />
    <glyph glyph-name="guillemotright" unicode="&#xbb;" horiz-adv-x="487" 
d="M238 30q-8 0 -7 7q2 9 43.5 60.5t117.5 133.5q-42 74 -64 109t-21 41q3 17 15 16l8 -5q10 -18 24 -36.5t30 -34.5l63 -61q3 -1 3 -7q-1 -7 -23 -33t-61 -70q-35 -39 -61.5 -66t-41.5 -41q-13 -13 -25 -13zM69 30q-8 0 -7 7q2 9 43.5 60.5t117.5 133.5q-42 74 -64 109
t-21 41q3 17 15 16l8 -5q10 -18 24 -36.5t30 -34.5l63 -61q3 -1 3 -7q-1 -7 -23 -33t-61 -70q-35 -39 -61.5 -66t-41.5 -41q-13 -13 -25 -13z" />
    <glyph glyph-name="onequarter" unicode="&#xbc;" horiz-adv-x="488" 
d="M129 214q-6 0 -6 5v1.5t1 2.5q10 22 19 47q5 11 10 23.5t10 23.5q25 51 39 92l-5 -4l-3 -2l-2 -1q-3 -3 -6 -3q-4 0 -4 4t5 9q24 22 34 30.5t12.5 10.5t3.5 2q2 0 6 -1t7 -3l-1 1q2 -2 4 -2q7 -2 7 -6l-1 -1q-1 1 -12 -17.5t-27 -47t-31.5 -58t-27 -50.5t-12.5 -25
l-14 -28q-1 -3 -6 -3zM104 12q-3 -4 -8 -4q-4 0 -7.5 3t-0.5 8q45 69 122 157.5t184 202.5q1 1 11 1q5 0 9.5 -1.5t4.5 -6.5q0 -1 -0.5 -1.5t-0.5 -1.5q-36 -34 -82 -82.5t-91.5 -100.5t-83 -98t-57.5 -76zM311 -28q-6 0 -6 8t18 47q20 39 21 46q-12 -1 -30 -3t-25 -3
q-17 -4 -30 -5.5t-17 -1.5q-3 0 -3.5 4.5t-0.5 7.5q0 4 13 13l18 12q15 10 29.5 20.5t27.5 20.5l21 15q16 11 32 25.5t28 27t14 16.5q5 0 11 -6t6 -14v-11q-5 -6 -34 -52q-13 -20 -20.5 -33t-8.5 -15h3t6 -0.5t8 -1.5q11 -1 13.5 -5t2.5 -6q0 -4 -5.5 -6t-7.5 -2
q-7 2 -16.5 2.5t-17.5 0.5q-10 -18 -22 -42t-28 -59zM391 168l4 4l-2 1q0 -1 -2 -5zM283 88q11 -1 31.5 3.5t39.5 4.5l2 3.5t5 10.5q3 5 6.5 12t7.5 16q2 4 6 10.5t5 10.5l5 9l-21 -15q-4 -3 -8.5 -6t-9.5 -7l-17 -13q-9 -6 -24 -17.5t-28 -21.5z" />
    <glyph glyph-name="onehalf" unicode="&#xbd;" horiz-adv-x="508" 
d="M129 214q-6 0 -6 5v1.5t1 2.5q10 22 19 47q5 11 10 23.5t10 23.5q25 51 39 92l-5 -4l-3 -2l-2 -1q-3 -3 -6 -3q-4 0 -4 4t5 9q24 22 34 30.5t12.5 10.5t3.5 2q2 0 6 -1t7 -3l-1 1q2 -2 4 -2q7 -2 7 -6l-1 -1q-1 1 -12 -17.5t-27 -47t-31.5 -58t-27 -50.5t-12.5 -25
l-14 -28q-1 -3 -6 -3zM231 -22q-4 0 -7 6t-3 11q0 4 8 9t21 9q10 3 22.5 9.5t25.5 13.5q20 13 38.5 28t39.5 33q58 51 58 78q0 11 -3.5 15t-14.5 4q-41 0 -102 -76q-1 -3 -5 -3t-4 7q5 21 33 48q20 18 35 26.5t42 8.5q20 0 31.5 -9.5t11.5 -27.5q0 -21 -18 -44
q-5 -5 -14 -13.5t-22 -19.5l-5 -4q-7 -4 -22 -13.5t-37 -23.5v1q-21 -15 -33 -23.5t-14 -11.5h31q40 0 55 -12q3 -3 3 -6t-3 -3h-2q-1 1 -3 1q-10 5 -18 6.5t-17 2.5h-7q-14 0 -32.5 -4.5t-39.5 -12.5zM104 12q-3 -4 -8 -4q-4 0 -7.5 3t-0.5 8q45 69 122 157.5t184 202.5
q1 1 11 1q5 0 9.5 -1.5t4.5 -6.5q0 -1 -0.5 -1.5t-0.5 -1.5q-36 -34 -82 -82.5t-91.5 -100.5t-83 -98t-57.5 -76z" />
    <glyph glyph-name="threequarters" unicode="&#xbe;" horiz-adv-x="493" 
d="M109 12q-3 -4 -8 -4q-4 0 -7.5 3t-0.5 8q45 69 122 157.5t184 202.5q1 1 11 1q5 0 9.5 -1.5t4.5 -6.5q0 -1 -0.5 -1.5t-0.5 -1.5q-36 -34 -82 -82.5t-91.5 -100.5t-83 -98t-57.5 -76zM316 -28q-6 0 -6 8t18 47q20 39 21 46q-12 -1 -30 -3t-25 -3q-17 -4 -30 -5.5
t-17 -1.5q-3 0 -3.5 4.5t-0.5 7.5q0 4 13 13l18 12q15 10 29.5 20.5t27.5 20.5l21 15q16 11 32 25.5t28 27t14 16.5q5 0 11 -6t6 -14v-11q-5 -6 -34 -52q-13 -20 -20.5 -33t-8.5 -15h3t6 -0.5t8 -1.5q11 -1 13.5 -5t2.5 -6q0 -4 -5.5 -6t-7.5 -2q-7 2 -16.5 2.5t-17.5 0.5
q-10 -18 -22 -42t-28 -59zM396 168l4 4l-2 1q0 -1 -2 -5zM288 88q11 -1 31.5 3.5t39.5 4.5l2 3.5t5 10.5q3 5 6.5 12t7.5 16q2 4 6 10.5t5 10.5l5 9l-21 -15q-4 -3 -8.5 -6t-9.5 -7l-17 -13q-9 -6 -24 -17.5t-28 -21.5zM110 234q-44 0 -55 29q-3 8 -4 15t-1 14q0 11 7 11
q5 0 5 -4q0 -54 44 -54q36 0 67 28q29 31 29 68q0 19 -5.5 27.5t-22.5 8.5h-1.5t-3.5 -1l-4 -1q-3 -1 -6.5 -2t-5.5 -1q-5 0 -5 6q0 10 14 10h11q10 1 16 4.5t18 12.5q6 5 13.5 15t7.5 19q0 11 -20 11q-7 -1 -14.5 -3t-13.5 -7l-14 -13q-5 0 -5 5q0 4 2 6q11 13 31 21
q20 9 34 9q11 0 19.5 -6.5t8.5 -17.5q0 -21 -20 -36.5t-42 -23.5q23 -10 29 -24.5t6 -30.5q0 -39 -39 -69q-19 -14 -40 -20t-40 -6z" />
    <glyph glyph-name="questiondown" unicode="&#xbf;" horiz-adv-x="360" 
d="M277 139q-26 0 -26 24t26 24q25 0 25 -24t-25 -24zM65 -312q-13 0 -25.5 4.5t-21.5 11.5t-16 18t-7 25q0 25 16 52.5t49 55.5q31 26 61.5 49t58.5 45q65 52 65 92q0 12 -7 13q2 17 13 17q17 0 17 -24q0 -21 -15.5 -47.5t-47.5 -58.5q-25 -24 -56 -52t-60 -55
q-63 -60 -63 -95q0 -30 32 -30q99 0 199 87l30 31q4 4 10 4t6 -4q0 -6 -7 -14q-4 -5 -12.5 -14.5t-25.5 -23.5q-103 -87 -193 -87z" />
    <glyph glyph-name="Agrave" unicode="&#xc0;" horiz-adv-x="750" 
d="M830 625q-4 0 -23.5 8.5t-43 20.5t-42.5 21.5t-22 11.5q-2 2 -5.5 7t-3.5 11q0 11 3 14.5t5 3.5t7 -1t11 -5q27 -17 61 -40.5t55 -41.5q3 -3 3 -6q0 -4 -5 -4zM140 -56q-54 0 -87 24q-39 27 -39 78q0 58 49 107q43 43 104 60q50 14 130 21t189 6q28 33 46 54.5t31 37.5
t25.5 31.5t28.5 37.5l56 75q5 5 9 5q13 0 13 -12q0 -1 -2 -7l-62 -83q-6 -8 -20 -26t-30 -40t-31.5 -42t-24.5 -32q25 -1 49.5 -5t48.5 -9q28 126 72 238q7 17 16 37.5t24 50.5q3 7 27 21q23 14 31 14q9 0 9 -9q0 -3 -5 -11q-86 -143 -141 -350q45 -13 45 -26q0 -10 -11 -10
q-1 0 -7 2.5t-11 3.5q-8 4 -14 5.5t-8 2.5q-14 -60 -21.5 -107.5t-7.5 -82.5q0 -34 10 -34q9 0 24 12q16 13 19 13q9 0 9 -11t-19 -22q-19 -12 -33 -12q-38 0 -38 63q0 32 6 79t19 108q-25 4 -54.5 5.5t-63.5 2.5q-15 -19 -34 -41t-45 -49q-33 -36 -55 -58t-37.5 -35.5
t-30.5 -24.5q-75 -56 -158 -56zM128 -17q75 0 149 50q23 16 53.5 43.5t65.5 64.5q13 14 28 29.5t34 37.5h-28q-86 0 -151 -5.5t-109 -17.5q-25 -7 -47.5 -20t-39.5 -29q-42 -40 -42 -88q0 -31 28 -50q24 -15 59 -15z" />
    <glyph glyph-name="Aacute" unicode="&#xc1;" horiz-adv-x="750" 
d="M140 -56q-54 0 -87 24q-39 27 -39 78q0 58 49 107q43 43 104 60q50 14 130 21t189 6q28 33 46 54.5t31 37.5t25.5 31.5t28.5 37.5l56 75q5 5 9 5q13 0 13 -12q0 -1 -2 -7l-62 -83q-6 -8 -20 -26t-30 -40t-31.5 -42t-24.5 -32q25 -1 49.5 -5t48.5 -9q28 126 72 238
q7 17 16 37.5t24 50.5q3 7 27 21q23 14 31 14q9 0 9 -9q0 -3 -5 -11q-86 -143 -141 -350q45 -13 45 -26q0 -10 -11 -10q-1 0 -7 2.5t-11 3.5q-8 4 -14 5.5t-8 2.5q-14 -60 -21.5 -107.5t-7.5 -82.5q0 -34 10 -34q9 0 24 12q16 13 19 13q9 0 9 -11t-19 -22q-19 -12 -33 -12
q-38 0 -38 63q0 32 6 79t19 108q-25 4 -54.5 5.5t-63.5 2.5q-15 -19 -34 -41t-45 -49q-33 -36 -55 -58t-37.5 -35.5t-30.5 -24.5q-75 -56 -158 -56zM128 -17q75 0 149 50q23 16 53.5 43.5t65.5 64.5q13 14 28 29.5t34 37.5h-28q-86 0 -151 -5.5t-109 -17.5q-25 -7 -47.5 -20
t-39.5 -29q-42 -40 -42 -88q0 -31 28 -50q24 -15 59 -15zM759 625q-5 0 -5 4q0 3 3 6q21 18 55 41.5t61 40.5q6 4 11 5t7 1t5 -3.5t3 -14.5q0 -6 -3.5 -11t-5.5 -7q-3 -2 -22 -11.5t-42.5 -21.5t-43 -20.5t-23.5 -8.5z" />
    <glyph glyph-name="Acircumflex" unicode="&#xc2;" horiz-adv-x="750" 
d="M140 -56q-54 0 -87 24q-39 27 -39 78q0 58 49 107q43 43 104 60q50 14 130 21t189 6q28 33 46 54.5t31 37.5t25.5 31.5t28.5 37.5l56 75q5 5 9 5q13 0 13 -12q0 -1 -2 -7l-62 -83q-6 -8 -20 -26t-30 -40t-31.5 -42t-24.5 -32q25 -1 49.5 -5t48.5 -9q28 126 72 238
q7 17 16 37.5t24 50.5q3 7 27 21q23 14 31 14q9 0 9 -9q0 -3 -5 -11q-86 -143 -141 -350q45 -13 45 -26q0 -10 -11 -10q-1 0 -7 2.5t-11 3.5q-8 4 -14 5.5t-8 2.5q-14 -60 -21.5 -107.5t-7.5 -82.5q0 -34 10 -34q9 0 24 12q16 13 19 13q9 0 9 -11t-19 -22q-19 -12 -33 -12
q-38 0 -38 63q0 32 6 79t19 108q-25 4 -54.5 5.5t-63.5 2.5q-15 -19 -34 -41t-45 -49q-33 -36 -55 -58t-37.5 -35.5t-30.5 -24.5q-75 -56 -158 -56zM128 -17q75 0 149 50q23 16 53.5 43.5t65.5 64.5q13 14 28 29.5t34 37.5h-28q-86 0 -151 -5.5t-109 -17.5q-25 -7 -47.5 -20
t-39.5 -29q-42 -40 -42 -88q0 -31 28 -50q24 -15 59 -15zM701 628q-6 0 -6 5t7 10q29 20 54 37t55 36q17 11 23 11q8 0 13 -10q11 -19 19 -35.5t15 -32.5q4 -9 4 -15q0 -8 -8 -8q-4 0 -8.5 4t-9.5 9q-11 13 -23.5 27t-18.5 20q-9 -5 -27 -14.5t-37 -19.5t-34 -17t-18 -7z
" />
    <glyph glyph-name="Atilde" unicode="&#xc3;" horiz-adv-x="750" 
d="M140 -56q-54 0 -87 24q-39 27 -39 78q0 58 49 107q43 43 104 60q50 14 130 21t189 6q28 33 46 54.5t31 37.5t25.5 31.5t28.5 37.5l56 75q5 5 9 5q13 0 13 -12q0 -1 -2 -7l-62 -83q-6 -8 -20 -26t-30 -40t-31.5 -42t-24.5 -32q25 -1 49.5 -5t48.5 -9q28 126 72 238
q7 17 16 37.5t24 50.5q3 7 27 21q23 14 31 14q9 0 9 -9q0 -3 -5 -11q-86 -143 -141 -350q45 -13 45 -26q0 -10 -11 -10q-1 0 -7 2.5t-11 3.5q-8 4 -14 5.5t-8 2.5q-14 -60 -21.5 -107.5t-7.5 -82.5q0 -34 10 -34q9 0 24 12q16 13 19 13q9 0 9 -11t-19 -22q-19 -12 -33 -12
q-38 0 -38 63q0 32 6 79t19 108q-25 4 -54.5 5.5t-63.5 2.5q-15 -19 -34 -41t-45 -49q-33 -36 -55 -58t-37.5 -35.5t-30.5 -24.5q-75 -56 -158 -56zM128 -17q75 0 149 50q23 16 53.5 43.5t65.5 64.5q13 14 28 29.5t34 37.5h-28q-86 0 -151 -5.5t-109 -17.5q-25 -7 -47.5 -20
t-39.5 -29q-42 -40 -42 -88q0 -31 28 -50q24 -15 59 -15zM713 629q-6 0 -6 5q0 20 14.5 34.5t36.5 14.5q24 0 42.5 -10t37.5 -10q13 0 20 6t14 19q7 0 7 -5q0 -22 -15 -36.5t-34 -14.5q-27 0 -45 11t-38 11q-23 0 -34 -25z" />
    <glyph glyph-name="Adieresis" unicode="&#xc4;" horiz-adv-x="750" 
d="M140 -56q-54 0 -87 24q-39 27 -39 78q0 58 49 107q43 43 104 60q50 14 130 21t189 6q28 33 46 54.5t31 37.5t25.5 31.5t28.5 37.5l56 75q5 5 9 5q13 0 13 -12q0 -1 -2 -7l-62 -83q-6 -8 -20 -26t-30 -40t-31.5 -42t-24.5 -32q25 -1 49.5 -5t48.5 -9q28 126 72 238
q7 17 16 37.5t24 50.5q3 7 27 21q23 14 31 14q9 0 9 -9q0 -3 -5 -11q-86 -143 -141 -350q45 -13 45 -26q0 -10 -11 -10q-1 0 -7 2.5t-11 3.5q-8 4 -14 5.5t-8 2.5q-14 -60 -21.5 -107.5t-7.5 -82.5q0 -34 10 -34q9 0 24 12q16 13 19 13q9 0 9 -11t-19 -22q-19 -12 -33 -12
q-38 0 -38 63q0 32 6 79t19 108q-25 4 -54.5 5.5t-63.5 2.5q-15 -19 -34 -41t-45 -49q-33 -36 -55 -58t-37.5 -35.5t-30.5 -24.5q-75 -56 -158 -56zM128 -17q75 0 149 50q23 16 53.5 43.5t65.5 64.5q13 14 28 29.5t34 37.5h-28q-86 0 -151 -5.5t-109 -17.5q-25 -7 -47.5 -20
t-39.5 -29q-42 -40 -42 -88q0 -31 28 -50q24 -15 59 -15zM842 626q-26 0 -26 21q0 11 9 22t22 11q11 0 17.5 -7t6.5 -17q0 -11 -8.5 -20.5t-20.5 -9.5zM741 626q-26 0 -26 21q0 11 9 22t22 11q11 0 17.5 -7t6.5 -17q0 -11 -8.5 -20.5t-20.5 -9.5z" />
    <glyph glyph-name="Aring" unicode="&#xc5;" horiz-adv-x="750" 
d="M140 -56q-54 0 -87 24q-39 27 -39 78q0 58 49 107q43 43 104 60q50 14 130 21t189 6q28 33 46 54.5t31 37.5t25.5 31.5t28.5 37.5l56 75q5 5 9 5q13 0 13 -12q0 -1 -2 -7l-62 -83q-6 -8 -20 -26t-30 -40t-31.5 -42t-24.5 -32q25 -1 49.5 -5t48.5 -9q28 126 72 238
q7 17 16 37.5t24 50.5q3 7 27 21q23 14 31 14q9 0 9 -9q0 -3 -5 -11q-86 -143 -141 -350q45 -13 45 -26q0 -10 -11 -10q-1 0 -7 2.5t-11 3.5q-8 4 -14 5.5t-8 2.5q-14 -60 -21.5 -107.5t-7.5 -82.5q0 -34 10 -34q9 0 24 12q16 13 19 13q9 0 9 -11t-19 -22q-19 -12 -33 -12
q-38 0 -38 63q0 32 6 79t19 108q-25 4 -54.5 5.5t-63.5 2.5q-15 -19 -34 -41t-45 -49q-33 -36 -55 -58t-37.5 -35.5t-30.5 -24.5q-75 -56 -158 -56zM128 -17q75 0 149 50q23 16 53.5 43.5t65.5 64.5q13 14 28 29.5t34 37.5h-28q-86 0 -151 -5.5t-109 -17.5q-25 -7 -47.5 -20
t-39.5 -29q-42 -40 -42 -88q0 -31 28 -50q24 -15 59 -15zM800 622q-48 0 -48 37q0 25 23.5 48.5t60.5 23.5q17 0 33.5 -7.5t16.5 -29.5q0 -25 -14 -41t-34 -23.5t-38 -7.5zM805 636q14 0 30.5 16t16.5 42q0 22 -19 22q-13 0 -30 -16.5t-17 -42.5q0 -21 19 -21z" />
    <glyph glyph-name="AE" unicode="&#xc6;" horiz-adv-x="978" 
d="M137 -56q-25 0 -46.5 5t-38.5 17q-19 14 -29.5 32.5t-10.5 45.5q0 59 49 106.5t154 81.5q67 22 147 35t166 20q56 65 112.5 113t106.5 72q52 26 117 35.5t150 9.5q81 0 117 -9q17 -5 17 -14q0 -12 -24 -12q-18 9 -68 9q-127 0 -168 -24q-11 -7 -49.5 -47t-104.5 -114
q3 -4 8 -4q14 0 34 1t47 3t47.5 3t34.5 1q68 0 68 -7q0 -6 -29 -12q-11 -2 -48 -5t-80 -6q-40 -2 -67 -6.5t-47 -10.5q-10 -4 -30.5 -28t-40.5 -66q-13 -28 -23 -55t-10 -48q0 -25 17.5 -40t61.5 -15q45 0 103.5 15.5t129.5 47.5q10 5 33.5 15.5t44.5 22.5q1 1 3 1
q5 0 5 -10q-31 -43 -152 -88q-56 -20 -104.5 -29.5t-81.5 -9.5q-50 0 -78 20t-28 60q0 43 23.5 93t73.5 114q-9 0 -31 -1.5t-46.5 -3.5t-42.5 -5q-39 -48 -63.5 -79.5t-46.5 -54.5q-40 -43 -70.5 -73t-53.5 -46q-77 -56 -158 -56zM558 286q19 2 46 4t68 4q24 30 45 53.5
t46.5 50t60.5 65.5q3 5 3 6q0 3 -4 3q-5 0 -14 -3q-33 -10 -65 -26.5t-70 -45.5q-73 -55 -116 -111zM139 -10q73 0 143 47q28 18 58.5 44.5t63.5 62.5q23 26 45 52.5t47 56.5q-78 -10 -140 -19t-118 -27q-94 -31 -145 -68t-51 -83q0 -22 15.5 -37t38.5 -22t43 -7z" />
    <glyph glyph-name="Ccedilla" unicode="&#xc7;" horiz-adv-x="568" 
d="M220 -42q-73 0 -118 30q-53 35 -53 104q0 55 25 109t65.5 103t88.5 89.5t93 68.5q136 83 266 83q113 0 113 -78q0 -68 -75 -125q-72 -55 -141 -55q-73 0 -73 56q0 40 18 40q7 0 7 -9v-3.5t-1 -5.5t-1 -5v-4q0 -39 51 -39q53 0 120 51t67 101q0 49 -83 49q-8 0 -16.5 -0.5
t-16.5 -1.5q-87 -9 -196 -72q-44 -25 -89.5 -60.5t-83.5 -78.5t-61.5 -92t-23.5 -102q0 -28 9.5 -53t28.5 -40q32 -26 89 -26q181 0 352 144q4 4 8 4h6.5t0.5 -7q0 -5 -4 -9q-39 -36 -82 -63.5t-91 -50.5q-108 -52 -199 -52zM145 -191q-5 0 -5 6q0 5 6 5q36 0 54.5 13.5
t18.5 32.5q0 17 -14 34q-9 12 -9 26q0 20 15.5 36.5t43.5 16.5q7 0 8 -4q-16 -3 -25 -13q-11 -11 -11 -23q0 -10 7.5 -20t14.5 -21t7 -25q0 -20 -16.5 -34.5t-42 -22t-52.5 -7.5z" />
    <glyph glyph-name="Egrave" unicode="&#xc8;" horiz-adv-x="583" 
d="M593 574q-4 0 -23.5 8.5t-43 20.5t-42.5 21.5t-22 11.5q-2 2 -5.5 7t-3.5 11q0 11 3 14.5t5 3.5t7 -1t11 -5q27 -17 61 -40.5t55 -41.5q3 -3 3 -6q0 -4 -5 -4zM203 -42q-73 0 -118 30q-52 34 -52 104t49 152l-46 -9q-6 0 -6 7q0 25 21 32q3 2 15 4t42 6q42 58 93.5 103
t109.5 79q133 79 260 79q112 0 112 -78q0 -41 -32 -83q-16 -21 -31.5 -35t-35.5 -26q-7 -4 -13 -4q-17 0 -17 16q0 9 8 14q93 72 93 120q0 49 -83 49q-102 0 -229 -74q-56 -33 -100 -72t-81 -83q43 5 82 7.5t76 2.5q151 0 151 -28q0 -13 -14 -13q-7 0 -19 1.5t-30 3.5
q-37 6 -57 6q-92 0 -217 -18q-25 -37 -40 -72t-15 -67q0 -30 10 -55.5t34 -42.5q39 -28 102 -28q155 0 338 153q5 3 7 3q7 0 8.5 -1t1.5 -8q0 -5 -4 -9q-37 -34 -81 -62.5t-93 -51.5q-55 -25 -104.5 -38.5t-94.5 -13.5z" />
    <glyph glyph-name="Eacute" unicode="&#xc9;" horiz-adv-x="583" 
d="M203 -42q-73 0 -118 30q-52 34 -52 104t49 152l-46 -9q-6 0 -6 7q0 25 21 32q3 2 15 4t42 6q42 58 93.5 103t109.5 79q133 79 260 79q112 0 112 -78q0 -41 -32 -83q-16 -21 -31.5 -35t-35.5 -26q-7 -4 -13 -4q-17 0 -17 16q0 9 8 14q93 72 93 120q0 49 -83 49
q-102 0 -229 -74q-56 -33 -100 -72t-81 -83q43 5 82 7.5t76 2.5q151 0 151 -28q0 -13 -14 -13q-7 0 -19 1.5t-30 3.5q-37 6 -57 6q-92 0 -217 -18q-25 -37 -40 -72t-15 -67q0 -30 10 -55.5t34 -42.5q39 -28 102 -28q155 0 338 153q5 3 7 3q7 0 8.5 -1t1.5 -8q0 -5 -4 -9
q-37 -34 -81 -62.5t-93 -51.5q-55 -25 -104.5 -38.5t-94.5 -13.5zM522 574q-5 0 -5 4q0 3 3 6q21 18 55 41.5t61 40.5q6 4 11 5t7 1t5 -3.5t3 -14.5q0 -6 -3.5 -11t-5.5 -7q-3 -2 -22 -11.5t-42.5 -21.5t-43 -20.5t-23.5 -8.5z" />
    <glyph glyph-name="Ecircumflex" unicode="&#xca;" horiz-adv-x="583" 
d="M203 -42q-73 0 -118 30q-52 34 -52 104t49 152l-46 -9q-6 0 -6 7q0 25 21 32q3 2 15 4t42 6q42 58 93.5 103t109.5 79q133 79 260 79q112 0 112 -78q0 -41 -32 -83q-16 -21 -31.5 -35t-35.5 -26q-7 -4 -13 -4q-17 0 -17 16q0 9 8 14q93 72 93 120q0 49 -83 49
q-102 0 -229 -74q-56 -33 -100 -72t-81 -83q43 5 82 7.5t76 2.5q151 0 151 -28q0 -13 -14 -13q-7 0 -19 1.5t-30 3.5q-37 6 -57 6q-92 0 -217 -18q-25 -37 -40 -72t-15 -67q0 -30 10 -55.5t34 -42.5q39 -28 102 -28q155 0 338 153q5 3 7 3q7 0 8.5 -1t1.5 -8q0 -5 -4 -9
q-37 -34 -81 -62.5t-93 -51.5q-55 -25 -104.5 -38.5t-94.5 -13.5zM464 577q-6 0 -6 5t7 10q29 20 54 37t55 36q17 11 23 11q8 0 13 -10q11 -19 19 -35.5t15 -32.5q4 -9 4 -15q0 -8 -8 -8q-4 0 -8.5 4t-9.5 9q-11 13 -23.5 27t-18.5 20q-9 -5 -27 -14.5t-37 -19.5t-34 -17
t-18 -7z" />
    <glyph glyph-name="Edieresis" unicode="&#xcb;" horiz-adv-x="583" 
d="M203 -42q-73 0 -118 30q-52 34 -52 104t49 152l-46 -9q-6 0 -6 7q0 25 21 32q3 2 15 4t42 6q42 58 93.5 103t109.5 79q133 79 260 79q112 0 112 -78q0 -41 -32 -83q-16 -21 -31.5 -35t-35.5 -26q-7 -4 -13 -4q-17 0 -17 16q0 9 8 14q93 72 93 120q0 49 -83 49
q-102 0 -229 -74q-56 -33 -100 -72t-81 -83q43 5 82 7.5t76 2.5q151 0 151 -28q0 -13 -14 -13q-7 0 -19 1.5t-30 3.5q-37 6 -57 6q-92 0 -217 -18q-25 -37 -40 -72t-15 -67q0 -30 10 -55.5t34 -42.5q39 -28 102 -28q155 0 338 153q5 3 7 3q7 0 8.5 -1t1.5 -8q0 -5 -4 -9
q-37 -34 -81 -62.5t-93 -51.5q-55 -25 -104.5 -38.5t-94.5 -13.5zM605 575q-26 0 -26 21q0 11 9 22t22 11q11 0 17.5 -7t6.5 -17q0 -11 -8.5 -20.5t-20.5 -9.5zM504 575q-26 0 -26 21q0 11 9 22t22 11q11 0 17.5 -7t6.5 -17q0 -11 -8.5 -20.5t-20.5 -9.5z" />
    <glyph glyph-name="Igrave" unicode="&#xcc;" horiz-adv-x="439" 
d="M475 574q-4 0 -23.5 8.5t-43 20.5t-42.5 21.5t-22 11.5q-2 2 -5.5 7t-3.5 11q0 11 3 14.5t5 3.5t7 -1t11 -5q27 -17 61 -40.5t55 -41.5q3 -3 3 -6q0 -4 -5 -4zM213 -35q-39 0 -44 47q-13 -1 -42 -7t-69 -14q-38 -8 -63.5 -12.5t-37.5 -4.5t-12 13q0 8 10 12q4 2 19 6
t42 11q41 11 79 18.5t75 12.5q5 42 25.5 99t58.5 136q35 71 66 125t62 98h-17q-29 0 -54 -1t-46 -3q-125 -15 -125 -48q0 -14 28 -30t28 -22q0 -8 -10 -8q-4 0 -7 1q-80 38 -80 67q0 22 43 43q57 27 186 27q17 0 35 -0.5t37 -1.5q12 17 49 17q15 0 15 -6q0 -2 -10 -15
q56 -4 115 -12q6 -1 15 -2t20 -3q11 -3 11 -11t-11 -8l-3 1q-27 3 -68 6.5t-96 7.5q-44 -56 -81 -111.5t-63 -104.5q-79 -150 -95 -237q51 6 92 6q91 0 110 -21q6 -7 6 -20q0 -8 -2.5 -14t-7.5 -3q-12 7 -35.5 11t-48 6t-39.5 2q-18 0 -37.5 -1t-40.5 -3q2 -29 20 -29
q5 0 12 1.5t15 6.5t12 9.5t5 4.5q8 0 8 -9q0 -13 -20 -22q-22 -11 -34 -11z" />
    <glyph glyph-name="Iacute" unicode="&#xcd;" horiz-adv-x="439" 
d="M213 -35q-39 0 -44 47q-13 -1 -42 -7t-69 -14q-38 -8 -63.5 -12.5t-37.5 -4.5t-12 13q0 8 10 12q4 2 19 6t42 11q41 11 79 18.5t75 12.5q5 42 25.5 99t58.5 136q35 71 66 125t62 98h-17q-29 0 -54 -1t-46 -3q-125 -15 -125 -48q0 -14 28 -30t28 -22q0 -8 -10 -8
q-4 0 -7 1q-80 38 -80 67q0 22 43 43q57 27 186 27q17 0 35 -0.5t37 -1.5q12 17 49 17q15 0 15 -6q0 -2 -10 -15q56 -4 115 -12q6 -1 15 -2t20 -3q11 -3 11 -11t-11 -8l-3 1q-27 3 -68 6.5t-96 7.5q-44 -56 -81 -111.5t-63 -104.5q-79 -150 -95 -237q51 6 92 6q91 0 110 -21
q6 -7 6 -20q0 -8 -2.5 -14t-7.5 -3q-12 7 -35.5 11t-48 6t-39.5 2q-18 0 -37.5 -1t-40.5 -3q2 -29 20 -29q5 0 12 1.5t15 6.5t12 9.5t5 4.5q8 0 8 -9q0 -13 -20 -22q-22 -11 -34 -11zM404 574q-5 0 -5 4q0 3 3 6q21 18 55 41.5t61 40.5q6 4 11 5t7 1t5 -3.5t3 -14.5
q0 -6 -3.5 -11t-5.5 -7q-3 -2 -22 -11.5t-42.5 -21.5t-43 -20.5t-23.5 -8.5z" />
    <glyph glyph-name="Icircumflex" unicode="&#xce;" horiz-adv-x="439" 
d="M213 -35q-39 0 -44 47q-13 -1 -42 -7t-69 -14q-38 -8 -63.5 -12.5t-37.5 -4.5t-12 13q0 8 10 12q4 2 19 6t42 11q41 11 79 18.5t75 12.5q5 42 25.5 99t58.5 136q35 71 66 125t62 98h-17q-29 0 -54 -1t-46 -3q-125 -15 -125 -48q0 -14 28 -30t28 -22q0 -8 -10 -8
q-4 0 -7 1q-80 38 -80 67q0 22 43 43q57 27 186 27q17 0 35 -0.5t37 -1.5q12 17 49 17q15 0 15 -6q0 -2 -10 -15q56 -4 115 -12q6 -1 15 -2t20 -3q11 -3 11 -11t-11 -8l-3 1q-27 3 -68 6.5t-96 7.5q-44 -56 -81 -111.5t-63 -104.5q-79 -150 -95 -237q51 6 92 6q91 0 110 -21
q6 -7 6 -20q0 -8 -2.5 -14t-7.5 -3q-12 7 -35.5 11t-48 6t-39.5 2q-18 0 -37.5 -1t-40.5 -3q2 -29 20 -29q5 0 12 1.5t15 6.5t12 9.5t5 4.5q8 0 8 -9q0 -13 -20 -22q-22 -11 -34 -11zM346 577q-6 0 -6 5t7 10q29 20 54 37t55 36q17 11 23 11q8 0 13 -10q11 -19 19 -35.5
t15 -32.5q4 -9 4 -15q0 -8 -8 -8q-4 0 -8.5 4t-9.5 9q-11 13 -23.5 27t-18.5 20q-9 -5 -27 -14.5t-37 -19.5t-34 -17t-18 -7z" />
    <glyph glyph-name="Idieresis" unicode="&#xcf;" horiz-adv-x="439" 
d="M213 -35q-39 0 -44 47q-13 -1 -42 -7t-69 -14q-38 -8 -63.5 -12.5t-37.5 -4.5t-12 13q0 8 10 12q4 2 19 6t42 11q41 11 79 18.5t75 12.5q5 42 25.5 99t58.5 136q35 71 66 125t62 98h-17q-29 0 -54 -1t-46 -3q-125 -15 -125 -48q0 -14 28 -30t28 -22q0 -8 -10 -8
q-4 0 -7 1q-80 38 -80 67q0 22 43 43q57 27 186 27q17 0 35 -0.5t37 -1.5q12 17 49 17q15 0 15 -6q0 -2 -10 -15q56 -4 115 -12q6 -1 15 -2t20 -3q11 -3 11 -11t-11 -8l-3 1q-27 3 -68 6.5t-96 7.5q-44 -56 -81 -111.5t-63 -104.5q-79 -150 -95 -237q51 6 92 6q91 0 110 -21
q6 -7 6 -20q0 -8 -2.5 -14t-7.5 -3q-12 7 -35.5 11t-48 6t-39.5 2q-18 0 -37.5 -1t-40.5 -3q2 -29 20 -29q5 0 12 1.5t15 6.5t12 9.5t5 4.5q8 0 8 -9q0 -13 -20 -22q-22 -11 -34 -11zM487 575q-26 0 -26 21q0 11 9 22t22 11q11 0 17.5 -7t6.5 -17q0 -11 -8.5 -20.5
t-20.5 -9.5zM386 575q-26 0 -26 21q0 11 9 22t22 11q11 0 17.5 -7t6.5 -17q0 -11 -8.5 -20.5t-20.5 -9.5z" />
    <glyph glyph-name="Eth" unicode="&#xd0;" horiz-adv-x="786" 
d="M244 -58q-19 0 -39 1t-40 4q-44 7 -81.5 21.5t-60.5 37.5t-23 54q0 47 27.5 79t71 50t90.5 21q14 33 33 73t40 80.5t40 74t32 52.5q15 22 51 22q14 0 14 -8q0 -5 -11 -18q-43 -58 -84 -127t-81 -149q270 -6 367 -135q44 31 79.5 70t56.5 84t21 92q0 57 -30.5 98.5t-82 68
t-114 39t-125.5 12.5q-169 0 -300 -74q-7 -4 -13 -4q-13 0 -13 15q0 23 31 39q32 17 82.5 28.5t104 17t93.5 5.5q75 0 147.5 -15t130.5 -45.5t93 -77.5t35 -112q0 -54 -24.5 -104.5t-64.5 -93t-88 -74.5q4 -8 4 -14q0 -14 -10 -14q-4 0 -14 16q-150 -90 -345 -90zM230 -35
q189 0 338 95q-24 30 -63.5 53.5t-86.5 39.5t-94 24.5t-87 8.5h-13t-13 -1q-60 -127 -60 -171q0 -4 1.5 -8t1.5 -8q0 -13 -12 -13q-16 0 -16 27q0 45 51 169q-133 -22 -133 -123q0 -39 40 -61t93 -30q14 -1 27 -1.5t26 -0.5zM275 263h-38q-22 0 -43.5 0.5t-29.5 2.5
q-8 1 -8 7q0 4 5 9q5 4 13 6t16 3q13 1 29 1.5t32 0.5q23 0 46.5 -1t39.5 -4q14 -2 19 -4.5t5 -5.5q0 -4 -4.5 -7.5t-15.5 -4.5q-9 -1 -29 -2t-37 -1z" />
    <glyph glyph-name="Ntilde" unicode="&#xd1;" horiz-adv-x="884" 
d="M410 -37q-22 0 -22 22q0 8 3 12q26 32 56 84.5t66 132.5q72 161 72 234q0 108 -128 108q-61 0 -139 -27q-45 -15 -87.5 -36t-86.5 -52q-111 -76 -111 -146q0 -57 77 -57q39 0 111 20q4 1 6.5 1.5t3.5 0.5q8 0 8 -6q0 -17 -52 -29q-20 -4 -37 -7t-31 -3q-112 0 -112 88
q0 82 114 161q88 60 188 91q82 25 154 25q165 0 165 -130q0 -92 -73 -229q29 34 58.5 70.5t55.5 66.5q42 47 76 70t59 23q73 0 73 -70q0 -60 -58 -186t-58 -164q0 -30 28 -30q15 0 39 17q25 17 28 17q4 0 4 -5q0 -20 -27 -35q-28 -15 -50 -15q-53 0 -53 56q0 41 30 110
l38 87q11 25 19 47.5t13 42.5q12 41 12 64q0 35 -25 35q-14 0 -31 -8q-36 -16 -82 -59.5t-99 -110.5q-40 -50 -77 -102.5t-69 -108.5q-7 -12 -19.5 -30.5t-29.5 -39.5zM742 498q-5 0 -5 4q0 22 14 33t33 11q16 0 34 -8q18 -9 31 -9q19 0 30 20q6 0 6 -4q1 -22 -13 -33
t-34 -11q-16 0 -34 8q-19 9 -32 9q-19 0 -30 -20z" />
    <glyph glyph-name="Ograve" unicode="&#xd2;" horiz-adv-x="656" 
d="M617 561q-4 0 -23.5 8.5t-43 20.5t-42.5 21.5t-22 11.5q-2 2 -5.5 7t-3.5 11q0 11 3 14.5t5 3.5t7 -1t11 -5q27 -17 61 -40.5t55 -41.5q3 -3 3 -6q0 -4 -5 -4zM177 -26q-131 0 -131 105q0 33 15 70q-66 32 -66 97q0 86 84 159q67 58 163 92q105 38 208 38q97 0 163 -36
q83 -47 83 -135q0 -71 -56 -151q-73 -105 -204 -171q-134 -68 -259 -68zM185 -5q120 0 240 72q112 67 184 171q54 78 54 141q0 71 -64 105q-50 28 -128 28q-100 0 -214 -45q-87 -35 -150 -83q-89 -68 -89 -137q0 -59 52 -77q23 41 58.5 83t79.5 83q93 85 176 120
q21 8 39 13.5t33 5.5h2q12 0 12 -9q0 -10 -15 -13q-35 -6 -68 -23q-34 -18 -83 -56q-25 -19 -52.5 -43.5t-56.5 -54.5q-38 -39 -59 -68t-26 -48q17 -4 37 -4q89 0 179 84q20 19 28 26t7 7q7 0 7 -8q-21 -30 -45.5 -52t-53.5 -39q-65 -38 -129 -38q-10 0 -19.5 1.5t-17.5 3.5
q-17 -34 -17 -62q0 -39 29 -62q28 -22 70 -22z" />
    <glyph glyph-name="Oacute" unicode="&#xd3;" horiz-adv-x="656" 
d="M177 -26q-131 0 -131 105q0 33 15 70q-66 32 -66 97q0 86 84 159q67 58 163 92q105 38 208 38q97 0 163 -36q83 -47 83 -135q0 -71 -56 -151q-73 -105 -204 -171q-134 -68 -259 -68zM185 -5q120 0 240 72q112 67 184 171q54 78 54 141q0 71 -64 105q-50 28 -128 28
q-100 0 -214 -45q-87 -35 -150 -83q-89 -68 -89 -137q0 -59 52 -77q23 41 58.5 83t79.5 83q93 85 176 120q21 8 39 13.5t33 5.5h2q12 0 12 -9q0 -10 -15 -13q-35 -6 -68 -23q-34 -18 -83 -56q-25 -19 -52.5 -43.5t-56.5 -54.5q-38 -39 -59 -68t-26 -48q17 -4 37 -4
q89 0 179 84q20 19 28 26t7 7q7 0 7 -8q-21 -30 -45.5 -52t-53.5 -39q-65 -38 -129 -38q-10 0 -19.5 1.5t-17.5 3.5q-17 -34 -17 -62q0 -39 29 -62q28 -22 70 -22zM546 561q-5 0 -5 4q0 3 3 6q21 18 55 41.5t61 40.5q6 4 11 5t7 1t5 -3.5t3 -14.5q0 -6 -3.5 -11t-5.5 -7
q-3 -2 -22 -11.5t-42.5 -21.5t-43 -20.5t-23.5 -8.5z" />
    <glyph glyph-name="Ocircumflex" unicode="&#xd4;" horiz-adv-x="656" 
d="M177 -26q-131 0 -131 105q0 33 15 70q-66 32 -66 97q0 86 84 159q67 58 163 92q105 38 208 38q97 0 163 -36q83 -47 83 -135q0 -71 -56 -151q-73 -105 -204 -171q-134 -68 -259 -68zM185 -5q120 0 240 72q112 67 184 171q54 78 54 141q0 71 -64 105q-50 28 -128 28
q-100 0 -214 -45q-87 -35 -150 -83q-89 -68 -89 -137q0 -59 52 -77q23 41 58.5 83t79.5 83q93 85 176 120q21 8 39 13.5t33 5.5h2q12 0 12 -9q0 -10 -15 -13q-35 -6 -68 -23q-34 -18 -83 -56q-25 -19 -52.5 -43.5t-56.5 -54.5q-38 -39 -59 -68t-26 -48q17 -4 37 -4
q89 0 179 84q20 19 28 26t7 7q7 0 7 -8q-21 -30 -45.5 -52t-53.5 -39q-65 -38 -129 -38q-10 0 -19.5 1.5t-17.5 3.5q-17 -34 -17 -62q0 -39 29 -62q28 -22 70 -22zM488 564q-6 0 -6 5t7 10q29 20 54 37t55 36q17 11 23 11q8 0 13 -10q11 -19 19 -35.5t15 -32.5q4 -9 4 -15
q0 -8 -8 -8q-4 0 -8.5 4t-9.5 9q-11 13 -23.5 27t-18.5 20q-9 -5 -27 -14.5t-37 -19.5t-34 -17t-18 -7z" />
    <glyph glyph-name="Otilde" unicode="&#xd5;" horiz-adv-x="656" 
d="M177 -26q-131 0 -131 105q0 33 15 70q-66 32 -66 97q0 86 84 159q67 58 163 92q105 38 208 38q97 0 163 -36q83 -47 83 -135q0 -71 -56 -151q-73 -105 -204 -171q-134 -68 -259 -68zM185 -5q120 0 240 72q112 67 184 171q54 78 54 141q0 71 -64 105q-50 28 -128 28
q-100 0 -214 -45q-87 -35 -150 -83q-89 -68 -89 -137q0 -59 52 -77q23 41 58.5 83t79.5 83q93 85 176 120q21 8 39 13.5t33 5.5h2q12 0 12 -9q0 -10 -15 -13q-35 -6 -68 -23q-34 -18 -83 -56q-25 -19 -52.5 -43.5t-56.5 -54.5q-38 -39 -59 -68t-26 -48q17 -4 37 -4
q89 0 179 84q20 19 28 26t7 7q7 0 7 -8q-21 -30 -45.5 -52t-53.5 -39q-65 -38 -129 -38q-10 0 -19.5 1.5t-17.5 3.5q-17 -34 -17 -62q0 -39 29 -62q28 -22 70 -22zM500 565q-6 0 -6 5q0 20 14.5 34.5t36.5 14.5q24 0 42.5 -10t37.5 -10q13 0 20 6t14 19q7 0 7 -5
q0 -22 -15 -36.5t-34 -14.5q-27 0 -45 11t-38 11q-23 0 -34 -25z" />
    <glyph glyph-name="Odieresis" unicode="&#xd6;" horiz-adv-x="656" 
d="M177 -26q-131 0 -131 105q0 33 15 70q-66 32 -66 97q0 86 84 159q67 58 163 92q105 38 208 38q97 0 163 -36q83 -47 83 -135q0 -71 -56 -151q-73 -105 -204 -171q-134 -68 -259 -68zM185 -5q120 0 240 72q112 67 184 171q54 78 54 141q0 71 -64 105q-50 28 -128 28
q-100 0 -214 -45q-87 -35 -150 -83q-89 -68 -89 -137q0 -59 52 -77q23 41 58.5 83t79.5 83q93 85 176 120q21 8 39 13.5t33 5.5h2q12 0 12 -9q0 -10 -15 -13q-35 -6 -68 -23q-34 -18 -83 -56q-25 -19 -52.5 -43.5t-56.5 -54.5q-38 -39 -59 -68t-26 -48q17 -4 37 -4
q89 0 179 84q20 19 28 26t7 7q7 0 7 -8q-21 -30 -45.5 -52t-53.5 -39q-65 -38 -129 -38q-10 0 -19.5 1.5t-17.5 3.5q-17 -34 -17 -62q0 -39 29 -62q28 -22 70 -22zM629 562q-26 0 -26 21q0 11 9 22t22 11q11 0 17.5 -7t6.5 -17q0 -11 -8.5 -20.5t-20.5 -9.5zM528 562
q-26 0 -26 21q0 11 9 22t22 11q11 0 17.5 -7t6.5 -17q0 -11 -8.5 -20.5t-20.5 -9.5z" />
    <glyph glyph-name="multiply" unicode="&#xd7;" horiz-adv-x="278" 
d="M53 51q-8 0 -8 7q0 18 82 103q-33 63 -33 80q0 9 16 9q6 0 9 -6q5 -10 11.5 -27t13.5 -40q11 11 21 23t20 22q33 33 44 33l2 -2q-1 -8 -82 -89q5 -14 12 -26.5t17 -23.5q26 -29 47 -29q3 0 6.5 1t5.5 2q7 4 11 4l3 -3q0 -9 -15 -18t-26 -9q-23 0 -49 32q-7 9 -15.5 23.5
t-13.5 29.5q-11 -16 -30.5 -41t-39.5 -50q-5 -5 -9 -5z" />
    <glyph glyph-name="Oslash" unicode="&#xd8;" horiz-adv-x="784" 
d="M115 -185q-8 0 -8 7q0 8 18 47q8 19 25.5 46.5t39.5 60.5q-96 14 -96 103q0 33 15 70q-66 32 -66 97q0 86 84 159q67 58 163 92q105 38 208 38q72 0 127 -20l14 14t30 29.5t28 26.5q4 4 14 4q20 0 20 -12q0 -1 -2 -5q-13 -12 -31 -29.5t-41 -41.5q2 -2 4 -2
q83 -47 83 -135q0 -71 -56 -151q-73 -105 -204 -171q-134 -68 -259 -68h-8q-23 -32 -39.5 -58t-24.5 -43q-1 -3 -7 -17.5t-14 -35.5q-1 -2 -7.5 -3.5t-9.5 -1.5zM205 -2q42 59 95.5 128t110 138.5t109 130.5t91.5 104q-39 13 -92 13q-100 0 -214 -45q-87 -35 -150 -83
q-89 -68 -89 -137q0 -59 52 -77q23 41 58.5 83t79.5 83q93 85 176 120q21 8 39 13.5t33 5.5h2q12 0 12 -9q0 -10 -15 -13q-35 -6 -68 -23q-34 -18 -83 -56q-25 -19 -52.5 -43.5t-56.5 -54.5q-38 -39 -59 -68t-26 -48q8 -3 22.5 -4.5t23.5 -0.5h3q9 0 9 -5q0 -4 -7.5 -8.5
t-24.5 -4.5q-9 0 -18 1.5l-15 2.5q-17 -34 -17 -62q0 -39 29 -62q17 -14 42 -19zM233 -5q120 0 240 72q112 67 184 171q54 78 54 141q0 35 -15 63.5t-49 41.5l-5 2q-45 -46 -99 -107.5t-110 -129.5t-108 -133.5t-92 -120.5z" />
    <glyph glyph-name="Ugrave" unicode="&#xd9;" horiz-adv-x="689" 
d="M643 574q-4 0 -23.5 8.5t-43 20.5t-42.5 21.5t-22 11.5q-2 2 -5.5 7t-3.5 11q0 11 3 14.5t5 3.5t7 -1t11 -5q27 -17 61 -40.5t55 -41.5q3 -3 3 -6q0 -4 -5 -4zM599 -77q-47 0 -47 75q0 43 15 110t46 158q-30 -40 -60 -83t-59 -79q-45 -58 -81 -85.5t-62 -27.5
q-64 0 -64 62q0 26 11.5 66t36.5 92q20 43 40.5 80.5t36.5 72.5q21 45 21 75q0 59 -74 59q-82 0 -183 -59q-102 -61 -134 -133q-18 -39 -18 -63q0 -31 35 -31q8 0 23 3q17 3 23 3q8 0 8 -5q0 -13 -28 -20q-10 -3 -20 -4t-18 -1q-63 0 -63 52q0 24 13 51q40 87 160 160
q116 71 215 71q98 0 98 -80q0 -41 -28 -98q-15 -31 -39 -77.5t-57 -123.5q-13 -31 -18.5 -54.5t-5.5 -39.5q0 -29 21 -29q53 0 143 113q33 41 67.5 91.5t70.5 108.5q5 7 16 26t26 47q8 19 21 45t32 60q6 8 23 14t28 6q9 0 9 -5q0 -2 -2 -4q-48 -83 -81.5 -150t-52.5 -119
q-56 -154 -56 -245q0 -60 26 -60q9 0 25 14q17 14 19 14q9 0 9 -9q0 -13 -26 -28q-26 -16 -41 -16z" />
    <glyph glyph-name="Uacute" unicode="&#xda;" horiz-adv-x="689" 
d="M599 -77q-47 0 -47 75q0 43 15 110t46 158q-30 -40 -60 -83t-59 -79q-45 -58 -81 -85.5t-62 -27.5q-64 0 -64 62q0 26 11.5 66t36.5 92q20 43 40.5 80.5t36.5 72.5q21 45 21 75q0 59 -74 59q-82 0 -183 -59q-102 -61 -134 -133q-18 -39 -18 -63q0 -31 35 -31q8 0 23 3
q17 3 23 3q8 0 8 -5q0 -13 -28 -20q-10 -3 -20 -4t-18 -1q-63 0 -63 52q0 24 13 51q40 87 160 160q116 71 215 71q98 0 98 -80q0 -41 -28 -98q-15 -31 -39 -77.5t-57 -123.5q-13 -31 -18.5 -54.5t-5.5 -39.5q0 -29 21 -29q53 0 143 113q33 41 67.5 91.5t70.5 108.5
q5 7 16 26t26 47q8 19 21 45t32 60q6 8 23 14t28 6q9 0 9 -5q0 -2 -2 -4q-48 -83 -81.5 -150t-52.5 -119q-56 -154 -56 -245q0 -60 26 -60q9 0 25 14q17 14 19 14q9 0 9 -9q0 -13 -26 -28q-26 -16 -41 -16zM572 574q-5 0 -5 4q0 3 3 6q21 18 55 41.5t61 40.5q6 4 11 5t7 1
t5 -3.5t3 -14.5q0 -6 -3.5 -11t-5.5 -7q-3 -2 -22 -11.5t-42.5 -21.5t-43 -20.5t-23.5 -8.5z" />
    <glyph glyph-name="Ucircumflex" unicode="&#xdb;" horiz-adv-x="689" 
d="M599 -77q-47 0 -47 75q0 43 15 110t46 158q-30 -40 -60 -83t-59 -79q-45 -58 -81 -85.5t-62 -27.5q-64 0 -64 62q0 26 11.5 66t36.5 92q20 43 40.5 80.5t36.5 72.5q21 45 21 75q0 59 -74 59q-82 0 -183 -59q-102 -61 -134 -133q-18 -39 -18 -63q0 -31 35 -31q8 0 23 3
q17 3 23 3q8 0 8 -5q0 -13 -28 -20q-10 -3 -20 -4t-18 -1q-63 0 -63 52q0 24 13 51q40 87 160 160q116 71 215 71q98 0 98 -80q0 -41 -28 -98q-15 -31 -39 -77.5t-57 -123.5q-13 -31 -18.5 -54.5t-5.5 -39.5q0 -29 21 -29q53 0 143 113q33 41 67.5 91.5t70.5 108.5
q5 7 16 26t26 47q8 19 21 45t32 60q6 8 23 14t28 6q9 0 9 -5q0 -2 -2 -4q-48 -83 -81.5 -150t-52.5 -119q-56 -154 -56 -245q0 -60 26 -60q9 0 25 14q17 14 19 14q9 0 9 -9q0 -13 -26 -28q-26 -16 -41 -16zM514 577q-6 0 -6 5t7 10q29 20 54 37t55 36q17 11 23 11
q8 0 13 -10q11 -19 19 -35.5t15 -32.5q4 -9 4 -15q0 -8 -8 -8q-4 0 -8.5 4t-9.5 9q-11 13 -23.5 27t-18.5 20q-9 -5 -27 -14.5t-37 -19.5t-34 -17t-18 -7z" />
    <glyph glyph-name="Udieresis" unicode="&#xdc;" horiz-adv-x="689" 
d="M599 -77q-47 0 -47 75q0 43 15 110t46 158q-30 -40 -60 -83t-59 -79q-45 -58 -81 -85.5t-62 -27.5q-64 0 -64 62q0 26 11.5 66t36.5 92q20 43 40.5 80.5t36.5 72.5q21 45 21 75q0 59 -74 59q-82 0 -183 -59q-102 -61 -134 -133q-18 -39 -18 -63q0 -31 35 -31q8 0 23 3
q17 3 23 3q8 0 8 -5q0 -13 -28 -20q-10 -3 -20 -4t-18 -1q-63 0 -63 52q0 24 13 51q40 87 160 160q116 71 215 71q98 0 98 -80q0 -41 -28 -98q-15 -31 -39 -77.5t-57 -123.5q-13 -31 -18.5 -54.5t-5.5 -39.5q0 -29 21 -29q53 0 143 113q33 41 67.5 91.5t70.5 108.5
q5 7 16 26t26 47q8 19 21 45t32 60q6 8 23 14t28 6q9 0 9 -5q0 -2 -2 -4q-48 -83 -81.5 -150t-52.5 -119q-56 -154 -56 -245q0 -60 26 -60q9 0 25 14q17 14 19 14q9 0 9 -9q0 -13 -26 -28q-26 -16 -41 -16zM655 575q-26 0 -26 21q0 11 9 22t22 11q11 0 17.5 -7t6.5 -17
q0 -11 -8.5 -20.5t-20.5 -9.5zM554 575q-26 0 -26 21q0 11 9 22t22 11q11 0 17.5 -7t6.5 -17q0 -11 -8.5 -20.5t-20.5 -9.5z" />
    <glyph glyph-name="Yacute" unicode="&#xdd;" horiz-adv-x="745" 
d="M186 -351q-45 0 -77 19q-39 24 -39 65q0 121 222 230q79 39 161 67.5t167 47.5q5 20 11.5 82.5t14.5 165.5l-7.5 -12.5t-6.5 -9.5l-52.5 -72.5t-75.5 -99.5q-41 -52 -75 -77.5t-60 -25.5q-69 0 -69 64q0 60 63 184q64 125 64 162q0 59 -74 59q-82 0 -183 -59
q-102 -61 -134 -133q-18 -39 -18 -63q0 -31 35 -31q8 0 23 3q17 3 23 3q8 0 8 -5q0 -13 -28 -20q-10 -3 -20 -4t-18 -1q-63 0 -63 52q0 24 13 51q40 87 160 160q116 71 215 71q98 0 98 -80q0 -38 -29 -98q-14 -29 -35 -74.5t-47 -107.5q-10 -23 -13.5 -42t-3.5 -33
q0 -29 22 -29q54 0 146 113q14 17 35.5 44t49.5 63q10 17 25.5 41.5t35.5 56.5l4 33q2 16 24 36q23 21 37 21q12 0 12 -13q0 -4 -1 -5l-9 -23q-8 -22 -16 -60t-16 -94q-4 -31 -12 -78.5t-21 -109.5h10q13 0 25.5 -1t25.5 -4q36 -7 36 -25q0 -11 -11 -11q-3 0 -9 2
q-27 12 -50 12q-17 0 -34 -4q-48 -162 -168 -276q-133 -127 -291 -127zM183 -323q74 0 141 29q93 40 176 142q42 52 68.5 101.5t41.5 97.5q-134 -25 -301 -110q-211 -106 -211 -208q0 -52 85 -52zM555 529q-5 0 -5 4q0 3 3 6q21 18 55 41.5t61 40.5q6 4 11 5t7 1t5 -3.5
t3 -14.5q0 -6 -3.5 -11t-5.5 -7q-3 -2 -22 -11.5t-42.5 -21.5t-43 -20.5t-23.5 -8.5z" />
    <glyph glyph-name="Thorn" unicode="&#xde;" horiz-adv-x="462" 
d="M79 -72q-16 0 -16 27q0 69 90 259q-83 17 -83 47q0 20 25 33q22 11 43 11q11 0 11 -7q0 -4 -6.5 -7t-17.5 -5q-10 -2 -17.5 -6.5t-7.5 -11.5q0 -17 62 -34q15 32 48.5 101t84.5 163q-67 -1 -126.5 -16t-114.5 -42q-3 -2 -7 -2q-5 0 -5 6q0 11 12 27q9 13 20 18
q38 18 86.5 27t109.5 9h19.5t19.5 -1q11 20 20 37t25 45q1 2 11.5 20t22.5 35q15 21 51 21q14 0 14 -7q0 -1 -2 -7q-19 -26 -40 -58t-53 -88q59 -5 108.5 -18.5t79.5 -39.5t30 -68q0 -24 -14 -54q-32 -65 -122 -105q-77 -34 -160 -34q-22 0 -45 1.5t-46 3.5
q-101 -191 -101 -251q0 -5 1 -8q1 -2 1 -4v-3q0 -14 -11 -14zM243 224q84 0 165 37q95 43 119 111q3 8 4 16t1 15q0 67 -88 83q-23 5 -48 7.5t-52 3.5q-26 -46 -61.5 -112t-83.5 -158q23 -3 44 -3z" />
    <glyph glyph-name="germandbls" unicode="&#xdf;" horiz-adv-x="406" 
d="M-175 -380q-33 0 -56 23t-23 57q0 41 14 41q4 0 7 -25l4 -33q12 -47 44 -47q34 0 74 43q25 27 55.5 86t65.5 150q20 52 39 109t37 113.5t33 104.5q-13 -1 -28.5 -2.5t-23.5 -1.5q-9 0 -9 2q0 5 19.5 12.5t47.5 14.5q22 58 36 101t28.5 77.5t35.5 64.5q26 37 56 48t68 11
t57 -26.5t19 -64.5q0 -33 -15 -70t-46 -68.5t-79 -49.5q8 -13 18 -34.5t20 -46t18 -45t11 -30.5q6 -21 7.5 -38.5t1.5 -31.5q58 9 99 59q2 3 5 3q6 0 6 -8q0 -2 -0.5 -4t-1.5 -4q-33 -52 -111 -67q-3 -16 -11 -28t-19 -20q-25 -18 -56 -18q-47 0 -85 34q-39 35 -39 80
q0 29 16 29q5 0 9.5 -4t11.5 -10q28 -23 64 -34t77 -13v10q0 60 -20.5 113t-44.5 95q-3 3 -5.5 6.5t-2.5 7.5q0 3 3 9q43 8 74 40t48.5 72.5t17.5 75.5q0 29 -12.5 47.5t-39.5 18.5q-9 0 -23 -4t-32 -19.5t-39 -48.5q-25 -40 -48 -93.5t-47.5 -125.5t-54.5 -168.5
t-69 -223.5q-11 -36 -26.5 -79.5t-39 -82.5t-57.5 -64t-83 -25zM259 5q20 0 39.5 7.5t26.5 27.5q-45 0 -83.5 9t-61.5 28l-4 2q-4 0 -2 -8q27 -66 85 -66z" />
    <glyph glyph-name="agrave" unicode="&#xe0;" horiz-adv-x="291" 
d="M239 287q-4 0 -19 8.5t-33.5 20t-33 21t-17.5 11.5q-2 2 -5 6t-3 9q0 12 3.5 14t5.5 2t7 -1.5t11 -6.5q49 -36 87 -74q3 -3 3 -6q0 -4 -6 -4zM49 -3q-31 0 -31 34q0 51 50 125q49 73 97 90q9 3 17 5t16 2q36 0 52 -25q3 -4 3 -7q0 -2 -7 -3q-6 -1 -10 -7
q-24 -39 -24 -117q0 -72 31 -72q21 0 61 44q6 6 17 21t22 30.5t15 20.5q3 3 5 3q4 0 4 -7q0 -5 -6 -14q-22 -35 -50 -68t-48 -43q-18 -9 -36 -9q-61 0 -61 86q0 7 0.5 14.5t1.5 15.5q-68 -119 -119 -119zM66 27q11 0 26 12.5t31 33.5q24 32 45 68t37 78q-3 1 -9 1
q-41 0 -83 -51q-61 -73 -61 -121q0 -21 14 -21z" />
    <glyph glyph-name="aacute" unicode="&#xe1;" horiz-adv-x="291" 
d="M49 -3q-31 0 -31 34q0 51 50 125q49 73 97 90q9 3 17 5t16 2q36 0 52 -25q3 -4 3 -7q0 -2 -7 -3q-6 -1 -10 -7q-24 -39 -24 -117q0 -72 31 -72q21 0 61 44q6 6 17 21t22 30.5t15 20.5q3 3 5 3q4 0 4 -7q0 -5 -6 -14q-22 -35 -50 -68t-48 -43q-18 -9 -36 -9q-61 0 -61 86
q0 7 0.5 14.5t1.5 15.5q-68 -119 -119 -119zM66 27q11 0 26 12.5t31 33.5q24 32 45 68t37 78q-3 1 -9 1q-41 0 -83 -51q-61 -73 -61 -121q0 -21 14 -21zM178 287q-6 0 -6 4q0 3 3 6q38 38 87 74q6 5 11 6.5t7 1.5t5.5 -2t3.5 -14q0 -5 -3 -9t-5 -6q-3 -2 -17.5 -11.5
t-33 -21t-33.5 -20t-19 -8.5z" />
    <glyph glyph-name="acircumflex" unicode="&#xe2;" horiz-adv-x="291" 
d="M49 -3q-31 0 -31 34q0 51 50 125q49 73 97 90q9 3 17 5t16 2q36 0 52 -25q3 -4 3 -7q0 -2 -7 -3q-6 -1 -10 -7q-24 -39 -24 -117q0 -72 31 -72q21 0 61 44q6 6 17 21t22 30.5t15 20.5q3 3 5 3q4 0 4 -7q0 -5 -6 -14q-22 -35 -50 -68t-48 -43q-18 -9 -36 -9q-61 0 -61 86
q0 7 0.5 14.5t1.5 15.5q-68 -119 -119 -119zM66 27q11 0 26 12.5t31 33.5q24 32 45 68t37 78q-3 1 -9 1q-41 0 -83 -51q-61 -73 -61 -121q0 -21 14 -21zM284 286q-4 0 -16.5 11t-24.5 24t-17 18q-6 -4 -20 -12t-30 -17t-28.5 -15.5t-15.5 -6.5q-6 0 -3 5q1 3 4 6
q22 16 37 29.5t46 35.5q8 5 13 7t6 2q3 0 6 -1.5t7 -7.5q12 -17 20.5 -30.5t21.5 -36.5q1 -2 1 -6q-2 -5 -7 -5z" />
    <glyph glyph-name="atilde" unicode="&#xe3;" horiz-adv-x="291" 
d="M49 -3q-31 0 -31 34q0 51 50 125q49 73 97 90q9 3 17 5t16 2q36 0 52 -25q3 -4 3 -7q0 -2 -7 -3q-6 -1 -10 -7q-24 -39 -24 -117q0 -72 31 -72q21 0 61 44q6 6 17 21t22 30.5t15 20.5q3 3 5 3q4 0 4 -7q0 -5 -6 -14q-22 -35 -50 -68t-48 -43q-18 -9 -36 -9q-61 0 -61 86
q0 7 0.5 14.5t1.5 15.5q-68 -119 -119 -119zM66 27q11 0 26 12.5t31 33.5q24 32 45 68t37 78q-3 1 -9 1q-41 0 -83 -51q-61 -73 -61 -121q0 -21 14 -21zM146 294q-5 0 -5 4q0 22 14 33t33 11q16 0 34 -8q18 -9 31 -9q19 0 30 20q6 0 6 -4q1 -22 -13 -33t-34 -11q-16 0 -34 8
q-19 9 -32 9q-19 0 -30 -20z" />
    <glyph glyph-name="adieresis" unicode="&#xe4;" horiz-adv-x="291" 
d="M49 -3q-31 0 -31 34q0 51 50 125q49 73 97 90q9 3 17 5t16 2q36 0 52 -25q3 -4 3 -7q0 -2 -7 -3q-6 -1 -10 -7q-24 -39 -24 -117q0 -72 31 -72q21 0 61 44q6 6 17 21t22 30.5t15 20.5q3 3 5 3q4 0 4 -7q0 -5 -6 -14q-22 -35 -50 -68t-48 -43q-18 -9 -36 -9q-61 0 -61 86
q0 7 0.5 14.5t1.5 15.5q-68 -119 -119 -119zM66 27q11 0 26 12.5t31 33.5q24 32 45 68t37 78q-3 1 -9 1q-41 0 -83 -51q-61 -73 -61 -121q0 -21 14 -21zM262 287q-26 0 -26 21q0 11 9 22t22 11q11 0 17.5 -7t6.5 -17q0 -11 -8.5 -20.5t-20.5 -9.5zM161 287q-26 0 -26 21
q0 11 9 22t22 11q11 0 17.5 -7t6.5 -17q0 -11 -8.5 -20.5t-20.5 -9.5z" />
    <glyph glyph-name="aring" unicode="&#xe5;" horiz-adv-x="291" 
d="M49 -3q-31 0 -31 34q0 51 50 125q49 73 97 90q9 3 17 5t16 2q36 0 52 -25q3 -4 3 -7q0 -2 -7 -3q-6 -1 -10 -7q-24 -39 -24 -117q0 -72 31 -72q21 0 61 44q6 6 17 21t22 30.5t15 20.5q3 3 5 3q4 0 4 -7q0 -5 -6 -14q-22 -35 -50 -68t-48 -43q-18 -9 -36 -9q-61 0 -61 86
q0 7 0.5 14.5t1.5 15.5q-68 -119 -119 -119zM66 27q11 0 26 12.5t31 33.5q24 32 45 68t37 78q-3 1 -9 1q-41 0 -83 -51q-61 -73 -61 -121q0 -21 14 -21zM229 290q-40 0 -40 30q0 21 19 40t50 19q14 0 27.5 -6t13.5 -24q0 -31 -24 -45t-46 -14zM232 301q12 0 25.5 13t13.5 35
q0 18 -15 18q-12 0 -25.5 -13t-13.5 -35q0 -18 15 -18z" />
    <glyph glyph-name="ae" unicode="&#xe6;" horiz-adv-x="332" 
d="M49 0q-31 0 -31 34q0 51 50 125q49 73 97 90q9 3 17 5t16 2q29 0 46 -17q28 20 56 20q12 0 22 -6q19 -10 19 -37q0 -25 -15.5 -52.5t-40.5 -41.5q-19 -10 -36 -15t-31 -5q-4 0 -8.5 0.5t-8.5 1.5q-7 -24 -7 -42q0 -41 37 -41q35 0 79 29q14 9 33.5 25.5t31.5 31.5
q8 10 14 10q4 0 4 -4l-2 -6q-25 -38 -75 -72q-53 -35 -97 -35q-63 0 -63 79q0 5 0.5 11t1.5 12q-61 -102 -109 -102zM208 124q7 -4 18 -4q24 0 51 15q18 10 27 30t9 38q0 13 -5 21.5t-15 8.5q-2 0 -4.5 -0.5t-5.5 -1.5q-7 -3 -17 -11.5t-27 -34.5q-25 -38 -31 -61zM66 30
q11 0 26 12.5t31 33.5q24 32 45 68t37 78q-3 1 -9 1q-41 0 -83 -51q-61 -73 -61 -121q0 -21 14 -21z" />
    <glyph glyph-name="ccedilla" unicode="&#xe7;" horiz-adv-x="220" 
d="M108 -8q-75 0 -75 80q0 26 15 54t42 57q56 59 103 59q32 0 32 -25q0 -9 -14 -34q-15 -25 -24 -25q-4 0 -4 5q0 4 3 13q4 8 4 14q0 21 -26 21q-11 0 -28 -11.5t-31 -34.5q-26 -43 -26 -79q0 -61 52 -61q22 0 48.5 13t51 33.5t37.5 42.5q8 12 13 12q4 0 4 -3v-4
q0 -2 -0.5 -5t-2.5 -5q-15 -22 -36 -44.5t-56 -45.5q-18 -12 -39.5 -19.5t-42.5 -7.5zM26 -161q-5 0 -5 6q0 5 6 5q36 0 54.5 13.5t18.5 32.5q0 17 -14 34q-9 12 -9 26q0 20 15.5 36.5t43.5 16.5q7 0 8 -4q-16 -3 -25 -13q-11 -11 -11 -23q0 -10 7.5 -20t14.5 -21t7 -25
q0 -20 -16.5 -34.5t-42 -22t-52.5 -7.5z" />
    <glyph glyph-name="egrave" unicode="&#xe8;" horiz-adv-x="200" 
d="M196 285q-4 0 -19 8.5t-33.5 20t-33 21t-17.5 11.5q-2 2 -5 6t-3 9q0 12 3.5 14t5.5 2t7 -1.5t11 -6.5q49 -36 87 -74q3 -3 3 -6q0 -4 -6 -4zM112 -6q-33 0 -58 19t-25 64q0 27 12 58.5t32.5 59.5t45.5 46t51 18q10 0 17.5 -7t7.5 -21q0 -31 -47 -75q-19 -18 -39.5 -32
t-37.5 -20q-4 -13 -4 -30q0 -23 11 -42t35 -19q30 0 55 17t46 41.5t37 45.5q7 10 14 10q4 0 4 -4q0 -2 -1 -4.5t-2 -4.5q-17 -24 -39 -52t-50 -48t-65 -20zM78 124q26 11 54 39q33 32 33 56q0 12 -12 12q-16 0 -44 -46q-25 -38 -31 -61z" />
    <glyph glyph-name="eacute" unicode="&#xe9;" horiz-adv-x="200" 
d="M112 -6q-33 0 -58 19t-25 64q0 27 12 58.5t32.5 59.5t45.5 46t51 18q10 0 17.5 -7t7.5 -21q0 -31 -47 -75q-19 -18 -39.5 -32t-37.5 -20q-4 -13 -4 -30q0 -23 11 -42t35 -19q30 0 55 17t46 41.5t37 45.5q7 10 14 10q4 0 4 -4q0 -2 -1 -4.5t-2 -4.5q-17 -24 -39 -52
t-50 -48t-65 -20zM78 124q26 11 54 39q33 32 33 56q0 12 -12 12q-16 0 -44 -46q-25 -38 -31 -61zM135 285q-6 0 -6 4q0 3 3 6q38 38 87 74q6 5 11 6.5t7 1.5t5.5 -2t3.5 -14q0 -5 -3 -9t-5 -6q-3 -2 -17.5 -11.5t-33 -21t-33.5 -20t-19 -8.5z" />
    <glyph glyph-name="ecircumflex" unicode="&#xea;" horiz-adv-x="200" 
d="M112 -6q-33 0 -58 19t-25 64q0 27 12 58.5t32.5 59.5t45.5 46t51 18q10 0 17.5 -7t7.5 -21q0 -31 -47 -75q-19 -18 -39.5 -32t-37.5 -20q-4 -13 -4 -30q0 -23 11 -42t35 -19q30 0 55 17t46 41.5t37 45.5q7 10 14 10q4 0 4 -4q0 -2 -1 -4.5t-2 -4.5q-17 -24 -39 -52
t-50 -48t-65 -20zM78 124q26 11 54 39q33 32 33 56q0 12 -12 12q-16 0 -44 -46q-25 -38 -31 -61zM241 284q-4 0 -16.5 11t-24.5 24t-17 18q-6 -4 -20 -12t-30 -17t-28.5 -15.5t-15.5 -6.5q-6 0 -3 5q1 3 4 6q22 16 37 29.5t46 35.5q8 5 13 7t6 2q3 0 6 -1.5t7 -7.5
q12 -17 20.5 -30.5t21.5 -36.5q1 -2 1 -6q-2 -5 -7 -5z" />
    <glyph glyph-name="edieresis" unicode="&#xeb;" horiz-adv-x="200" 
d="M112 -6q-33 0 -58 19t-25 64q0 27 12 58.5t32.5 59.5t45.5 46t51 18q10 0 17.5 -7t7.5 -21q0 -31 -47 -75q-19 -18 -39.5 -32t-37.5 -20q-4 -13 -4 -30q0 -23 11 -42t35 -19q30 0 55 17t46 41.5t37 45.5q7 10 14 10q4 0 4 -4q0 -2 -1 -4.5t-2 -4.5q-17 -24 -39 -52
t-50 -48t-65 -20zM78 124q26 11 54 39q33 32 33 56q0 12 -12 12q-16 0 -44 -46q-25 -38 -31 -61zM219 285q-26 0 -26 21q0 11 9 22t22 11q11 0 17.5 -7t6.5 -17q0 -11 -8.5 -20.5t-20.5 -9.5zM118 285q-26 0 -26 21q0 11 9 22t22 11q11 0 17.5 -7t6.5 -17q0 -11 -8.5 -20.5
t-20.5 -9.5z" />
    <glyph glyph-name="igrave" unicode="&#xec;" horiz-adv-x="178" 
d="M153 241q-4 0 -19 8.5t-33.5 20t-33 21t-17.5 11.5q-2 2 -5 6t-3 9q0 12 3.5 14t5.5 2t7 -1.5t11 -6.5q49 -36 87 -74q3 -3 3 -6q0 -4 -6 -4zM81 -22q-55 0 -55 59q0 28 20 82q17 47 38 75q6 9 14 9t16 -8q5 -5 5 -14q0 -8 -4 -13q-50 -79 -50 -130q0 -36 26 -36
q14 0 32 7.5t36 23.5q12 11 25.5 25t27.5 33l26 32q5 0 5 -8t-7 -16q-91 -121 -155 -121z" />
    <glyph glyph-name="iacute" unicode="&#xed;" horiz-adv-x="178" 
d="M81 -22q-55 0 -55 59q0 28 20 82q17 47 38 75q6 9 14 9t16 -8q5 -5 5 -14q0 -8 -4 -13q-50 -79 -50 -130q0 -36 26 -36q14 0 32 7.5t36 23.5q12 11 25.5 25t27.5 33l26 32q5 0 5 -8t-7 -16q-91 -121 -155 -121zM92 241q-6 0 -6 4q0 3 3 6q38 38 87 74q6 5 11 6.5t7 1.5
t5.5 -2t3.5 -14q0 -5 -3 -9t-5 -6q-3 -2 -17.5 -11.5t-33 -21t-33.5 -20t-19 -8.5z" />
    <glyph glyph-name="icircumflex" unicode="&#xee;" horiz-adv-x="178" 
d="M81 -22q-55 0 -55 59q0 28 20 82q17 47 38 75q6 9 14 9t16 -8q5 -5 5 -14q0 -8 -4 -13q-50 -79 -50 -130q0 -36 26 -36q14 0 32 7.5t36 23.5q12 11 25.5 25t27.5 33l26 32q5 0 5 -8t-7 -16q-91 -121 -155 -121zM198 240q-4 0 -16.5 11t-24.5 24t-17 18q-6 -4 -20 -12
t-30 -17t-28.5 -15.5t-15.5 -6.5q-6 0 -3 5q1 3 4 6q22 16 37 29.5t46 35.5q8 5 13 7t6 2q3 0 6 -1.5t7 -7.5q12 -17 20.5 -30.5t21.5 -36.5q1 -2 1 -6q-2 -5 -7 -5z" />
    <glyph glyph-name="idieresis" unicode="&#xef;" horiz-adv-x="178" 
d="M81 -22q-55 0 -55 59q0 28 20 82q17 47 38 75q6 9 14 9t16 -8q5 -5 5 -14q0 -8 -4 -13q-50 -79 -50 -130q0 -36 26 -36q14 0 32 7.5t36 23.5q12 11 25.5 25t27.5 33l26 32q5 0 5 -8t-7 -16q-91 -121 -155 -121zM176 241q-26 0 -26 21q0 11 9 22t22 11q11 0 17.5 -7
t6.5 -17q0 -11 -8.5 -20.5t-20.5 -9.5zM75 241q-26 0 -26 21q0 11 9 22t22 11q11 0 17.5 -7t6.5 -17q0 -11 -8.5 -20.5t-20.5 -9.5z" />
    <glyph glyph-name="eth" unicode="&#xf0;" horiz-adv-x="308" 
d="M53 0q-44 0 -44 49q0 14 4 36t11 41q9 24 24.5 52.5t37 54t47.5 41.5t57 16q8 0 13.5 -3t5.5 -7q0 -6 -17 -9q-23 -2 -49.5 -27t-49.5 -62q-7 -12 -18.5 -36t-20 -50.5t-8.5 -46.5q0 -28 22 -28q23 0 46 22t42.5 54t33 64.5t17.5 54.5q11 38 15 85.5t4 105.5v18
q-14 -9 -30 -18t-33 -19l-4 -3q-7 -5 -11.5 -5.5t-4.5 3.5q0 12 24 36q7 6 18.5 14.5t30.5 18.5q2 1 4 2.5t4 2.5q-4 53 -17 82.5t-36 29.5q-13 0 -20 -2t-7 2q0 20 48 20q62 0 72 -112q4 2 15.5 8t24.5 12t19 8q21 9 22 3t-20 -18l-59 -40v-21q0 -33 -3 -68.5t-11 -73.5
q-7 -38 -23.5 -87t-41.5 -94.5t-58.5 -75.5t-75.5 -30z" />
    <glyph glyph-name="ntilde" unicode="&#xf1;" horiz-adv-x="278" 
d="M196 -6q-57 0 -57 72q0 32 10.5 62t24.5 55q-35 -31 -73.5 -76.5t-75.5 -101.5q-6 -9 -9 -9q-9 0 -9 18q0 4 2 8q11 27 22 62.5t22 83.5l4 20t6 26q2 6 14 14q10 7 20 7q7 0 7 -6q0 -5 -12 -43t-35 -109q6 8 25 29.5t50 55.5l62 68q7 7 16 7q23 0 23 -23q0 -5 -4 -12
q-56 -92 -56 -146q0 -38 36 -38q26 0 60 29q14 11 24.5 24.5t22.5 29.5q21 29 24 29t3 -6t-6 -17q-68 -113 -141 -113zM119 287q-5 0 -5 4q0 22 14 33t33 11q16 0 34 -8q18 -9 31 -9q19 0 30 20q6 0 6 -4q1 -22 -13 -33t-34 -11q-16 0 -34 8q-19 9 -32 9q-19 0 -30 -20z" />
    <glyph glyph-name="ograve" unicode="&#xf2;" horiz-adv-x="229" 
d="M198 324q-4 0 -19 8.5t-33.5 20t-33 21t-17.5 11.5q-2 2 -5 6t-3 9q0 12 3.5 14t5.5 2t7 -1.5t11 -6.5q49 -36 87 -74q3 -3 3 -6q0 -4 -6 -4zM59 -12q-35 0 -35 41q0 57 50 134q-1 5 -1.5 11t-0.5 11q0 36 24 70t59 34q30 0 40.5 -21t10.5 -47q0 -22 -5 -42
q-5 -21 -15 -47t-25 -55q15 -9 34 -9q17 0 32 4.5t28 17.5t20.5 23t6.5 9q2 2 4 2q4 0 6.5 -5t-1.5 -10q-16 -23 -41.5 -40.5t-55.5 -17.5q-23 0 -40 10q-46 -73 -95 -73zM148 86q13 32 20 55t7 43v8q0 27 -9 50.5t-26 23.5q-23 0 -36 -28q-9 -19 -9 -42v-6q16 19 32 19
q15 0 22 -10q3 -4 3 -7q0 -6 -12 -6q-18 0 -38 -38q14 -39 46 -62zM75 12q13 0 37 24q10 10 17 19t11 17q-34 23 -50 51q-30 -63 -30 -91q0 -20 15 -20z" />
    <glyph glyph-name="oacute" unicode="&#xf3;" horiz-adv-x="229" 
d="M59 -12q-35 0 -35 41q0 57 50 134q-1 5 -1.5 11t-0.5 11q0 36 24 70t59 34q30 0 40.5 -21t10.5 -47q0 -22 -5 -42q-5 -21 -15 -47t-25 -55q15 -9 34 -9q17 0 32 4.5t28 17.5t20.5 23t6.5 9q2 2 4 2q4 0 6.5 -5t-1.5 -10q-16 -23 -41.5 -40.5t-55.5 -17.5q-23 0 -40 10
q-46 -73 -95 -73zM148 86q13 32 20 55t7 43v8q0 27 -9 50.5t-26 23.5q-23 0 -36 -28q-9 -19 -9 -42v-6q16 19 32 19q15 0 22 -10q3 -4 3 -7q0 -6 -12 -6q-18 0 -38 -38q14 -39 46 -62zM75 12q13 0 37 24q10 10 17 19t11 17q-34 23 -50 51q-30 -63 -30 -91q0 -20 15 -20z
M137 324q-6 0 -6 4q0 3 3 6q38 38 87 74q6 5 11 6.5t7 1.5t5.5 -2t3.5 -14q0 -5 -3 -9t-5 -6q-3 -2 -17.5 -11.5t-33 -21t-33.5 -20t-19 -8.5z" />
    <glyph glyph-name="ocircumflex" unicode="&#xf4;" horiz-adv-x="229" 
d="M59 -12q-35 0 -35 41q0 57 50 134q-1 5 -1.5 11t-0.5 11q0 36 24 70t59 34q30 0 40.5 -21t10.5 -47q0 -22 -5 -42q-5 -21 -15 -47t-25 -55q15 -9 34 -9q17 0 32 4.5t28 17.5t20.5 23t6.5 9q2 2 4 2q4 0 6.5 -5t-1.5 -10q-16 -23 -41.5 -40.5t-55.5 -17.5q-23 0 -40 10
q-46 -73 -95 -73zM148 86q13 32 20 55t7 43v8q0 27 -9 50.5t-26 23.5q-23 0 -36 -28q-9 -19 -9 -42v-6q16 19 32 19q15 0 22 -10q3 -4 3 -7q0 -6 -12 -6q-18 0 -38 -38q14 -39 46 -62zM75 12q13 0 37 24q10 10 17 19t11 17q-34 23 -50 51q-30 -63 -30 -91q0 -20 15 -20z
M243 323q-4 0 -16.5 11t-24.5 24t-17 18q-6 -4 -20 -12t-30 -17t-28.5 -15.5t-15.5 -6.5q-6 0 -3 5q1 3 4 6q22 16 37 29.5t46 35.5q8 5 13 7t6 2q3 0 6 -1.5t7 -7.5q12 -17 20.5 -30.5t21.5 -36.5q1 -2 1 -6q-2 -5 -7 -5z" />
    <glyph glyph-name="otilde" unicode="&#xf5;" horiz-adv-x="229" 
d="M59 -12q-35 0 -35 41q0 57 50 134q-1 5 -1.5 11t-0.5 11q0 36 24 70t59 34q30 0 40.5 -21t10.5 -47q0 -22 -5 -42q-5 -21 -15 -47t-25 -55q15 -9 34 -9q17 0 32 4.5t28 17.5t20.5 23t6.5 9q2 2 4 2q4 0 6.5 -5t-1.5 -10q-16 -23 -41.5 -40.5t-55.5 -17.5q-23 0 -40 10
q-46 -73 -95 -73zM148 86q13 32 20 55t7 43v8q0 27 -9 50.5t-26 23.5q-23 0 -36 -28q-9 -19 -9 -42v-6q16 19 32 19q15 0 22 -10q3 -4 3 -7q0 -6 -12 -6q-18 0 -38 -38q14 -39 46 -62zM75 12q13 0 37 24q10 10 17 19t11 17q-34 23 -50 51q-30 -63 -30 -91q0 -20 15 -20z
M105 331q-5 0 -5 4q0 22 14 33t33 11q16 0 34 -8q18 -9 31 -9q19 0 30 20q6 0 6 -4q1 -22 -13 -33t-34 -11q-16 0 -34 8q-19 9 -32 9q-19 0 -30 -20z" />
    <glyph glyph-name="odieresis" unicode="&#xf6;" horiz-adv-x="229" 
d="M59 -12q-35 0 -35 41q0 57 50 134q-1 5 -1.5 11t-0.5 11q0 36 24 70t59 34q30 0 40.5 -21t10.5 -47q0 -22 -5 -42q-5 -21 -15 -47t-25 -55q15 -9 34 -9q17 0 32 4.5t28 17.5t20.5 23t6.5 9q2 2 4 2q4 0 6.5 -5t-1.5 -10q-16 -23 -41.5 -40.5t-55.5 -17.5q-23 0 -40 10
q-46 -73 -95 -73zM148 86q13 32 20 55t7 43v8q0 27 -9 50.5t-26 23.5q-23 0 -36 -28q-9 -19 -9 -42v-6q16 19 32 19q15 0 22 -10q3 -4 3 -7q0 -6 -12 -6q-18 0 -38 -38q14 -39 46 -62zM75 12q13 0 37 24q10 10 17 19t11 17q-34 23 -50 51q-30 -63 -30 -91q0 -20 15 -20z
M221 324q-26 0 -26 21q0 11 9 22t22 11q11 0 17.5 -7t6.5 -17q0 -11 -8.5 -20.5t-20.5 -9.5zM120 324q-26 0 -26 21q0 11 9 22t22 11q11 0 17.5 -7t6.5 -17q0 -11 -8.5 -20.5t-20.5 -9.5z" />
    <glyph glyph-name="divide" unicode="&#xf7;" horiz-adv-x="228" 
d="M134 154q-26 0 -26 21q0 11 9 22t22 11q11 0 17.5 -7t6.5 -17q0 -11 -8.5 -20.5t-20.5 -9.5zM38 85q-20 0 -20 7q0 13 35 25q17 6 45 6q17 0 40.5 -1.5t52.5 -6.5q15 -2 20.5 -4.5t5.5 -5.5q0 -6 -26 -8q-4 0 -22 -0.5t-32 -2.5q-16 -1 -39 -5t-55 -4h-5zM94 -10
q-26 0 -26 21q0 11 9 22t22 11q11 0 17.5 -7t6.5 -17q0 -11 -8.5 -20.5t-20.5 -9.5z" />
    <glyph glyph-name="oslash" unicode="&#xf8;" horiz-adv-x="229" 
d="M63 -62q-1 -4 -5 -3.5t-5 4.5q2 13 4.5 25t5.5 24h-4q-35 0 -35 41q0 57 50 134q-1 5 -1.5 11t-0.5 11q0 36 24 70t59 34q21 0 34 -13q11 21 24 42q2 2 4 2q6 0 4 -8q-7 -10 -13.5 -21.5t-12.5 -22.5q6 -10 8.5 -22t2.5 -25q0 -22 -5 -42q-5 -21 -15 -47t-25 -55
q15 -9 34 -9q17 0 32 4.5t28 17.5t20.5 23t6.5 9q2 2 4 2q4 0 6.5 -5t-1.5 -10q-16 -23 -41.5 -40.5t-55.5 -17.5q-23 0 -40 10q-38 -62 -80 -71q-4 -13 -6.5 -25.5t-4.5 -26.5zM95 190q16 19 32 19q15 0 22 -10q0 -1 0.5 -1.5l0.5 -0.5l19 38q-4 14 -11.5 22.5t-17.5 8.5
q-23 0 -36 -28q-9 -19 -9 -42v-6zM82 13q11 4 30 23q10 10 17 19.5t11 16.5q19 32 27 64t8 48v8q0 16 -3 29l-36 -80q-20 -45 -31.5 -71t-22.5 -57zM71 12q11 35 25.5 66t30.5 68l18 40h-5q-20 0 -38 -38l-12 -25q-30 -63 -30 -91q0 -19 11 -20z" />
    <glyph glyph-name="ugrave" unicode="&#xf9;" horiz-adv-x="313" 
d="M221 262q-4 0 -19 8.5t-33.5 20t-33 21t-17.5 11.5q-2 2 -5 6t-3 9q0 12 3.5 14t5.5 2t7 -1.5t11 -6.5q49 -36 87 -74q3 -3 3 -6q0 -4 -6 -4zM218 -17q-56 0 -56 70q0 17 15 63q-34 -51 -45 -63q-33 -39 -59 -39q-33 0 -33 56q0 32 21 77q24 52 50 52q15 0 15 -8
q0 -1 -5 -10t-20 -35q-26 -46 -26 -69q0 -32 19 -32q15 0 45 36t70 110l21 39q8 8 15 8q9 0 16 -7q8 -8 8 -18q0 1 -9.5 -18t-25.5 -49q-36 -67 -36 -105q0 -35 33 -35q27 0 64 32q24 21 54 60q11 14 18.5 23t8.5 9q3 0 3 -6t-6 -17q-29 -47 -65 -80q-49 -44 -90 -44z" />
    <glyph glyph-name="uacute" unicode="&#xfa;" horiz-adv-x="313" 
d="M218 -17q-56 0 -56 70q0 17 15 63q-34 -51 -45 -63q-33 -39 -59 -39q-33 0 -33 56q0 32 21 77q24 52 50 52q15 0 15 -8q0 -1 -5 -10t-20 -35q-26 -46 -26 -69q0 -32 19 -32q15 0 45 36t70 110l21 39q8 8 15 8q9 0 16 -7q8 -8 8 -18q0 1 -9.5 -18t-25.5 -49
q-36 -67 -36 -105q0 -35 33 -35q27 0 64 32q24 21 54 60q11 14 18.5 23t8.5 9q3 0 3 -6t-6 -17q-29 -47 -65 -80q-49 -44 -90 -44zM160 262q-6 0 -6 4q0 3 3 6q38 38 87 74q6 5 11 6.5t7 1.5t5.5 -2t3.5 -14q0 -5 -3 -9t-5 -6q-3 -2 -17.5 -11.5t-33 -21t-33.5 -20t-19 -8.5
z" />
    <glyph glyph-name="ucircumflex" unicode="&#xfb;" horiz-adv-x="313" 
d="M218 -17q-56 0 -56 70q0 17 15 63q-34 -51 -45 -63q-33 -39 -59 -39q-33 0 -33 56q0 32 21 77q24 52 50 52q15 0 15 -8q0 -1 -5 -10t-20 -35q-26 -46 -26 -69q0 -32 19 -32q15 0 45 36t70 110l21 39q8 8 15 8q9 0 16 -7q8 -8 8 -18q0 1 -9.5 -18t-25.5 -49
q-36 -67 -36 -105q0 -35 33 -35q27 0 64 32q24 21 54 60q11 14 18.5 23t8.5 9q3 0 3 -6t-6 -17q-29 -47 -65 -80q-49 -44 -90 -44zM266 261q-4 0 -16.5 11t-24.5 24t-17 18q-6 -4 -20 -12t-30 -17t-28.5 -15.5t-15.5 -6.5q-6 0 -3 5q1 3 4 6q22 16 37 29.5t46 35.5q8 5 13 7
t6 2q3 0 6 -1.5t7 -7.5q12 -17 20.5 -30.5t21.5 -36.5q1 -2 1 -6q-2 -5 -7 -5z" />
    <glyph glyph-name="udieresis" unicode="&#xfc;" horiz-adv-x="313" 
d="M218 -17q-56 0 -56 70q0 17 15 63q-34 -51 -45 -63q-33 -39 -59 -39q-33 0 -33 56q0 32 21 77q24 52 50 52q15 0 15 -8q0 -1 -5 -10t-20 -35q-26 -46 -26 -69q0 -32 19 -32q15 0 45 36t70 110l21 39q8 8 15 8q9 0 16 -7q8 -8 8 -18q0 1 -9.5 -18t-25.5 -49
q-36 -67 -36 -105q0 -35 33 -35q27 0 64 32q24 21 54 60q11 14 18.5 23t8.5 9q3 0 3 -6t-6 -17q-29 -47 -65 -80q-49 -44 -90 -44zM244 262q-26 0 -26 21q0 11 9 22t22 11q11 0 17.5 -7t6.5 -17q0 -11 -8.5 -20.5t-20.5 -9.5zM143 262q-26 0 -26 21q0 11 9 22t22 11
q11 0 17.5 -7t6.5 -17q0 -11 -8.5 -20.5t-20.5 -9.5z" />
    <glyph glyph-name="yacute" unicode="&#xfd;" horiz-adv-x="274" 
d="M-100 -406q-49 0 -80 28q-33 29 -33 75q0 106 153 205q130 83 249 102q7 31 15 77t17 107q-6 -14 -17 -34t-26 -42q-17 -26 -29 -42.5t-24 -28.5q-25 -27 -49 -27q-32 0 -32 56q0 31 20 77q22 52 51 52q14 0 14 -8q0 -1 -5 -10t-20 -35q-25 -44 -25 -69q0 -32 18 -32
q32 0 135 201q2 15 25 15q18 0 18 -8q0 -7 -3 -28t-10 -57q-9 -50 -16 -85.5t-17 -77.5h4q53 0 53 -27q0 -6 -3 -6q-1 0 -9 5l-11 5.5t-18 3.5h-9.5t-9.5 -1q-37 -148 -95 -233q-108 -158 -231 -158zM-95 -392q62 0 121 52q47 40 85 105q53 91 77 221q-65 -10 -157 -57
q-93 -47 -139 -92q-76 -72 -76 -143q0 -39 24 -62q26 -24 65 -24zM158 289q-6 0 -6 4q0 3 3 6q38 38 87 74q6 5 11 6.5t7 1.5t5.5 -2t3.5 -14q0 -5 -3 -9t-5 -6q-3 -2 -17.5 -11.5t-33 -21t-33.5 -20t-19 -8.5z" />
    <glyph glyph-name="thorn" unicode="&#xfe;" horiz-adv-x="272" 
d="M-81 -257q-21 0 -21 31q0 20 18.5 58.5t56.5 93.5q26 37 54 74t54 73l22 160q-2 -1 -7 -1h-7q-12 0 -21 3t-14 4q-5 3 -5 4q0 6 6 4t14.5 -4t18.5 -2q5 0 10 0.5t9 1.5l2 10q4 18 13 49.5t23.5 65.5t36 60t49.5 33q3 1 7 1h7q14 0 24 -7t12 -20q1 -4 1.5 -9t0.5 -10
q0 -10 -2 -21t-9 -25q-22 -46 -56.5 -79t-78.5 -50q-5 -26 -8.5 -45.5t-6 -40.5t-6.5 -50q14 26 27 44t26 34q44 53 72 53q26 0 26 -38q0 -25 -8.5 -53.5t-25.5 -60.5q-16 -31 -36 -55t-40 -36q35 0 78 31q34 24 62 55l27 30q2 0 2 -5q0 -7 -4 -14q-10 -18 -29 -36.5
t-43 -35.5q-54 -39 -90 -39h-44q-5 0 -25 6q-13 -34 -30.5 -68t-40.5 -72q-61 -102 -101 -102zM141 253q41 18 70.5 51.5t50.5 79.5q9 20 9 36q0 8 -1 11q-6 23 -23 23q-6 0 -9 -1q-25 -7 -41 -41q-16 -31 -32.5 -75t-23.5 -84zM135 -3q36 16 67 80q29 60 29 103
q0 26 -14 26q-30 0 -69 -74q-15 -28 -25 -52.5t-18 -50.5q8 -13 30 -32zM-67 -227q37 0 100 119q9 17 18 44.5t19 65.5q-2 4 -2 8q0 10 5 18q-1 1 -15.5 -18.5t-55.5 -76.5q-8 -11 -19.5 -31t-24.5 -45q-30 -58 -30 -77q0 -7 5 -7z" />
    <glyph glyph-name="ydieresis" unicode="&#xff;" horiz-adv-x="274" 
d="M-100 -406q-49 0 -80 28q-33 29 -33 75q0 106 153 205q130 83 249 102q7 31 15 77t17 107q-6 -14 -17 -34t-26 -42q-17 -26 -29 -42.5t-24 -28.5q-25 -27 -49 -27q-32 0 -32 56q0 31 20 77q22 52 51 52q14 0 14 -8q0 -1 -5 -10t-20 -35q-25 -44 -25 -69q0 -32 18 -32
q32 0 135 201q2 15 25 15q18 0 18 -8q0 -7 -3 -28t-10 -57q-9 -50 -16 -85.5t-17 -77.5h4q53 0 53 -27q0 -6 -3 -6q-1 0 -9 5l-11 5.5t-18 3.5h-9.5t-9.5 -1q-37 -148 -95 -233q-108 -158 -231 -158zM-95 -392q62 0 121 52q47 40 85 105q53 91 77 221q-65 -10 -157 -57
q-93 -47 -139 -92q-76 -72 -76 -143q0 -39 24 -62q26 -24 65 -24zM242 289q-26 0 -26 21q0 11 9 22t22 11q11 0 17.5 -7t6.5 -17q0 -11 -8.5 -20.5t-20.5 -9.5zM141 289q-26 0 -26 21q0 11 9 22t22 11q11 0 17.5 -7t6.5 -17q0 -11 -8.5 -20.5t-20.5 -9.5z" />
    <glyph glyph-name="Amacron" unicode="&#x100;" horiz-adv-x="750" 
d="M140 -56q-54 0 -87 24q-39 27 -39 78q0 58 49 107q43 43 104 60q50 14 130 21t189 6q28 33 46 54.5t31 37.5t25.5 31.5t28.5 37.5l56 75q5 5 9 5q13 0 13 -12q0 -1 -2 -7l-62 -83q-6 -8 -20 -26t-30 -40t-31.5 -42t-24.5 -32q25 -1 49.5 -5t48.5 -9q28 126 72 238
q7 17 16 37.5t24 50.5q3 7 27 21q23 14 31 14q9 0 9 -9q0 -3 -5 -11q-86 -143 -141 -350q45 -13 45 -26q0 -10 -11 -10q-1 0 -7 2.5t-11 3.5q-8 4 -14 5.5t-8 2.5q-14 -60 -21.5 -107.5t-7.5 -82.5q0 -34 10 -34q9 0 24 12q16 13 19 13q9 0 9 -11t-19 -22q-19 -12 -33 -12
q-38 0 -38 63q0 32 6 79t19 108q-25 4 -54.5 5.5t-63.5 2.5q-15 -19 -34 -41t-45 -49q-33 -36 -55 -58t-37.5 -35.5t-30.5 -24.5q-75 -56 -158 -56zM128 -17q75 0 149 50q23 16 53.5 43.5t65.5 64.5q13 14 28 29.5t34 37.5h-28q-86 0 -151 -5.5t-109 -17.5q-25 -7 -47.5 -20
t-39.5 -29q-42 -40 -42 -88q0 -31 28 -50q24 -15 59 -15zM790 641h-36.5t-29.5 3q-6 2 -6 8q0 7 4 11q3 3 7.5 3.5t8.5 0.5q27 0 52.5 -0.5t49.5 -2.5q10 -1 24 -3.5t14 -5.5q0 -10 -16 -11q-5 0 -19 -1t-29 -1.5t-24 -0.5z" />
    <glyph glyph-name="amacron" unicode="&#x101;" horiz-adv-x="291" 
d="M49 -3q-31 0 -31 34q0 51 50 125q49 73 97 90q9 3 17 5t16 2q36 0 52 -25q3 -4 3 -7q0 -2 -7 -3q-6 -1 -10 -7q-24 -39 -24 -117q0 -72 31 -72q21 0 61 44q6 6 17 21t22 30.5t15 20.5q3 3 5 3q4 0 4 -7q0 -5 -6 -14q-22 -35 -50 -68t-48 -43q-18 -9 -36 -9q-61 0 -61 86
q0 7 0.5 14.5t1.5 15.5q-68 -119 -119 -119zM66 27q11 0 26 12.5t31 33.5q24 32 45 68t37 78q-3 1 -9 1q-41 0 -83 -51q-61 -73 -61 -121q0 -21 14 -21zM214 312h-36.5t-29.5 3q-6 2 -6 7t4 9q3 3 7.5 3.5t8.5 0.5q29 0 48.5 -0.5t43.5 -2.5q10 -1 24 -4t14 -6q0 -6 -16 -7
q-7 -1 -27.5 -2t-34.5 -1z" />
    <glyph glyph-name="Abreve" unicode="&#x102;" horiz-adv-x="750" 
d="M140 -56q-54 0 -87 24q-39 27 -39 78q0 58 49 107q43 43 104 60q50 14 130 21t189 6q28 33 46 54.5t31 37.5t25.5 31.5t28.5 37.5l56 75q5 5 9 5q13 0 13 -12q0 -1 -2 -7l-62 -83q-6 -8 -20 -26t-30 -40t-31.5 -42t-24.5 -32q25 -1 49.5 -5t48.5 -9q28 126 72 238
q7 17 16 37.5t24 50.5q3 7 27 21q23 14 31 14q9 0 9 -9q0 -3 -5 -11q-86 -143 -141 -350q45 -13 45 -26q0 -10 -11 -10q-1 0 -7 2.5t-11 3.5q-8 4 -14 5.5t-8 2.5q-14 -60 -21.5 -107.5t-7.5 -82.5q0 -34 10 -34q9 0 24 12q16 13 19 13q9 0 9 -11t-19 -22q-19 -12 -33 -12
q-38 0 -38 63q0 32 6 79t19 108q-25 4 -54.5 5.5t-63.5 2.5q-15 -19 -34 -41t-45 -49q-33 -36 -55 -58t-37.5 -35.5t-30.5 -24.5q-75 -56 -158 -56zM128 -17q75 0 149 50q23 16 53.5 43.5t65.5 64.5q13 14 28 29.5t34 37.5h-28q-86 0 -151 -5.5t-109 -17.5q-25 -7 -47.5 -20
t-39.5 -29q-42 -40 -42 -88q0 -31 28 -50q24 -15 59 -15zM795 624q-31 0 -46 21t-15 43q0 14 4.5 20.5t8.5 6.5q10 0 10 -9q0 -18 10 -32.5t35 -14.5q20 0 43 9.5t44 40.5q3 3 7 3q7 0 5 -9q-14 -36 -42 -57.5t-64 -21.5z" />
    <glyph glyph-name="abreve" unicode="&#x103;" horiz-adv-x="291" 
d="M49 -3q-31 0 -31 34q0 51 50 125q49 73 97 90q9 3 17 5t16 2q36 0 52 -25q3 -4 3 -7q0 -2 -7 -3q-6 -1 -10 -7q-24 -39 -24 -117q0 -72 31 -72q21 0 61 44q6 6 17 21t22 30.5t15 20.5q3 3 5 3q4 0 4 -7q0 -5 -6 -14q-22 -35 -50 -68t-48 -43q-18 -9 -36 -9q-61 0 -61 86
q0 7 0.5 14.5t1.5 15.5q-68 -119 -119 -119zM66 27q11 0 26 12.5t31 33.5q24 32 45 68t37 78q-3 1 -9 1q-41 0 -83 -51q-61 -73 -61 -121q0 -21 14 -21zM208 293q-28 0 -39.5 13.5t-11.5 30.5q0 18 5.5 26t9.5 8q7 0 7 -14q0 -19 6 -27t28 -8q27 0 45.5 10t32.5 36q4 6 9 6
q9 0 4 -9q-9 -25 -33.5 -48.5t-62.5 -23.5z" />
    <glyph glyph-name="Aogonek" unicode="&#x104;" horiz-adv-x="750" 
d="M140 -56q-54 0 -87 24q-39 27 -39 78q0 58 49 107q43 43 104 60q50 14 130 21t189 6q28 33 46 54.5t31 37.5t25.5 31.5t28.5 37.5l56 75q5 5 9 5q13 0 13 -12q0 -1 -2 -7l-62 -83q-6 -8 -20 -26t-30 -40t-31.5 -42t-24.5 -32q25 -1 49.5 -5t48.5 -9q28 126 72 238
q7 17 16 37.5t24 50.5q3 7 27 21q23 14 31 14q9 0 9 -9q0 -3 -5 -11q-86 -143 -141 -350q45 -13 45 -26q0 -10 -11 -10q-1 0 -7 2.5t-11 3.5q-8 4 -14 5.5t-8 2.5q-14 -60 -21.5 -107.5t-7.5 -82.5q0 -34 10 -34q9 0 24 12q16 13 19 13q9 0 9 -11t-19 -22q-19 -12 -33 -12
q-38 0 -38 63q0 32 6 79t19 108q-25 4 -54.5 5.5t-63.5 2.5q-15 -19 -34 -41t-45 -49q-33 -36 -55 -58t-37.5 -35.5t-30.5 -24.5q-75 -56 -158 -56zM128 -17q75 0 149 50q23 16 53.5 43.5t65.5 64.5q13 14 28 29.5t34 37.5h-28q-86 0 -151 -5.5t-109 -17.5q-25 -7 -47.5 -20
t-39.5 -29q-42 -40 -42 -88q0 -31 28 -50q24 -15 59 -15zM610 -190q-15 -5 -25 -5q-16 0 -27 11t-11 31v6.5t1 7.5q2 11 10.5 27t18.5 29q17 22 26.5 30t19.5 15q4 2 6 2q5 0 8.5 -2t2.5 -4q-9 -7 -18 -18t-24 -31q-10 -12 -15 -26t-5 -25q0 -10 4 -15q7 -9 25 -9
q8 0 19 4.5t24 17.5q1 1 1.5 1h0.5q3 0 5 -3.5t0 -5.5q-11 -13 -24 -23.5t-23 -14.5z" />
    <glyph glyph-name="aogonek" unicode="&#x105;" horiz-adv-x="291" 
d="M49 -3q-31 0 -31 34q0 51 50 125q49 73 97 90q9 3 17 5t16 2q36 0 52 -25q3 -4 3 -7q0 -2 -7 -3q-6 -1 -10 -7q-24 -39 -24 -117q0 -72 31 -72q21 0 61 44q6 6 17 21t22 30.5t15 20.5q3 3 5 3q4 0 4 -7q0 -5 -6 -14q-22 -35 -50 -68t-48 -43q-18 -9 -36 -9q-61 0 -61 86
q0 7 0.5 14.5t1.5 15.5q-68 -119 -119 -119zM66 27q11 0 26 12.5t31 33.5q24 32 45 68t37 78q-3 1 -9 1q-41 0 -83 -51q-61 -73 -61 -121q0 -21 14 -21zM222 -140q-15 -5 -25 -5q-16 0 -27 11t-11 31v6.5t1 7.5q2 11 10.5 27t18.5 29q17 22 26.5 30t19.5 15q4 2 6 2
q5 0 8.5 -2t2.5 -4q-9 -7 -18 -18t-24 -31q-10 -12 -15 -26t-5 -25q0 -10 4 -15q7 -9 25 -9q8 0 19 4.5t24 17.5q1 1 1.5 1h0.5q3 0 5 -3.5t0 -5.5q-11 -13 -24 -23.5t-23 -14.5z" />
    <glyph glyph-name="Cacute" unicode="&#x106;" horiz-adv-x="568" 
d="M220 -42q-73 0 -118 30q-53 35 -53 104q0 55 25 109t65.5 103t88.5 89.5t93 68.5q136 83 266 83q113 0 113 -78q0 -68 -75 -125q-72 -55 -141 -55q-73 0 -73 56q0 40 18 40q7 0 7 -9v-3.5t-1 -5.5t-1 -5v-4q0 -39 51 -39q53 0 120 51t67 101q0 49 -83 49q-8 0 -16.5 -0.5
t-16.5 -1.5q-87 -9 -196 -72q-44 -25 -89.5 -60.5t-83.5 -78.5t-61.5 -92t-23.5 -102q0 -28 9.5 -53t28.5 -40q32 -26 89 -26q181 0 352 144q4 4 8 4h6.5t0.5 -7q0 -5 -4 -9q-39 -36 -82 -63.5t-91 -50.5q-108 -52 -199 -52zM565 574q-5 0 -5 4q0 3 3 6q21 18 55 41.5
t61 40.5q6 4 11 5t7 1t5 -3.5t3 -14.5q0 -6 -3.5 -11t-5.5 -7q-3 -2 -22 -11.5t-42.5 -21.5t-43 -20.5t-23.5 -8.5z" />
    <glyph glyph-name="cacute" unicode="&#x107;" horiz-adv-x="220" 
d="M108 -8q-75 0 -75 80q0 26 15 54t42 57q56 59 103 59q32 0 32 -25q0 -9 -14 -34q-15 -25 -24 -25q-4 0 -4 5q0 4 3 13q4 8 4 14q0 21 -26 21q-11 0 -28 -11.5t-31 -34.5q-26 -43 -26 -79q0 -61 52 -61q22 0 48.5 13t51 33.5t37.5 42.5q8 12 13 12q4 0 4 -3v-4
q0 -2 -0.5 -5t-2.5 -5q-15 -22 -36 -44.5t-56 -45.5q-18 -12 -39.5 -19.5t-42.5 -7.5zM155 280q-6 0 -6 4q0 3 3 6q38 38 87 74q6 5 11 6.5t7 1.5t5.5 -2t3.5 -14q0 -5 -3 -9t-5 -6q-3 -2 -17.5 -11.5t-33 -21t-33.5 -20t-19 -8.5z" />
    <glyph glyph-name="Ccircumflex" unicode="&#x108;" horiz-adv-x="568" 
d="M220 -42q-73 0 -118 30q-53 35 -53 104q0 55 25 109t65.5 103t88.5 89.5t93 68.5q136 83 266 83q113 0 113 -78q0 -68 -75 -125q-72 -55 -141 -55q-73 0 -73 56q0 40 18 40q7 0 7 -9v-3.5t-1 -5.5t-1 -5v-4q0 -39 51 -39q53 0 120 51t67 101q0 49 -83 49q-8 0 -16.5 -0.5
t-16.5 -1.5q-87 -9 -196 -72q-44 -25 -89.5 -60.5t-83.5 -78.5t-61.5 -92t-23.5 -102q0 -28 9.5 -53t28.5 -40q32 -26 89 -26q181 0 352 144q4 4 8 4h6.5t0.5 -7q0 -5 -4 -9q-39 -36 -82 -63.5t-91 -50.5q-108 -52 -199 -52zM507 577q-6 0 -6 5t7 10q29 20 54 37t55 36
q17 11 23 11q8 0 13 -10q11 -19 19 -35.5t15 -32.5q4 -9 4 -15q0 -8 -8 -8q-4 0 -8.5 4t-9.5 9q-11 13 -23.5 27t-18.5 20q-9 -5 -27 -14.5t-37 -19.5t-34 -17t-18 -7z" />
    <glyph glyph-name="ccircumflex" unicode="&#x109;" horiz-adv-x="220" 
d="M108 -8q-75 0 -75 80q0 26 15 54t42 57q56 59 103 59q32 0 32 -25q0 -9 -14 -34q-15 -25 -24 -25q-4 0 -4 5q0 4 3 13q4 8 4 14q0 21 -26 21q-11 0 -28 -11.5t-31 -34.5q-26 -43 -26 -79q0 -61 52 -61q22 0 48.5 13t51 33.5t37.5 42.5q8 12 13 12q4 0 4 -3v-4
q0 -2 -0.5 -5t-2.5 -5q-15 -22 -36 -44.5t-56 -45.5q-18 -12 -39.5 -19.5t-42.5 -7.5zM261 279q-4 0 -16.5 11t-24.5 24t-17 18q-6 -4 -20 -12t-30 -17t-28.5 -15.5t-15.5 -6.5q-6 0 -3 5q1 3 4 6q22 16 37 29.5t46 35.5q8 5 13 7t6 2q3 0 6 -1.5t7 -7.5q12 -17 20.5 -30.5
t21.5 -36.5q1 -2 1 -6q-2 -5 -7 -5z" />
    <glyph glyph-name="Cdotaccent" unicode="&#x10a;" horiz-adv-x="568" 
d="M220 -42q-73 0 -118 30q-53 35 -53 104q0 55 25 109t65.5 103t88.5 89.5t93 68.5q136 83 266 83q113 0 113 -78q0 -68 -75 -125q-72 -55 -141 -55q-73 0 -73 56q0 40 18 40q7 0 7 -9v-3.5t-1 -5.5t-1 -5v-4q0 -39 51 -39q53 0 120 51t67 101q0 49 -83 49q-8 0 -16.5 -0.5
t-16.5 -1.5q-87 -9 -196 -72q-44 -25 -89.5 -60.5t-83.5 -78.5t-61.5 -92t-23.5 -102q0 -28 9.5 -53t28.5 -40q32 -26 89 -26q181 0 352 144q4 4 8 4h6.5t0.5 -7q0 -5 -4 -9q-39 -36 -82 -63.5t-91 -50.5q-108 -52 -199 -52zM610 575q-26 0 -26 21q0 11 9 22t22 11
q11 0 17.5 -7t6.5 -17q0 -11 -8.5 -20.5t-20.5 -9.5z" />
    <glyph glyph-name="cdotaccent" unicode="&#x10b;" horiz-adv-x="220" 
d="M108 -8q-75 0 -75 80q0 26 15 54t42 57q56 59 103 59q32 0 32 -25q0 -9 -14 -34q-15 -25 -24 -25q-4 0 -4 5q0 4 3 13q4 8 4 14q0 21 -26 21q-11 0 -28 -11.5t-31 -34.5q-26 -43 -26 -79q0 -61 52 -61q22 0 48.5 13t51 33.5t37.5 42.5q8 12 13 12q4 0 4 -3v-4
q0 -2 -0.5 -5t-2.5 -5q-15 -22 -36 -44.5t-56 -45.5q-18 -12 -39.5 -19.5t-42.5 -7.5zM196 280q-26 0 -26 21q0 11 9 22t22 11q11 0 17.5 -7t6.5 -17q0 -11 -8.5 -20.5t-20.5 -9.5z" />
    <glyph glyph-name="Ccaron" unicode="&#x10c;" horiz-adv-x="568" 
d="M727 674q6 0 6 -5t-7 -10q-29 -20 -54 -36.5t-55 -36.5q-16 -11 -23 -11q-8 0 -13 10q-10 20 -18.5 36t-15.5 32q-4 9 -4 15q0 8 8 8q4 0 9 -4t9 -9q11 -13 23.5 -27t18.5 -20q9 5 27 14.5t37 19.5t34 17t18 7zM220 -42q-73 0 -118 30q-53 35 -53 104q0 55 25 109
t65.5 103t88.5 89.5t93 68.5q136 83 266 83q113 0 113 -78q0 -68 -75 -125q-72 -55 -141 -55q-73 0 -73 56q0 40 18 40q7 0 7 -9v-3.5t-1 -5.5t-1 -5v-4q0 -39 51 -39q53 0 120 51t67 101q0 49 -83 49q-8 0 -16.5 -0.5t-16.5 -1.5q-87 -9 -196 -72q-44 -25 -89.5 -60.5
t-83.5 -78.5t-61.5 -92t-23.5 -102q0 -28 9.5 -53t28.5 -40q32 -26 89 -26q181 0 352 144q4 4 8 4h6.5t0.5 -7q0 -5 -4 -9q-39 -36 -82 -63.5t-91 -50.5q-108 -52 -199 -52z" />
    <glyph glyph-name="ccaron" unicode="&#x10d;" horiz-adv-x="220" 
d="M137 366q5 0 17 -11t24.5 -24t16.5 -18q6 4 20 12t30 17t28.5 15.5t15.5 6.5q6 0 3 -5q-1 -3 -4 -6q-22 -16 -37 -29.5t-46 -35.5q-7 -5 -12 -7t-7 -2q-3 0 -5.5 1.5t-7.5 7.5q-12 17 -20 31t-22 36q-1 2 -1 6q2 5 7 5zM108 -8q-75 0 -75 80q0 26 15 54t42 57
q56 59 103 59q32 0 32 -25q0 -9 -14 -34q-15 -25 -24 -25q-4 0 -4 5q0 4 3 13q4 8 4 14q0 21 -26 21q-11 0 -28 -11.5t-31 -34.5q-26 -43 -26 -79q0 -61 52 -61q22 0 48.5 13t51 33.5t37.5 42.5q8 12 13 12q4 0 4 -3v-4q0 -2 -0.5 -5t-2.5 -5q-15 -22 -36 -44.5t-56 -45.5
q-18 -12 -39.5 -19.5t-42.5 -7.5z" />
    <glyph glyph-name="Dcaron" unicode="&#x10e;" horiz-adv-x="786" 
d="M737 674q6 0 6 -5t-7 -10q-29 -20 -54 -36.5t-55 -36.5q-16 -11 -23 -11q-8 0 -13 10q-10 20 -18.5 36t-15.5 32q-4 9 -4 15q0 8 8 8q4 0 9 -4t9 -9q11 -13 23.5 -27t18.5 -20q9 5 27 14.5t37 19.5t34 17t18 7zM244 -58q-19 0 -39 1t-40 4q-44 7 -81.5 21.5t-60.5 37.5
t-23 54q0 47 27.5 79t71 50t90.5 21q14 33 33 73t40 80.5t40 74t32 52.5q15 22 51 22q14 0 14 -8q0 -5 -11 -18q-43 -58 -84 -127t-81 -149q270 -6 367 -135q44 31 79.5 70t56.5 84t21 92q0 57 -30.5 98.5t-82 68t-114 39t-125.5 12.5q-169 0 -300 -74q-7 -4 -13 -4
q-13 0 -13 15q0 23 31 39q32 17 82.5 28.5t104 17t93.5 5.5q75 0 147.5 -15t130.5 -45.5t93 -77.5t35 -112q0 -54 -24.5 -104.5t-64.5 -93t-88 -74.5q4 -8 4 -14q0 -14 -10 -14q-4 0 -14 16q-150 -90 -345 -90zM230 -35q189 0 338 95q-24 30 -63.5 53.5t-86.5 39.5t-94 24.5
t-87 8.5h-13t-13 -1q-60 -127 -60 -171q0 -4 1.5 -8t1.5 -8q0 -13 -12 -13q-16 0 -16 27q0 45 51 169q-133 -22 -133 -123q0 -39 40 -61t93 -30q14 -1 27 -1.5t26 -0.5z" />
    <glyph glyph-name="dcaron" unicode="&#x10f;" horiz-adv-x="288" 
d="M47 0q-31 0 -31 34q0 62 63 143q33 43 65 64.5t63 18.5q17 58 35 108t39 93q68 140 133 140q42 0 42 -48q0 -105 -239 -386q-6 -34 -6 -66q0 -76 32 -76q21 0 61 48q40 49 44 49q3 0 3 -5q0 -6 -5 -14q-62 -101 -122 -101q-52 0 -52 79q0 25 6 58q-78 -139 -131 -139z
M223 196q194 263 194 355q0 22 -18 22q-50 0 -111 -163q-41 -108 -65 -214zM64 31q23 0 57 45q7 8 17.5 25.5t25.5 43.5q17 29 24.5 46t7.5 22q0 2 -0.5 2t-1.5 1q-1 3 -11 3q-40 0 -87 -62t-47 -104q0 -22 15 -22zM485 468q-1 0 -1 0.5v0.5q0 5 5 10q7 8 12.5 20.5
t17.5 52.5q-8 0 -12 6.5t-4 15.5q0 11 7 19t19 8q13 0 18 -7t5 -18q0 -10 -6 -27.5t-16 -36t-22 -31.5t-23 -13z" />
    <glyph glyph-name="Dcroat" unicode="&#x110;" horiz-adv-x="786" 
d="M244 -58q-19 0 -39 1t-40 4q-44 7 -81.5 21.5t-60.5 37.5t-23 54q0 47 27.5 79t71 50t90.5 21q14 33 33 73t40 80.5t40 74t32 52.5q15 22 51 22q14 0 14 -8q0 -5 -11 -18q-43 -58 -84 -127t-81 -149q270 -6 367 -135q44 31 79.5 70t56.5 84t21 92q0 57 -30.5 98.5t-82 68
t-114 39t-125.5 12.5q-169 0 -300 -74q-7 -4 -13 -4q-13 0 -13 15q0 23 31 39q32 17 82.5 28.5t104 17t93.5 5.5q75 0 147.5 -15t130.5 -45.5t93 -77.5t35 -112q0 -54 -24.5 -104.5t-64.5 -93t-88 -74.5q4 -8 4 -14q0 -14 -10 -14q-4 0 -14 16q-150 -90 -345 -90zM230 -35
q189 0 338 95q-24 30 -63.5 53.5t-86.5 39.5t-94 24.5t-87 8.5h-13t-13 -1q-60 -127 -60 -171q0 -4 1.5 -8t1.5 -8q0 -13 -12 -13q-16 0 -16 27q0 45 51 169q-133 -22 -133 -123q0 -39 40 -61t93 -30q14 -1 27 -1.5t26 -0.5zM275 263h-38q-22 0 -43.5 0.5t-29.5 2.5
q-8 1 -8 7q0 4 5 9q5 4 13 6t16 3q13 1 29 1.5t32 0.5q23 0 46.5 -1t39.5 -4q14 -2 19 -4.5t5 -5.5q0 -4 -4.5 -7.5t-15.5 -4.5q-9 -1 -29 -2t-37 -1z" />
    <glyph glyph-name="dcroat" unicode="&#x111;" horiz-adv-x="288" 
d="M47 0q-31 0 -31 34q0 62 63 143q33 43 65 64.5t63 18.5q17 58 35 108t39 93q68 140 133 140q42 0 42 -48q0 -105 -239 -386q-6 -34 -6 -66q0 -76 32 -76q21 0 61 48q40 49 44 49q3 0 3 -5q0 -6 -5 -14q-62 -101 -122 -101q-52 0 -52 79q0 25 6 58q-78 -139 -131 -139z
M223 196q194 263 194 355q0 22 -18 22q-50 0 -111 -163q-41 -108 -65 -214zM64 31q23 0 57 45q7 8 17.5 25.5t25.5 43.5q17 29 24.5 46t7.5 22q0 2 -0.5 2t-1.5 1q-1 3 -11 3q-40 0 -87 -62t-47 -104q0 -22 15 -22zM284 380h-38q-22 0 -43.5 0.5t-29.5 2.5q-8 1 -8 7
q0 4 5 9q5 4 13 6t16 3q13 1 29 1.5t32 0.5q23 0 46.5 -1t39.5 -4q14 -2 19 -4.5t5 -5.5q0 -4 -4.5 -7.5t-15.5 -4.5q-9 -1 -29 -2t-37 -1z" />
    <glyph glyph-name="Emacron" unicode="&#x112;" horiz-adv-x="583" 
d="M203 -42q-73 0 -118 30q-52 34 -52 104t49 152l-46 -9q-6 0 -6 7q0 25 21 32q3 2 15 4t42 6q42 58 93.5 103t109.5 79q133 79 260 79q112 0 112 -78q0 -41 -32 -83q-16 -21 -31.5 -35t-35.5 -26q-7 -4 -13 -4q-17 0 -17 16q0 9 8 14q93 72 93 120q0 49 -83 49
q-102 0 -229 -74q-56 -33 -100 -72t-81 -83q43 5 82 7.5t76 2.5q151 0 151 -28q0 -13 -14 -13q-7 0 -19 1.5t-30 3.5q-37 6 -57 6q-92 0 -217 -18q-25 -37 -40 -72t-15 -67q0 -30 10 -55.5t34 -42.5q39 -28 102 -28q155 0 338 153q5 3 7 3q7 0 8.5 -1t1.5 -8q0 -5 -4 -9
q-37 -34 -81 -62.5t-93 -51.5q-55 -25 -104.5 -38.5t-94.5 -13.5zM553 590h-36.5t-29.5 3q-6 2 -6 8q0 7 4 11q3 3 7.5 3.5t8.5 0.5q27 0 52.5 -0.5t49.5 -2.5q10 -1 24 -3.5t14 -5.5q0 -10 -16 -11q-5 0 -19 -1t-29 -1.5t-24 -0.5z" />
    <glyph glyph-name="emacron" unicode="&#x113;" horiz-adv-x="200" 
d="M112 -6q-33 0 -58 19t-25 64q0 27 12 58.5t32.5 59.5t45.5 46t51 18q10 0 17.5 -7t7.5 -21q0 -31 -47 -75q-19 -18 -39.5 -32t-37.5 -20q-4 -13 -4 -30q0 -23 11 -42t35 -19q30 0 55 17t46 41.5t37 45.5q7 10 14 10q4 0 4 -4q0 -2 -1 -4.5t-2 -4.5q-17 -24 -39 -52
t-50 -48t-65 -20zM78 124q26 11 54 39q33 32 33 56q0 12 -12 12q-16 0 -44 -46q-25 -38 -31 -61zM171 310h-36.5t-29.5 3q-6 2 -6 7t4 9q3 3 7.5 3.5t8.5 0.5q29 0 48.5 -0.5t43.5 -2.5q10 -1 24 -4t14 -6q0 -6 -16 -7q-7 -1 -27.5 -2t-34.5 -1z" />
    <glyph glyph-name="Ebreve" unicode="&#x114;" horiz-adv-x="583" 
d="M203 -42q-73 0 -118 30q-52 34 -52 104t49 152l-46 -9q-6 0 -6 7q0 25 21 32q3 2 15 4t42 6q42 58 93.5 103t109.5 79q133 79 260 79q112 0 112 -78q0 -41 -32 -83q-16 -21 -31.5 -35t-35.5 -26q-7 -4 -13 -4q-17 0 -17 16q0 9 8 14q93 72 93 120q0 49 -83 49
q-102 0 -229 -74q-56 -33 -100 -72t-81 -83q43 5 82 7.5t76 2.5q151 0 151 -28q0 -13 -14 -13q-7 0 -19 1.5t-30 3.5q-37 6 -57 6q-92 0 -217 -18q-25 -37 -40 -72t-15 -67q0 -30 10 -55.5t34 -42.5q39 -28 102 -28q155 0 338 153q5 3 7 3q7 0 8.5 -1t1.5 -8q0 -5 -4 -9
q-37 -34 -81 -62.5t-93 -51.5q-55 -25 -104.5 -38.5t-94.5 -13.5zM558 573q-31 0 -46 21t-15 43q0 14 4.5 20.5t8.5 6.5q10 0 10 -9q0 -18 10 -32.5t35 -14.5q20 0 43 9.5t44 40.5q3 3 7 3q7 0 5 -9q-14 -36 -42 -57.5t-64 -21.5z" />
    <glyph glyph-name="ebreve" unicode="&#x115;" horiz-adv-x="200" 
d="M112 -6q-33 0 -58 19t-25 64q0 27 12 58.5t32.5 59.5t45.5 46t51 18q10 0 17.5 -7t7.5 -21q0 -31 -47 -75q-19 -18 -39.5 -32t-37.5 -20q-4 -13 -4 -30q0 -23 11 -42t35 -19q30 0 55 17t46 41.5t37 45.5q7 10 14 10q4 0 4 -4q0 -2 -1 -4.5t-2 -4.5q-17 -24 -39 -52
t-50 -48t-65 -20zM78 124q26 11 54 39q33 32 33 56q0 12 -12 12q-16 0 -44 -46q-25 -38 -31 -61zM165 291q-28 0 -39.5 13.5t-11.5 30.5q0 18 5.5 26t9.5 8q7 0 7 -14q0 -19 6 -27t28 -8q27 0 45.5 10t32.5 36q4 6 9 6q9 0 4 -9q-9 -25 -33.5 -48.5t-62.5 -23.5z" />
    <glyph glyph-name="Edotaccent" unicode="&#x116;" horiz-adv-x="583" 
d="M203 -42q-73 0 -118 30q-52 34 -52 104t49 152l-46 -9q-6 0 -6 7q0 25 21 32q3 2 15 4t42 6q42 58 93.5 103t109.5 79q133 79 260 79q112 0 112 -78q0 -41 -32 -83q-16 -21 -31.5 -35t-35.5 -26q-7 -4 -13 -4q-17 0 -17 16q0 9 8 14q93 72 93 120q0 49 -83 49
q-102 0 -229 -74q-56 -33 -100 -72t-81 -83q43 5 82 7.5t76 2.5q151 0 151 -28q0 -13 -14 -13q-7 0 -19 1.5t-30 3.5q-37 6 -57 6q-92 0 -217 -18q-25 -37 -40 -72t-15 -67q0 -30 10 -55.5t34 -42.5q39 -28 102 -28q155 0 338 153q5 3 7 3q7 0 8.5 -1t1.5 -8q0 -5 -4 -9
q-37 -34 -81 -62.5t-93 -51.5q-55 -25 -104.5 -38.5t-94.5 -13.5zM567 575q-26 0 -26 21q0 11 9 22t22 11q11 0 17.5 -7t6.5 -17q0 -11 -8.5 -20.5t-20.5 -9.5z" />
    <glyph glyph-name="edotaccent" unicode="&#x117;" horiz-adv-x="200" 
d="M112 -6q-33 0 -58 19t-25 64q0 27 12 58.5t32.5 59.5t45.5 46t51 18q10 0 17.5 -7t7.5 -21q0 -31 -47 -75q-19 -18 -39.5 -32t-37.5 -20q-4 -13 -4 -30q0 -23 11 -42t35 -19q30 0 55 17t46 41.5t37 45.5q7 10 14 10q4 0 4 -4q0 -2 -1 -4.5t-2 -4.5q-17 -24 -39 -52
t-50 -48t-65 -20zM78 124q26 11 54 39q33 32 33 56q0 12 -12 12q-16 0 -44 -46q-25 -38 -31 -61zM176 285q-26 0 -26 21q0 11 9 22t22 11q11 0 17.5 -7t6.5 -17q0 -11 -8.5 -20.5t-20.5 -9.5z" />
    <glyph glyph-name="Eogonek" unicode="&#x118;" horiz-adv-x="583" 
d="M203 -42q-73 0 -118 30q-52 34 -52 104t49 152l-46 -9q-6 0 -6 7q0 25 21 32q3 2 15 4t42 6q42 58 93.5 103t109.5 79q133 79 260 79q112 0 112 -78q0 -41 -32 -83q-16 -21 -31.5 -35t-35.5 -26q-7 -4 -13 -4q-17 0 -17 16q0 9 8 14q93 72 93 120q0 49 -83 49
q-102 0 -229 -74q-56 -33 -100 -72t-81 -83q43 5 82 7.5t76 2.5q151 0 151 -28q0 -13 -14 -13q-7 0 -19 1.5t-30 3.5q-37 6 -57 6q-92 0 -217 -18q-25 -37 -40 -72t-15 -67q0 -30 10 -55.5t34 -42.5q39 -28 102 -28q155 0 338 153q5 3 7 3q7 0 8.5 -1t1.5 -8q0 -5 -4 -9
q-37 -34 -81 -62.5t-93 -51.5q-55 -25 -104.5 -38.5t-94.5 -13.5zM372 -133q-15 -5 -25 -5q-16 0 -27 11t-11 31v6.5t1 7.5q2 11 10.5 27t18.5 29q17 22 26.5 30t19.5 15q4 2 6 2q5 0 8.5 -2t2.5 -4q-9 -7 -18 -18t-24 -31q-10 -12 -15 -26t-5 -25q0 -10 4 -15q7 -9 25 -9
q8 0 19 4.5t24 17.5q1 1 1.5 1h0.5q3 0 5 -3.5t0 -5.5q-11 -13 -24 -23.5t-23 -14.5z" />
    <glyph glyph-name="eogonek" unicode="&#x119;" horiz-adv-x="200" 
d="M112 -6q-33 0 -58 19t-25 64q0 27 12 58.5t32.5 59.5t45.5 46t51 18q10 0 17.5 -7t7.5 -21q0 -31 -47 -75q-19 -18 -39.5 -32t-37.5 -20q-4 -13 -4 -30q0 -23 11 -42t35 -19q30 0 55 17t46 41.5t37 45.5q7 10 14 10q4 0 4 -4q0 -2 -1 -4.5t-2 -4.5q-17 -24 -39 -52
t-50 -48t-65 -20zM78 124q26 11 54 39q33 32 33 56q0 12 -12 12q-16 0 -44 -46q-25 -38 -31 -61zM121 -144q-15 -5 -25 -5q-16 0 -27 11t-11 31v6.5t1 7.5q2 11 10.5 27t18.5 29q17 22 26.5 30t19.5 15q4 2 6 2q5 0 8.5 -2t2.5 -4q-9 -7 -18 -18t-24 -31q-10 -12 -15 -26
t-5 -25q0 -10 4 -15q7 -9 25 -9q8 0 19 4.5t24 17.5q1 1 1.5 1h0.5q3 0 5 -3.5t0 -5.5q-11 -13 -24 -23.5t-23 -14.5z" />
    <glyph glyph-name="Ecaron" unicode="&#x11a;" horiz-adv-x="583" 
d="M684 674q6 0 6 -5t-7 -10q-29 -20 -54 -36.5t-55 -36.5q-16 -11 -23 -11q-8 0 -13 10q-10 20 -18.5 36t-15.5 32q-4 9 -4 15q0 8 8 8q4 0 9 -4t9 -9q11 -13 23.5 -27t18.5 -20q9 5 27 14.5t37 19.5t34 17t18 7zM203 -42q-73 0 -118 30q-52 34 -52 104t49 152l-46 -9
q-6 0 -6 7q0 25 21 32q3 2 15 4t42 6q42 58 93.5 103t109.5 79q133 79 260 79q112 0 112 -78q0 -41 -32 -83q-16 -21 -31.5 -35t-35.5 -26q-7 -4 -13 -4q-17 0 -17 16q0 9 8 14q93 72 93 120q0 49 -83 49q-102 0 -229 -74q-56 -33 -100 -72t-81 -83q43 5 82 7.5t76 2.5
q151 0 151 -28q0 -13 -14 -13q-7 0 -19 1.5t-30 3.5q-37 6 -57 6q-92 0 -217 -18q-25 -37 -40 -72t-15 -67q0 -30 10 -55.5t34 -42.5q39 -28 102 -28q155 0 338 153q5 3 7 3q7 0 8.5 -1t1.5 -8q0 -5 -4 -9q-37 -34 -81 -62.5t-93 -51.5q-55 -25 -104.5 -38.5t-94.5 -13.5z
" />
    <glyph glyph-name="ecaron" unicode="&#x11b;" horiz-adv-x="200" 
d="M117 371q5 0 17 -11t24.5 -24t16.5 -18q6 4 20 12t30 17t28.5 15.5t15.5 6.5q6 0 3 -5q-1 -3 -4 -6q-22 -16 -37 -29.5t-46 -35.5q-7 -5 -12 -7t-7 -2q-3 0 -5.5 1.5t-7.5 7.5q-12 17 -20 31t-22 36q-1 2 -1 6q2 5 7 5zM112 -6q-33 0 -58 19t-25 64q0 27 12 58.5
t32.5 59.5t45.5 46t51 18q10 0 17.5 -7t7.5 -21q0 -31 -47 -75q-19 -18 -39.5 -32t-37.5 -20q-4 -13 -4 -30q0 -23 11 -42t35 -19q30 0 55 17t46 41.5t37 45.5q7 10 14 10q4 0 4 -4q0 -2 -1 -4.5t-2 -4.5q-17 -24 -39 -52t-50 -48t-65 -20zM78 124q26 11 54 39q33 32 33 56
q0 12 -12 12q-16 0 -44 -46q-25 -38 -31 -61z" />
    <glyph glyph-name="Gcircumflex" unicode="&#x11c;" horiz-adv-x="548" 
d="M17 -266q-148 0 -148 122q0 165 318 295q-12 20 -12 35q0 116 142 222q114 85 248 126q3 18 15 18q19 0 29 -22q78 -7 78 -50q0 -13 -13 -32t-27 -19q-7 0 -7 7q0 2 7 16t7 26q0 28 -35 28q-6 0 -9 -1q-1 -13 -4.5 -32.5t-11.5 -62.5q-6 -31 -13.5 -67.5t-17.5 -79.5
q6 1 12 1h11q51 0 51 -17q0 -10 -16 -10h-6t-9 1t-9.5 1h-7.5q-10 0 -18 -0.5t-15 -1.5q-84 -327 -336 -455q-94 -48 -203 -48zM220 164q42 16 88 31.5t96 29.5q29 27 54.5 58.5t48.5 70.5q49 81 58 154q-166 -47 -264 -156q-30 -33 -55 -78q-30 -52 -30 -90q0 -12 4 -20z
M451 238q16 4 32.5 8t33.5 8l20 102q-19 -32 -40.5 -61.5t-45.5 -56.5zM44 -233q91 0 169 34q217 93 297 427q-27 -7 -50 -13.5t-42 -11.5q-91 -90 -169 -90q-29 0 -47 18q-293 -117 -293 -262q0 -102 135 -102zM253 146q46 0 103 39q-31 -9 -59.5 -18.5t-54.5 -19.5
q3 -1 11 -1zM409 577q-6 0 -6 5t7 10q29 20 54 37t55 36q17 11 23 11q8 0 13 -10q11 -19 19 -35.5t15 -32.5q4 -9 4 -15q0 -8 -8 -8q-4 0 -8.5 4t-9.5 9q-11 13 -23.5 27t-18.5 20q-9 -5 -27 -14.5t-37 -19.5t-34 -17t-18 -7z" />
    <glyph glyph-name="gcircumflex" unicode="&#x11d;" horiz-adv-x="243" 
d="M-141 -406q-49 0 -80 28q-33 29 -33 75q0 107 152 205q129 83 250 102q4 19 9.5 48t13.5 67q-68 -119 -119 -119q-31 0 -31 34q0 51 50 125q49 73 97 90q9 3 17.5 5t15.5 2q16 0 34 -9q8 -4 14 -9.5t6 -12.5q0 -4 -9 -7t-12 -9l-11 -51q-5 -25 -14.5 -63.5t-20.5 -89.5h4
q53 0 53 -23q0 -6 -4 -6l-8 5t-29 5h-10t-10 -1q-19 -75 -43 -133.5t-52 -99.5q-108 -158 -230 -158zM69 30q11 0 26 12.5t31 33.5q24 32 45 68t37 78q-3 1 -9 1q-41 0 -83 -51q-61 -73 -61 -121q0 -21 14 -21zM-137 -392q63 0 122 52q47 40 85 105q53 91 77 221
q-65 -10 -157 -57q-46 -23 -81 -46t-59 -46q-75 -72 -75 -143q0 -39 24 -62q26 -24 64 -24zM282 284q-4 0 -16.5 11t-24.5 24t-17 18q-6 -4 -20 -12t-30 -17t-28.5 -15.5t-15.5 -6.5q-6 0 -3 5q1 3 4 6q22 16 37 29.5t46 35.5q8 5 13 7t6 2q3 0 6 -1.5t7 -7.5
q12 -17 20.5 -30.5t21.5 -36.5q1 -2 1 -6q-2 -5 -7 -5z" />
    <glyph glyph-name="Gbreve" unicode="&#x11e;" horiz-adv-x="548" 
d="M17 -266q-148 0 -148 122q0 165 318 295q-12 20 -12 35q0 116 142 222q114 85 248 126q3 18 15 18q19 0 29 -22q78 -7 78 -50q0 -13 -13 -32t-27 -19q-7 0 -7 7q0 2 7 16t7 26q0 28 -35 28q-6 0 -9 -1q-1 -13 -4.5 -32.5t-11.5 -62.5q-6 -31 -13.5 -67.5t-17.5 -79.5
q6 1 12 1h11q51 0 51 -17q0 -10 -16 -10h-6t-9 1t-9.5 1h-7.5q-10 0 -18 -0.5t-15 -1.5q-84 -327 -336 -455q-94 -48 -203 -48zM220 164q42 16 88 31.5t96 29.5q29 27 54.5 58.5t48.5 70.5q49 81 58 154q-166 -47 -264 -156q-30 -33 -55 -78q-30 -52 -30 -90q0 -12 4 -20z
M451 238q16 4 32.5 8t33.5 8l20 102q-19 -32 -40.5 -61.5t-45.5 -56.5zM44 -233q91 0 169 34q217 93 297 427q-27 -7 -50 -13.5t-42 -11.5q-91 -90 -169 -90q-29 0 -47 18q-293 -117 -293 -262q0 -102 135 -102zM253 146q46 0 103 39q-31 -9 -59.5 -18.5t-54.5 -19.5
q3 -1 11 -1zM503 573q-31 0 -46 21t-15 43q0 14 4.5 20.5t8.5 6.5q10 0 10 -9q0 -18 10 -32.5t35 -14.5q20 0 43 9.5t44 40.5q3 3 7 3q7 0 5 -9q-14 -36 -42 -57.5t-64 -21.5z" />
    <glyph glyph-name="gbreve" unicode="&#x11f;" horiz-adv-x="243" 
d="M-141 -406q-49 0 -80 28q-33 29 -33 75q0 107 152 205q129 83 250 102q4 19 9.5 48t13.5 67q-68 -119 -119 -119q-31 0 -31 34q0 51 50 125q49 73 97 90q9 3 17.5 5t15.5 2q16 0 34 -9q8 -4 14 -9.5t6 -12.5q0 -4 -9 -7t-12 -9l-11 -51q-5 -25 -14.5 -63.5t-20.5 -89.5h4
q53 0 53 -23q0 -6 -4 -6l-8 5t-29 5h-10t-10 -1q-19 -75 -43 -133.5t-52 -99.5q-108 -158 -230 -158zM69 30q11 0 26 12.5t31 33.5q24 32 45 68t37 78q-3 1 -9 1q-41 0 -83 -51q-61 -73 -61 -121q0 -21 14 -21zM-137 -392q63 0 122 52q47 40 85 105q53 91 77 221
q-65 -10 -157 -57q-46 -23 -81 -46t-59 -46q-75 -72 -75 -143q0 -39 24 -62q26 -24 64 -24zM206 291q-28 0 -39.5 13.5t-11.5 30.5q0 18 5.5 26t9.5 8q7 0 7 -14q0 -19 6 -27t28 -8q27 0 45.5 10t32.5 36q4 6 9 6q9 0 4 -9q-9 -25 -33.5 -48.5t-62.5 -23.5z" />
    <glyph glyph-name="Gdotaccent" unicode="&#x120;" horiz-adv-x="548" 
d="M17 -266q-148 0 -148 122q0 165 318 295q-12 20 -12 35q0 116 142 222q114 85 248 126q3 18 15 18q19 0 29 -22q78 -7 78 -50q0 -13 -13 -32t-27 -19q-7 0 -7 7q0 2 7 16t7 26q0 28 -35 28q-6 0 -9 -1q-1 -13 -4.5 -32.5t-11.5 -62.5q-6 -31 -13.5 -67.5t-17.5 -79.5
q6 1 12 1h11q51 0 51 -17q0 -10 -16 -10h-6t-9 1t-9.5 1h-7.5q-10 0 -18 -0.5t-15 -1.5q-84 -327 -336 -455q-94 -48 -203 -48zM220 164q42 16 88 31.5t96 29.5q29 27 54.5 58.5t48.5 70.5q49 81 58 154q-166 -47 -264 -156q-30 -33 -55 -78q-30 -52 -30 -90q0 -12 4 -20z
M451 238q16 4 32.5 8t33.5 8l20 102q-19 -32 -40.5 -61.5t-45.5 -56.5zM44 -233q91 0 169 34q217 93 297 427q-27 -7 -50 -13.5t-42 -11.5q-91 -90 -169 -90q-29 0 -47 18q-293 -117 -293 -262q0 -102 135 -102zM253 146q46 0 103 39q-31 -9 -59.5 -18.5t-54.5 -19.5
q3 -1 11 -1zM512 575q-26 0 -26 21q0 11 9 22t22 11q11 0 17.5 -7t6.5 -17q0 -11 -8.5 -20.5t-20.5 -9.5z" />
    <glyph glyph-name="gdotaccent" unicode="&#x121;" horiz-adv-x="243" 
d="M-141 -406q-49 0 -80 28q-33 29 -33 75q0 107 152 205q129 83 250 102q4 19 9.5 48t13.5 67q-68 -119 -119 -119q-31 0 -31 34q0 51 50 125q49 73 97 90q9 3 17.5 5t15.5 2q16 0 34 -9q8 -4 14 -9.5t6 -12.5q0 -4 -9 -7t-12 -9l-11 -51q-5 -25 -14.5 -63.5t-20.5 -89.5h4
q53 0 53 -23q0 -6 -4 -6l-8 5t-29 5h-10t-10 -1q-19 -75 -43 -133.5t-52 -99.5q-108 -158 -230 -158zM69 30q11 0 26 12.5t31 33.5q24 32 45 68t37 78q-3 1 -9 1q-41 0 -83 -51q-61 -73 -61 -121q0 -21 14 -21zM-137 -392q63 0 122 52q47 40 85 105q53 91 77 221
q-65 -10 -157 -57q-46 -23 -81 -46t-59 -46q-75 -72 -75 -143q0 -39 24 -62q26 -24 64 -24zM217 285q-26 0 -26 21q0 11 9 22t22 11q11 0 17.5 -7t6.5 -17q0 -11 -8.5 -20.5t-20.5 -9.5z" />
    <glyph glyph-name="uni0122" unicode="&#x122;" horiz-adv-x="548" 
d="M17 -266q-148 0 -148 122q0 165 318 295q-12 20 -12 35q0 116 142 222q114 85 248 126q3 18 15 18q19 0 29 -22q78 -7 78 -50q0 -13 -13 -32t-27 -19q-7 0 -7 7q0 2 7 16t7 26q0 28 -35 28q-6 0 -9 -1q-1 -13 -4.5 -32.5t-11.5 -62.5q-6 -31 -13.5 -67.5t-17.5 -79.5
q6 1 12 1h11q51 0 51 -17q0 -10 -16 -10h-6t-9 1t-9.5 1h-7.5q-10 0 -18 -0.5t-15 -1.5q-84 -327 -336 -455q-94 -48 -203 -48zM220 164q42 16 88 31.5t96 29.5q29 27 54.5 58.5t48.5 70.5q49 81 58 154q-166 -47 -264 -156q-30 -33 -55 -78q-30 -52 -30 -90q0 -12 4 -20z
M451 238q16 4 32.5 8t33.5 8l20 102q-19 -32 -40.5 -61.5t-45.5 -56.5zM44 -233q91 0 169 34q217 93 297 427q-27 -7 -50 -13.5t-42 -11.5q-91 -90 -169 -90q-29 0 -47 18q-293 -117 -293 -262q0 -102 135 -102zM253 146q46 0 103 39q-31 -9 -59.5 -18.5t-54.5 -19.5
q3 -1 11 -1zM25 -419q-2 0 -2 1q0 2 2.5 5.5t3.5 4.5l8.5 10t19 24t12.5 25q-15 3 -15 18q0 10 7.5 19.5t18.5 9.5q10 0 15 -6.5t5 -14.5q0 -20 -30 -58q-23 -29 -37 -35q-4 -3 -8 -3z" />
    <glyph glyph-name="uni0123" unicode="&#x123;" horiz-adv-x="243" 
d="M-141 -406q-49 0 -80 28q-33 29 -33 75q0 107 152 205q129 83 250 102q4 19 9.5 48t13.5 67q-68 -119 -119 -119q-31 0 -31 34q0 51 50 125q49 73 97 90q9 3 17.5 5t15.5 2q16 0 34 -9q8 -4 14 -9.5t6 -12.5q0 -4 -9 -7t-12 -9l-11 -51q-5 -25 -14.5 -63.5t-20.5 -89.5h4
q53 0 53 -23q0 -6 -4 -6l-8 5t-29 5h-10t-10 -1q-19 -75 -43 -133.5t-52 -99.5q-108 -158 -230 -158zM69 30q11 0 26 12.5t31 33.5q24 32 45 68t37 78q-3 1 -9 1q-41 0 -83 -51q-61 -73 -61 -121q0 -21 14 -21zM-137 -392q63 0 122 52q47 40 85 105q53 91 77 221
q-65 -10 -157 -57q-46 -23 -81 -46t-59 -46q-75 -72 -75 -143q0 -39 24 -62q26 -24 64 -24zM215 285q-10 0 -15 6.5t-5 14.5q0 21 30 58q12 15 21 23t16 12q5 3 8 3q2 0 2 -1q0 -3 -7 -12t-21.5 -26t-17.5 -31q15 -3 15 -18q0 -10 -7.5 -19.5t-18.5 -9.5z" />
    <glyph glyph-name="Hcircumflex" unicode="&#x124;" horiz-adv-x="811" 
d="M156 -91q-68 0 -118 33q-56 38 -56 104q0 123 203 180q68 20 144.5 29t159.5 9q18 0 34 -0.5t29 -1.5q52 128 52 191q0 39 -25 39q-13 0 -33 -11t-22 -11q-6 0 -6 9q0 13 33 26q30 12 48 12q46 0 46 -65q0 -69 -48 -194q90 -12 136 -28l32 72q36 81 68.5 136.5t58.5 86.5
q14 15 48 15q13 0 13 -5q0 -1 -2 -5q-124 -166 -189 -312q64 -31 64 -66q0 -7 -5 -17q-6 -9 -13 -9q-12 0 -12 12q0 3 3 7q3 5 3 8q0 20 -50 43q-54 -127 -54 -188q0 -36 21 -36q8 0 25 11l18 12q9 0 9 -9q0 -11 -20 -22q-21 -12 -34 -12q-46 0 -46 61q0 62 53 194
q-54 17 -139 26q-34 -64 -77 -115t-102 -100q-70 -58 -132 -83.5t-118 -25.5zM156 -67q108 0 226 103q101 89 157 200q-11 1 -24.5 1.5t-27.5 0.5q-151 0 -280 -36q-190 -52 -190 -163q0 -53 46 -81q38 -25 93 -25zM676 577q-6 0 -6 5t7 10q29 20 54 37t55 36q17 11 23 11
q8 0 13 -10q11 -19 19 -35.5t15 -32.5q4 -9 4 -15q0 -8 -8 -8q-4 0 -8.5 4t-9.5 9q-11 13 -23.5 27t-18.5 20q-9 -5 -27 -14.5t-37 -19.5t-34 -17t-18 -7z" />
    <glyph glyph-name="hcircumflex" unicode="&#x125;" horiz-adv-x="311" 
d="M229 -6q-54 0 -54 65q0 22 8.5 52.5t21.5 56.5q-14 -13 -35 -34t-41 -46q-39 -48 -60 -83q-11 -8 -26 -8q-27 0 -27 13q0 11 11 41t32 78q32 73 67.5 140.5t75.5 129.5q121 193 199 193q43 0 43 -49q0 -64 -104 -179q-22 -24 -59.5 -61.5t-93.5 -88.5q-13 -12 -37.5 -33
t-49.5 -46q-3 -4 -8 -16t-13 -31q-16 -39 -16 -49q1 -1 1 -3q11 14 32.5 37.5t46.5 51.5q23 25 44 47t33 30q9 6 16 6q20 0 20 -21l-24 -52q-24 -52 -24 -82q0 -35 34 -35q28 0 60 29q23 20 47 54l22 31q2 3 5 3t5.5 -3t0.5 -7q-2 -6 -9 -16q-34 -50 -70 -82.5t-74 -32.5z
M112 170q35 26 81.5 69t98.5 104q117 135 117 192q0 33 -22 33q-54 0 -153 -166q-34 -57 -66.5 -117t-55.5 -115zM309 627q-6 0 -6 5t7 10q29 20 54 37t55 36q17 11 23 11q8 0 13 -10q11 -19 19 -35.5t15 -32.5q4 -9 4 -15q0 -8 -8 -8q-4 0 -8.5 4t-9.5 9q-11 13 -23.5 27
t-18.5 20q-9 -5 -27 -14.5t-37 -19.5t-34 -17t-18 -7z" />
    <glyph glyph-name="Hbar" unicode="&#x126;" horiz-adv-x="811" 
d="M156 -91q-68 0 -118 33q-56 38 -56 104q0 123 203 180q68 20 144.5 29t159.5 9q18 0 34 -0.5t29 -1.5q52 128 52 191q0 39 -25 39q-13 0 -33 -11t-22 -11q-6 0 -6 9q0 13 33 26q30 12 48 12q46 0 46 -65q0 -69 -48 -194q90 -12 136 -28l32 72q36 81 68.5 136.5t58.5 86.5
q14 15 48 15q13 0 13 -5q0 -1 -2 -5q-124 -166 -189 -312q64 -31 64 -66q0 -7 -5 -17q-6 -9 -13 -9q-12 0 -12 12q0 3 3 7q3 5 3 8q0 20 -50 43q-54 -127 -54 -188q0 -36 21 -36q8 0 25 11l18 12q9 0 9 -9q0 -11 -20 -22q-21 -12 -34 -12q-46 0 -46 61q0 62 53 194
q-54 17 -139 26q-34 -64 -77 -115t-102 -100q-70 -58 -132 -83.5t-118 -25.5zM156 -67q108 0 226 103q101 89 157 200q-11 1 -24.5 1.5t-27.5 0.5q-151 0 -280 -36q-190 -52 -190 -163q0 -53 46 -81q38 -25 93 -25zM517 349q-20 0 -20 7q0 13 35 25q15 6 106 6q37 0 76 -1
t81 -3q1 0 15.5 -0.5t34 -1t33.5 -2.5q26 -3 26 -10q0 -6 -26 -8q-14 -1 -44.5 -1t-64.5 -2q-41 -1 -102.5 -5t-144.5 -4h-5z" />
    <glyph glyph-name="hbar" unicode="&#x127;" horiz-adv-x="311" 
d="M229 -6q-54 0 -54 65q0 22 8.5 52.5t21.5 56.5q-14 -13 -35 -34t-41 -46q-39 -48 -60 -83q-11 -8 -26 -8q-27 0 -27 13q0 11 11 41t32 78q32 73 67.5 140.5t75.5 129.5q121 193 199 193q43 0 43 -49q0 -64 -104 -179q-22 -24 -59.5 -61.5t-93.5 -88.5q-13 -12 -37.5 -33
t-49.5 -46q-3 -4 -8 -16t-13 -31q-16 -39 -16 -49q1 -1 1 -3q11 14 32.5 37.5t46.5 51.5q23 25 44 47t33 30q9 6 16 6q20 0 20 -21l-24 -52q-24 -52 -24 -82q0 -35 34 -35q28 0 60 29q23 20 47 54l22 31q2 3 5 3t5.5 -3t0.5 -7q-2 -6 -9 -16q-34 -50 -70 -82.5t-74 -32.5z
M112 170q35 26 81.5 69t98.5 104q117 135 117 192q0 33 -22 33q-54 0 -153 -166q-34 -57 -66.5 -117t-55.5 -115zM217 365h-38q-22 0 -43.5 0.5t-29.5 2.5q-8 1 -8 7q0 4 5 9q5 4 13 6t16 3q13 1 29 1.5t32 0.5q23 0 46.5 -1t39.5 -4q14 -2 19 -4.5t5 -5.5q0 -4 -4.5 -7.5
t-15.5 -4.5q-9 -1 -29 -2t-37 -1z" />
    <glyph glyph-name="Itilde" unicode="&#x128;" horiz-adv-x="439" 
d="M213 -35q-39 0 -44 47q-13 -1 -42 -7t-69 -14q-38 -8 -63.5 -12.5t-37.5 -4.5t-12 13q0 8 10 12q4 2 19 6t42 11q41 11 79 18.5t75 12.5q5 42 25.5 99t58.5 136q35 71 66 125t62 98h-17q-29 0 -54 -1t-46 -3q-125 -15 -125 -48q0 -14 28 -30t28 -22q0 -8 -10 -8
q-4 0 -7 1q-80 38 -80 67q0 22 43 43q57 27 186 27q17 0 35 -0.5t37 -1.5q12 17 49 17q15 0 15 -6q0 -2 -10 -15q56 -4 115 -12q6 -1 15 -2t20 -3q11 -3 11 -11t-11 -8l-3 1q-27 3 -68 6.5t-96 7.5q-44 -56 -81 -111.5t-63 -104.5q-79 -150 -95 -237q51 6 92 6q91 0 110 -21
q6 -7 6 -20q0 -8 -2.5 -14t-7.5 -3q-12 7 -35.5 11t-48 6t-39.5 2q-18 0 -37.5 -1t-40.5 -3q2 -29 20 -29q5 0 12 1.5t15 6.5t12 9.5t5 4.5q8 0 8 -9q0 -13 -20 -22q-22 -11 -34 -11zM358 578q-6 0 -6 5q0 20 14.5 34.5t36.5 14.5q24 0 42.5 -10t37.5 -10q13 0 20 6t14 19
q7 0 7 -5q0 -22 -15 -36.5t-34 -14.5q-27 0 -45 11t-38 11q-23 0 -34 -25z" />
    <glyph glyph-name="itilde" unicode="&#x129;" horiz-adv-x="178" 
d="M81 -22q-55 0 -55 59q0 28 20 82q17 47 38 75q6 9 14 9t16 -8q5 -5 5 -14q0 -8 -4 -13q-50 -79 -50 -130q0 -36 26 -36q14 0 32 7.5t36 23.5q12 11 25.5 25t27.5 33l26 32q5 0 5 -8t-7 -16q-91 -121 -155 -121zM60 248q-5 0 -5 4q0 22 14 33t33 11q16 0 34 -8
q18 -9 31 -9q19 0 30 20q6 0 6 -4q1 -22 -13 -33t-34 -11q-16 0 -34 8q-19 9 -32 9q-19 0 -30 -20z" />
    <glyph glyph-name="Imacron" unicode="&#x12a;" horiz-adv-x="439" 
d="M213 -35q-39 0 -44 47q-13 -1 -42 -7t-69 -14q-38 -8 -63.5 -12.5t-37.5 -4.5t-12 13q0 8 10 12q4 2 19 6t42 11q41 11 79 18.5t75 12.5q5 42 25.5 99t58.5 136q35 71 66 125t62 98h-17q-29 0 -54 -1t-46 -3q-125 -15 -125 -48q0 -14 28 -30t28 -22q0 -8 -10 -8
q-4 0 -7 1q-80 38 -80 67q0 22 43 43q57 27 186 27q17 0 35 -0.5t37 -1.5q12 17 49 17q15 0 15 -6q0 -2 -10 -15q56 -4 115 -12q6 -1 15 -2t20 -3q11 -3 11 -11t-11 -8l-3 1q-27 3 -68 6.5t-96 7.5q-44 -56 -81 -111.5t-63 -104.5q-79 -150 -95 -237q51 6 92 6q91 0 110 -21
q6 -7 6 -20q0 -8 -2.5 -14t-7.5 -3q-12 7 -35.5 11t-48 6t-39.5 2q-18 0 -37.5 -1t-40.5 -3q2 -29 20 -29q5 0 12 1.5t15 6.5t12 9.5t5 4.5q8 0 8 -9q0 -13 -20 -22q-22 -11 -34 -11zM435 590h-36.5t-29.5 3q-6 2 -6 8q0 7 4 11q3 3 7.5 3.5t8.5 0.5q27 0 52.5 -0.5
t49.5 -2.5q10 -1 24 -3.5t14 -5.5q0 -10 -16 -11q-5 0 -19 -1t-29 -1.5t-24 -0.5z" />
    <glyph glyph-name="imacron" unicode="&#x12b;" horiz-adv-x="178" 
d="M81 -22q-55 0 -55 59q0 28 20 82q17 47 38 75q6 9 14 9t16 -8q5 -5 5 -14q0 -8 -4 -13q-50 -79 -50 -130q0 -36 26 -36q14 0 32 7.5t36 23.5q12 11 25.5 25t27.5 33l26 32q5 0 5 -8t-7 -16q-91 -121 -155 -121zM128 266h-36.5t-29.5 3q-6 2 -6 7t4 9q3 3 7.5 3.5t8.5 0.5
q29 0 48.5 -0.5t43.5 -2.5q10 -1 24 -4t14 -6q0 -6 -16 -7q-7 -1 -27.5 -2t-34.5 -1z" />
    <glyph glyph-name="Ibreve" unicode="&#x12c;" horiz-adv-x="439" 
d="M213 -35q-39 0 -44 47q-13 -1 -42 -7t-69 -14q-38 -8 -63.5 -12.5t-37.5 -4.5t-12 13q0 8 10 12q4 2 19 6t42 11q41 11 79 18.5t75 12.5q5 42 25.5 99t58.5 136q35 71 66 125t62 98h-17q-29 0 -54 -1t-46 -3q-125 -15 -125 -48q0 -14 28 -30t28 -22q0 -8 -10 -8
q-4 0 -7 1q-80 38 -80 67q0 22 43 43q57 27 186 27q17 0 35 -0.5t37 -1.5q12 17 49 17q15 0 15 -6q0 -2 -10 -15q56 -4 115 -12q6 -1 15 -2t20 -3q11 -3 11 -11t-11 -8l-3 1q-27 3 -68 6.5t-96 7.5q-44 -56 -81 -111.5t-63 -104.5q-79 -150 -95 -237q51 6 92 6q91 0 110 -21
q6 -7 6 -20q0 -8 -2.5 -14t-7.5 -3q-12 7 -35.5 11t-48 6t-39.5 2q-18 0 -37.5 -1t-40.5 -3q2 -29 20 -29q5 0 12 1.5t15 6.5t12 9.5t5 4.5q8 0 8 -9q0 -13 -20 -22q-22 -11 -34 -11zM440 573q-31 0 -46 21t-15 43q0 14 4.5 20.5t8.5 6.5q10 0 10 -9q0 -18 10 -32.5
t35 -14.5q20 0 43 9.5t44 40.5q3 3 7 3q7 0 5 -9q-14 -36 -42 -57.5t-64 -21.5z" />
    <glyph glyph-name="ibreve" unicode="&#x12d;" horiz-adv-x="178" 
d="M81 -22q-55 0 -55 59q0 28 20 82q17 47 38 75q6 9 14 9t16 -8q5 -5 5 -14q0 -8 -4 -13q-50 -79 -50 -130q0 -36 26 -36q14 0 32 7.5t36 23.5q12 11 25.5 25t27.5 33l26 32q5 0 5 -8t-7 -16q-91 -121 -155 -121zM122 247q-28 0 -39.5 13.5t-11.5 30.5q0 18 5.5 26t9.5 8
q7 0 7 -14q0 -19 6 -27t28 -8q27 0 45.5 10t32.5 36q4 6 9 6q9 0 4 -9q-9 -25 -33.5 -48.5t-62.5 -23.5z" />
    <glyph glyph-name="Iogonek" unicode="&#x12e;" horiz-adv-x="439" 
d="M213 -35q-39 0 -44 47q-13 -1 -42 -7t-69 -14q-38 -8 -63.5 -12.5t-37.5 -4.5t-12 13q0 8 10 12q4 2 19 6t42 11q41 11 79 18.5t75 12.5q5 42 25.5 99t58.5 136q35 71 66 125t62 98h-17q-29 0 -54 -1t-46 -3q-125 -15 -125 -48q0 -14 28 -30t28 -22q0 -8 -10 -8
q-4 0 -7 1q-80 38 -80 67q0 22 43 43q57 27 186 27q17 0 35 -0.5t37 -1.5q12 17 49 17q15 0 15 -6q0 -2 -10 -15q56 -4 115 -12q6 -1 15 -2t20 -3q11 -3 11 -11t-11 -8l-3 1q-27 3 -68 6.5t-96 7.5q-44 -56 -81 -111.5t-63 -104.5q-79 -150 -95 -237q51 6 92 6q91 0 110 -21
q6 -7 6 -20q0 -8 -2.5 -14t-7.5 -3q-12 7 -35.5 11t-48 6t-39.5 2q-18 0 -37.5 -1t-40.5 -3q2 -29 20 -29q5 0 12 1.5t15 6.5t12 9.5t5 4.5q8 0 8 -9q0 -13 -20 -22q-22 -11 -34 -11zM166 -158q-15 -5 -25 -5q-16 0 -27 11t-11 31v6.5t1 7.5q2 11 10.5 27t18.5 29
q17 22 26.5 30t19.5 15q4 2 6 2q5 0 8.5 -2t2.5 -4q-9 -7 -18 -18t-24 -31q-10 -12 -15 -26t-5 -25q0 -10 4 -15q7 -9 25 -9q8 0 19 4.5t24 17.5q1 1 1.5 1h0.5q3 0 5 -3.5t0 -5.5q-11 -13 -24 -23.5t-23 -14.5z" />
    <glyph glyph-name="iogonek" unicode="&#x12f;" horiz-adv-x="178" 
d="M81 -22q-55 0 -55 59q0 28 20 82q17 47 38 75q6 9 14 9t16 -8q5 -5 5 -14q0 -8 -4 -13q-50 -79 -50 -130q0 -36 26 -36q14 0 32 7.5t36 23.5q12 11 25.5 25t27.5 33l26 32q5 0 5 -8t-7 -16q-91 -121 -155 -121zM133 241q-26 0 -26 21q0 11 9 22t22 11q11 0 17.5 -7
t6.5 -17q0 -11 -8.5 -20.5t-20.5 -9.5zM88 -158q-15 -5 -25 -5q-16 0 -27 11t-11 31v6.5t1 7.5q2 11 10.5 27t18.5 29q17 22 26.5 30t19.5 15q4 2 6 2q5 0 8.5 -2t2.5 -4q-9 -7 -18 -18t-24 -31q-10 -12 -15 -26t-5 -25q0 -10 4 -15q7 -9 25 -9q8 0 19 4.5t24 17.5
q1 1 1.5 1h0.5q3 0 5 -3.5t0 -5.5q-11 -13 -24 -23.5t-23 -14.5z" />
    <glyph glyph-name="Idotaccent" unicode="&#x130;" horiz-adv-x="439" 
d="M213 -35q-39 0 -44 47q-13 -1 -42 -7t-69 -14q-38 -8 -63.5 -12.5t-37.5 -4.5t-12 13q0 8 10 12q4 2 19 6t42 11q41 11 79 18.5t75 12.5q5 42 25.5 99t58.5 136q35 71 66 125t62 98h-17q-29 0 -54 -1t-46 -3q-125 -15 -125 -48q0 -14 28 -30t28 -22q0 -8 -10 -8
q-4 0 -7 1q-80 38 -80 67q0 22 43 43q57 27 186 27q17 0 35 -0.5t37 -1.5q12 17 49 17q15 0 15 -6q0 -2 -10 -15q56 -4 115 -12q6 -1 15 -2t20 -3q11 -3 11 -11t-11 -8l-3 1q-27 3 -68 6.5t-96 7.5q-44 -56 -81 -111.5t-63 -104.5q-79 -150 -95 -237q51 6 92 6q91 0 110 -21
q6 -7 6 -20q0 -8 -2.5 -14t-7.5 -3q-12 7 -35.5 11t-48 6t-39.5 2q-18 0 -37.5 -1t-40.5 -3q2 -29 20 -29q5 0 12 1.5t15 6.5t12 9.5t5 4.5q8 0 8 -9q0 -13 -20 -22q-22 -11 -34 -11zM449 575q-26 0 -26 21q0 11 9 22t22 11q11 0 17.5 -7t6.5 -17q0 -11 -8.5 -20.5
t-20.5 -9.5z" />
    <glyph glyph-name="dotlessi" unicode="&#x131;" horiz-adv-x="178" 
d="M81 -22q-55 0 -55 59q0 28 20 82q17 47 38 75q6 9 14 9t16 -8q5 -5 5 -14q0 -8 -4 -13q-50 -79 -50 -130q0 -36 26 -36q14 0 32 7.5t36 23.5q12 11 25.5 25t27.5 33l26 32q5 0 5 -8t-7 -16q-91 -121 -155 -121z" />
    <glyph glyph-name="IJ" unicode="&#x132;" horiz-adv-x="1009" 
d="M471 -351q-52 0 -84 27q-30 26 -30 67v12q14 117 198 224q79 47 163.5 77t157.5 43q11 35 18 64t12 57q5 32 11 72.5t6 79.5q0 34 -6 64.5t-23 50.5q-13 17 -32.5 25t-40.5 8q-34 0 -69.5 -13t-64.5 -33t-61.5 -50.5t-60.5 -66t-45.5 -69.5t-17.5 -60q0 -20 9 -35t31 -20
q17 -3 30 -3q20 0 38 6t36 16q17 10 33.5 22t28.5 21l12 9h5q3 0 3 -5q0 -4 -2.5 -8.5t-7.5 -10.5q-16 -19 -45.5 -37.5t-49.5 -25.5q-11 -4 -26.5 -6t-28.5 -2q-8 0 -16.5 1t-17.5 4q-30 10 -44 33t-14 53t16 64.5t42 69t58.5 65t65.5 51.5q-27 3 -67.5 6.5t-93.5 7.5
q-44 -56 -81 -111.5t-63 -104.5q-79 -150 -95 -237q51 6 92 6q91 0 110 -21q6 -7 6 -20q0 -8 -2.5 -14t-7.5 -3q-12 7 -35.5 11t-48 6t-39.5 2q-18 0 -37.5 -1t-40.5 -3q2 -29 20 -29q5 0 12 1.5t15 6.5t12 9.5t5 4.5q8 0 8 -9q0 -13 -20 -22q-22 -11 -34 -11q-39 0 -44 47
q-13 -1 -42 -7t-69 -14q-38 -8 -63.5 -12.5t-37.5 -4.5t-12 13q0 8 10 12q4 2 19 6t42 11q41 11 79 18.5t75 12.5q5 42 25.5 99t58.5 136q35 71 66 125t62 98h-17q-29 0 -54 -1t-46 -3q-125 -15 -125 -48q0 -14 28 -30t28 -22q0 -8 -10 -8q-4 0 -7 1q-80 38 -80 67
q0 22 43 43q57 27 186 27q17 0 35 -0.5t37 -1.5q12 17 49 17q15 0 15 -6q0 -2 -10 -15q56 -4 115 -12q6 -1 15 -2t20 -3q9 -4 10 -8q31 17 68.5 28t74.5 11h4q27 0 52 -9t44 -26q26 -23 35 -63.5t9 -86.5q0 -31 -3 -63.5t-8 -70.5l-2 -10q-5 -26 -10.5 -53t-14.5 -55h9
q30 0 43 -4t13 -16q0 -10 -5 -10l-9 7q-4 2 -15 2h-19h-12.5t-12.5 -2q-30 -87 -78.5 -163.5t-108 -135.5t-124 -93.5t-127.5 -37.5h-6zM482 -336q35 2 71 16.5t75 44.5q81 63 144 154.5t98 199.5q-40 -6 -95.5 -22.5t-117.5 -44.5q-58 -25 -96 -50.5t-68 -51.5
q-46 -40 -72 -79t-31 -77q-1 -6 -1 -8.5v-4.5q0 -20 6.5 -31t16.5 -21q11 -10 28 -18t42 -7z" />
    <glyph glyph-name="ij" unicode="&#x133;" horiz-adv-x="341" 
d="M298 295q-24 0 -24 24q0 12 9 21q10 10 22 10q24 0 24 -24q0 -12 -9 -21q-10 -10 -22 -10zM144 265q-24 0 -24 24q0 12 9 21q10 10 23 10q24 0 24 -24q0 -12 -9 -21q-10 -10 -23 -10zM-82 -411q-47 0 -76 25q-30 26 -30 71q0 107 162 209q137 86 260 105q7 19 14 56.5
t14 80.5q-4 -7 -9 -14.5t-10 -14.5q-21 -28 -47.5 -58t-55.5 -50.5t-59 -20.5q-55 0 -55 59q0 28 20 82q17 47 38 75q6 9 14 9t16 -8q5 -5 5 -14q0 -8 -4 -13q-50 -79 -50 -130q0 -36 26 -36q23 0 48 18t46.5 42t34.5 41.5t12 16.5q30 47 37 87q3 19 29 19q17 0 17 -11
q0 -23 -12 -85q-7 -36 -15.5 -66.5t-16.5 -63.5q7 0 17.5 -1t18.5 -3q23 -5 23 -15q0 -7 -7 -7l-6 2q-10 5 -31 5h-8.5t-8.5 -1q-23 -75 -50.5 -133t-59.5 -100q-119 -158 -241 -158zM-77 -397q62 0 126 52q25 20 47.5 47t43.5 58q59 91 92 221q-68 -11 -161 -57
q-95 -47 -146 -92q-85 -76 -85 -150q0 -37 23 -58t60 -21z" />
    <glyph glyph-name="Jcircumflex" unicode="&#x134;" horiz-adv-x="541" 
d="M13 -351q-52 0 -84 27q-30 26 -30 67v12q14 117 198 224q79 47 163.5 77t157.5 43q11 35 18 64t12 57q5 32 11 72.5t6 79.5q0 34 -6 64.5t-23 50.5q-13 17 -32.5 25t-40.5 8q-34 0 -69.5 -13t-64.5 -33t-61.5 -50.5t-60.5 -66t-45.5 -69.5t-17.5 -60q0 -20 9 -35t31 -20
q17 -3 30 -3q20 0 38 6t36 16q17 10 33.5 22t28.5 21l12 9h5q3 0 3 -5q0 -4 -2.5 -8.5t-7.5 -10.5q-16 -19 -45.5 -37.5t-49.5 -25.5q-11 -4 -26.5 -6t-28.5 -2q-8 0 -16.5 1t-17.5 4q-30 10 -44 33t-14 53q0 31 17 67t45.5 72t62.5 66.5t68 51.5q31 18 70 30t78 12h4
q27 0 52 -9t44 -26q26 -23 35 -63.5t9 -86.5q0 -33 -2.5 -69t-8.5 -65l-2 -10q-5 -26 -10.5 -53t-14.5 -55h9q30 0 43 -4t13 -16q0 -10 -5 -10l-9 7q-4 2 -15 2h-19h-12.5t-12.5 -2q-30 -85 -77.5 -162.5t-106.5 -138t-124 -95t-130 -34.5h-6zM24 -336q35 2 71 16.5t75 44.5
q81 63 144 154.5t98 199.5q-40 -6 -95.5 -22.5t-117.5 -44.5q-58 -25 -96 -50.5t-68 -51.5q-46 -40 -72 -79t-31 -77q-1 -6 -1 -8.5v-4.5q0 -20 6.5 -31t16.5 -21q11 -10 28 -18t42 -7zM270 577q-6 0 -6 5t7 10q29 20 54 37t55 36q17 11 23 11q8 0 13 -10q11 -19 19 -35.5
t15 -32.5q4 -9 4 -15q0 -8 -8 -8q-4 0 -8.5 4t-9.5 9q-11 13 -23.5 27t-18.5 20q-9 -5 -27 -14.5t-37 -19.5t-34 -17t-18 -7z" />
    <glyph glyph-name="jcircumflex" unicode="&#x135;" horiz-adv-x="158" 
d="M-258 -406q-47 0 -76 25q-30 26 -30 71q0 107 162 209q137 86 260 105q7 19 13 50.5t13 74.5q-40 -49 -44 -49q-6 0 -6 7q0 4 3 7q46 63 55 118q3 19 30 19q17 0 17 -11q0 -23 -12 -85q-7 -39 -14 -68.5t-15 -61.5h3q15 0 30 -4q23 -5 23 -15q0 -7 -7 -7q-2 0 -6 2
q-10 5 -31 5h-8.5t-8.5 -1q-23 -75 -50.5 -132t-59.5 -101q-119 -158 -241 -158zM-253 -392q62 0 126 52q25 20 49 48.5t42 56.5q59 91 92 221q-34 -5 -73.5 -19t-87.5 -38q-47 -23 -84 -46t-62 -46q-85 -76 -85 -150q0 -37 23 -58t60 -21zM198 270q-4 0 -16.5 11t-24.5 24
t-17 18q-6 -4 -20 -12t-30 -17t-28.5 -15.5t-15.5 -6.5q-6 0 -3 5q1 3 4 6q22 16 37 29.5t46 35.5q8 5 13 7t6 2q3 0 6 -1.5t7 -7.5q12 -17 20.5 -30.5t21.5 -36.5q1 -2 1 -6q-2 -5 -7 -5z" />
    <glyph glyph-name="uni0136" unicode="&#x136;" horiz-adv-x="731" 
d="M83 -63q-47 0 -77 21q-36 24 -36 68q0 69 95 155q92 83 160 83q9 0 9 -7q0 -6 -15 -11q-112 -43 -178 -127q-40 -50 -40 -100q0 -63 72 -63q100 0 197 96q38 38 71 84t61 99q-47 68 -47 83q0 11 6 30q6 21 13 21q3 0 5 -5q10 -24 21 -47.5t21 -42.5q50 121 50 197
q0 48 -29 48q-13 0 -33 -11t-21 -11q-7 0 -7 9q0 13 34 27q14 6 26 8.5t21 2.5q51 0 51 -73q0 -88 -59 -220q206 95 263 204q1 2 5.5 12.5t7.5 20.5t10 10q11 0 11 -15q0 -64 -77 -127.5t-225 -127.5q21 -31 50.5 -66.5t56.5 -64.5q89 -93 131 -93q23 0 23 25q0 3 -0.5 7.5
t-1.5 9.5q-3 14 -3 15q0 9 8 9q17 0 17 -40q0 -22 -13 -35q-14 -14 -33 -14q-52 0 -141 87q-31 31 -58.5 62.5t-56.5 69.5q-30 -52 -65.5 -96.5t-76.5 -79.5q-102 -87 -203 -87zM364 -174q-2 0 -2 1q0 2 2.5 5.5t3.5 4.5l8.5 10t19 24t12.5 25q-15 3 -15 18q0 10 7.5 19.5
t18.5 9.5q10 0 15 -6.5t5 -14.5q0 -20 -30 -58q-23 -29 -37 -35q-4 -3 -8 -3z" />
    <glyph glyph-name="uni0137" unicode="&#x137;" horiz-adv-x="337" 
d="M243 -9q-23 0 -42 15t-33 37.5t-22 46t-8 39.5q-12 -14 -27 -29t-26 -29q-15 -18 -21 -52q0 -1 -1.5 -6.5t-1.5 -7.5q-12 -5 -23 -5q-22 0 -22 10q0 23 42 119q31 71 65 136t76 132q122 195 199 195q45 0 45 -41q0 -72 -126 -201q-40 -41 -90 -83.5t-106 -85.5
q-10 -21 -18.5 -41t-15.5 -40l104 102q38 38 65.5 54t43.5 16q26 0 26 -38t-54 -76q-24 -16 -51.5 -26t-50.5 -10q11 -48 37 -70.5t55 -22.5q58 0 127 91q6 9 12 9q5 0 5 -5t-4 -10q-24 -35 -68 -74q-26 -24 -47 -35t-36 -13q-2 0 -4 -0.5t-4 -0.5zM134 215q36 23 82 64
t94 90q110 113 110 168q0 21 -17 21q-25 0 -80 -46q-47 -40 -91 -106t-82 -147q-9 -19 -12.5 -30t-3.5 -14zM179 138q29 0 67 26q37 27 37 55q0 20 -13 20q-20 0 -109 -93q5 -8 18 -8zM69 -174q-2 0 -2 1q0 2 2.5 5.5t3.5 4.5l8.5 10t19 24t12.5 25q-15 3 -15 18
q0 10 7.5 19.5t18.5 9.5q10 0 15 -6.5t5 -14.5q0 -20 -30 -58q-23 -29 -37 -35q-4 -3 -8 -3z" />
    <glyph glyph-name="kgreenlandic" unicode="&#x138;" horiz-adv-x="364" 
d="M278 -8q-36 0 -74 51q-16 21 -26.5 42.5t-12.5 43.5l-47 -55q-14 -17 -20 -34.5t-10 -34.5q-12 -5 -23 -5q-22 0 -22 10q0 11 16.5 47.5t35.5 75.5q21 44 45.5 97t49.5 92q40 61 69.5 80.5t54.5 19.5q29 0 29 -26q0 -44 -82 -125q-25 -25 -56.5 -51.5t-66.5 -52.5
q-7 -13 -9.5 -28.5t-9.5 -35.5q23 23 51 51.5t48 47.5q73 70 109 70q26 0 26 -38t-54 -76q-49 -34 -90 -33q21 -96 80 -96q58 0 127 91q6 9 12 9q5 0 5 -5t-4 -10q-24 -35 -68 -74q-52 -48 -83 -48zM152 196q45 27 105 87q71 71 71 105q0 13 -11 13q-8 0 -22 -6.5t-30 -22.5
q-12 -12 -29.5 -36.5t-34 -51.5t-27.5 -49q-5 -10 -13.5 -23.5t-8.5 -15.5zM206 138q29 0 67 26q37 27 37 55q0 20 -13 20q-20 0 -109 -93q5 -8 18 -8z" />
    <glyph glyph-name="Lacute" unicode="&#x139;" horiz-adv-x="583" 
d="M416 -56q-101 0 -231 67q-58 -37 -110 -37q-61 0 -108 41q-47 42 -47 102q0 31 13 53q16 28 44 28q29 0 104 -69q42 -38 70.5 -63t32.5 -28q51 65 101 208q-23 -7 -44.5 -10.5t-41.5 -3.5q-46 0 -75 13q-41 18 -41 57q0 42 74 83q67 37 112 37q11 0 11 -9q0 -6 -11 -9
l-36 -10q-121 -40 -121 -90q0 -47 89 -47q22 0 45.5 4t48.5 12q4 10 12 34t17 48t14 34q15 33 32 59t33 45q55 64 100 64q63 0 63 -54q0 -58 -65 -126q-25 -26 -54 -50t-62 -41l-61 -31q-18 -50 -28 -75t-20 -46q-17 -37 -34 -63.5t-34 -43.5q17 -9 42.5 -18.5t56.5 -17.5
q32 -8 60 -12t48 -4q48 0 84 12q51 17 51 54q0 13 -14 27q-15 14 -15 19q0 8 8 8q4 0 8 -3q36 -25 36 -58q0 -49 -57 -73q-22 -9 -46.5 -13t-53.5 -4zM340 294q47 18 120 93q79 80 79 122q0 20 -17 20q-7 0 -16 -3q-90 -32 -166 -232zM72 -1q42 0 82 23l-99 78
q-79 63 -89 63q-22 0 -22 -40q0 -49 40 -86q41 -38 88 -38zM441 574q-5 0 -5 4q0 3 3 6q21 18 55 41.5t61 40.5q6 4 11 5t7 1t5 -3.5t3 -14.5q0 -6 -3.5 -11t-5.5 -7q-3 -2 -22 -11.5t-42.5 -21.5t-43 -20.5t-23.5 -8.5z" />
    <glyph glyph-name="lacute" unicode="&#x13a;" horiz-adv-x="216" 
d="M117 -13q-54 0 -67 65q-1 9 -2.5 18t-1.5 18q0 45 16.5 92t40.5 92t44 83q19 35 42.5 69.5t46.5 63.5t39 47q26 29 50 41.5t43 12.5q13 0 23 -13q11 -14 11 -27q0 -69 -129 -231q-51 -64 -98 -115.5t-91 -92.5q-1 -8 -1.5 -16.5t-0.5 -16.5q0 -34 11 -51.5t39 -17.5
t65.5 32.5t77.5 91.5q3 5 7 6q6 0 6 -7q0 -5 -2 -8q-14 -24 -31.5 -46t-39.5 -42q-25 -22 -49.5 -35t-48.5 -13zM86 132q28 24 66.5 69.5t81.5 106.5q97 134 116 194q9 29 9 43q0 19 -13 19q-29 0 -71 -56q-24 -32 -56 -81.5t-62 -107.5q-35 -67 -49.5 -111t-21.5 -76z
M325 624q-5 0 -5 4q0 3 3 6q21 18 55 41.5t61 40.5q6 4 11 5t7 1t5 -3.5t3 -14.5q0 -6 -3.5 -11t-5.5 -7q-3 -2 -22 -11.5t-42.5 -21.5t-43 -20.5t-23.5 -8.5z" />
    <glyph glyph-name="uni013B" unicode="&#x13b;" horiz-adv-x="583" 
d="M416 -56q-101 0 -231 67q-58 -37 -110 -37q-61 0 -108 41q-47 42 -47 102q0 31 13 53q16 28 44 28q29 0 104 -69q42 -38 70.5 -63t32.5 -28q51 65 101 208q-23 -7 -44.5 -10.5t-41.5 -3.5q-46 0 -75 13q-41 18 -41 57q0 42 74 83q67 37 112 37q11 0 11 -9q0 -6 -11 -9
l-36 -10q-121 -40 -121 -90q0 -47 89 -47q22 0 45.5 4t48.5 12q4 10 12 34t17 48t14 34q15 33 32 59t33 45q55 64 100 64q63 0 63 -54q0 -58 -65 -126q-25 -26 -54 -50t-62 -41l-61 -31q-18 -50 -28 -75t-20 -46q-17 -37 -34 -63.5t-34 -43.5q17 -9 42.5 -18.5t56.5 -17.5
q32 -8 60 -12t48 -4q48 0 84 12q51 17 51 54q0 13 -14 27q-15 14 -15 19q0 8 8 8q4 0 8 -3q36 -25 36 -58q0 -49 -57 -73q-22 -9 -46.5 -13t-53.5 -4zM340 294q47 18 120 93q79 80 79 122q0 20 -17 20q-7 0 -16 -3q-90 -32 -166 -232zM72 -1q42 0 82 23l-99 78
q-79 63 -89 63q-22 0 -22 -40q0 -49 40 -86q41 -38 88 -38zM207 -208q-2 0 -2 1q0 2 2.5 5.5t3.5 4.5l8.5 10t19 24t12.5 25q-15 3 -15 18q0 10 7.5 19.5t18.5 9.5q10 0 15 -6.5t5 -14.5q0 -20 -30 -58q-23 -29 -37 -35q-4 -3 -8 -3z" />
    <glyph glyph-name="uni013C" unicode="&#x13c;" horiz-adv-x="216" 
d="M117 -13q-54 0 -67 65q-1 9 -2.5 18t-1.5 18q0 45 16.5 92t40.5 92t44 83q19 35 42.5 69.5t46.5 63.5t39 47q26 29 50 41.5t43 12.5q13 0 23 -13q11 -14 11 -27q0 -69 -129 -231q-51 -64 -98 -115.5t-91 -92.5q-1 -8 -1.5 -16.5t-0.5 -16.5q0 -34 11 -51.5t39 -17.5
t65.5 32.5t77.5 91.5q3 5 7 6q6 0 6 -7q0 -5 -2 -8q-14 -24 -31.5 -46t-39.5 -42q-25 -22 -49.5 -35t-48.5 -13zM86 132q28 24 66.5 69.5t81.5 106.5q97 134 116 194q9 29 9 43q0 19 -13 19q-29 0 -71 -56q-24 -32 -56 -81.5t-62 -107.5q-35 -67 -49.5 -111t-21.5 -76z
M43 -174q-2 0 -2 1q0 2 2.5 5.5t3.5 4.5l8.5 10t19 24t12.5 25q-15 3 -15 18q0 10 7.5 19.5t18.5 9.5q10 0 15 -6.5t5 -14.5q0 -20 -30 -58q-23 -29 -37 -35q-4 -3 -8 -3z" />
    <glyph glyph-name="Lcaron" unicode="&#x13d;" horiz-adv-x="583" 
d="M416 -56q-101 0 -231 67q-58 -37 -110 -37q-61 0 -108 41q-47 42 -47 102q0 31 13 53q16 28 44 28q29 0 104 -69q42 -38 70.5 -63t32.5 -28q51 65 101 208q-23 -7 -44.5 -10.5t-41.5 -3.5q-46 0 -75 13q-41 18 -41 57q0 42 74 83q67 37 112 37q11 0 11 -9q0 -6 -11 -9
l-36 -10q-121 -40 -121 -90q0 -47 89 -47q22 0 45.5 4t48.5 12q4 10 12 34t17 48t14 34q15 33 32 59t33 45q55 64 100 64q63 0 63 -54q0 -58 -65 -126q-25 -26 -54 -50t-62 -41l-61 -31q-18 -50 -28 -75t-20 -46q-17 -37 -34 -63.5t-34 -43.5q17 -9 42.5 -18.5t56.5 -17.5
q32 -8 60 -12t48 -4q48 0 84 12q51 17 51 54q0 13 -14 27q-15 14 -15 19q0 8 8 8q4 0 8 -3q36 -25 36 -58q0 -49 -57 -73q-22 -9 -46.5 -13t-53.5 -4zM340 294q47 18 120 93q79 80 79 122q0 20 -17 20q-7 0 -16 -3q-90 -32 -166 -232zM72 -1q42 0 82 23l-99 78
q-79 63 -89 63q-22 0 -22 -40q0 -49 40 -86q41 -38 88 -38zM611 418q-1 0 -1 0.5v0.5q0 5 5 10q7 8 12.5 20.5t17.5 52.5q-8 0 -12 6.5t-4 15.5q0 11 7 19t19 8q13 0 18 -7t5 -18q0 -10 -6 -27.5t-16 -36t-22 -31.5t-23 -13z" />
    <glyph glyph-name="lcaron" unicode="&#x13e;" horiz-adv-x="216" 
d="M117 -13q-54 0 -67 65q-1 9 -2.5 18t-1.5 18q0 45 16.5 92t40.5 92t44 83q19 35 42.5 69.5t46.5 63.5t39 47q26 29 50 41.5t43 12.5q13 0 23 -13q11 -14 11 -27q0 -69 -129 -231q-51 -64 -98 -115.5t-91 -92.5q-1 -8 -1.5 -16.5t-0.5 -16.5q0 -34 11 -51.5t39 -17.5
t65.5 32.5t77.5 91.5q3 5 7 6q6 0 6 -7q0 -5 -2 -8q-14 -24 -31.5 -46t-39.5 -42q-25 -22 -49.5 -35t-48.5 -13zM86 132q28 24 66.5 69.5t81.5 106.5q97 134 116 194q9 29 9 43q0 19 -13 19q-29 0 -71 -56q-24 -32 -56 -81.5t-62 -107.5q-35 -67 -49.5 -111t-21.5 -76z
M432 452q-1 0 -1 0.5v0.5q0 5 5 10q7 8 12.5 20.5t17.5 52.5q-8 0 -12 6.5t-4 15.5q0 11 7 19t19 8q13 0 18 -7t5 -18q0 -10 -6 -27.5t-16 -36t-22 -31.5t-23 -13z" />
    <glyph glyph-name="Ldot" unicode="&#x13f;" horiz-adv-x="673" 
d="M416 -56q-101 0 -231 67q-58 -37 -110 -37q-61 0 -108 41q-47 42 -47 102q0 31 13 53q16 28 44 28q29 0 104 -69q42 -38 70.5 -63t32.5 -28q51 65 101 208q-23 -7 -44.5 -10.5t-41.5 -3.5q-46 0 -75 13q-41 18 -41 57q0 42 74 83q67 37 112 37q11 0 11 -9q0 -6 -11 -9
l-36 -10q-121 -40 -121 -90q0 -47 89 -47q22 0 45.5 4t48.5 12q4 10 12 34t17 48t14 34q15 33 32 59t33 45q55 64 100 64q63 0 63 -54q0 -58 -65 -126q-25 -26 -54 -50t-62 -41l-61 -31q-18 -50 -28 -75t-20 -46q-17 -37 -34 -63.5t-34 -43.5q17 -9 42.5 -18.5t56.5 -17.5
q32 -8 60 -12t48 -4q48 0 84 12q51 17 51 54q0 13 -14 27q-15 14 -15 19q0 8 8 8q4 0 8 -3q36 -25 36 -58q0 -49 -57 -73q-22 -9 -46.5 -13t-53.5 -4zM340 294q47 18 120 93q79 80 79 122q0 20 -17 20q-7 0 -16 -3q-90 -32 -166 -232zM72 -1q42 0 82 23l-99 78
q-79 63 -89 63q-22 0 -22 -40q0 -49 40 -86q41 -38 88 -38zM487 105q-25 0 -25 24t25 24t25 -24t-25 -24z" />
    <glyph glyph-name="ldot" unicode="&#x140;" horiz-adv-x="216" 
d="M117 -13q-54 0 -67 65q-1 9 -2.5 18t-1.5 18q0 45 16.5 92t40.5 92t44 83q19 35 42.5 69.5t46.5 63.5t39 47q26 29 50 41.5t43 12.5q13 0 23 -13q11 -14 11 -27q0 -69 -129 -231q-51 -64 -98 -115.5t-91 -92.5q-1 -8 -1.5 -16.5t-0.5 -16.5q0 -34 11 -51.5t39 -17.5
t65.5 32.5t77.5 91.5q3 5 7 6q6 0 6 -7q0 -5 -2 -8q-14 -24 -31.5 -46t-39.5 -42q-25 -22 -49.5 -35t-48.5 -13zM86 132q28 24 66.5 69.5t81.5 106.5q97 134 116 194q9 29 9 43q0 19 -13 19q-29 0 -71 -56q-24 -32 -56 -81.5t-62 -107.5q-35 -67 -49.5 -111t-21.5 -76z
M199 114q-25 0 -25 24t25 24t25 -24t-25 -24z" />
    <glyph glyph-name="Lslash" unicode="&#x141;" horiz-adv-x="673" 
d="M293 129q-19 -4 -21 2q-3 13 29 32q15 10 43 15q17 4 40 7t53 5q15 1 20.5 0t6.5 -4q1 -7 -24 -14q-4 -1 -21.5 -5.5t-30.5 -8.5q-16 -5 -37 -13t-53 -15zM416 -56q-101 0 -231 67q-58 -37 -110 -37q-61 0 -108 41q-47 42 -47 102q0 31 13 53q16 28 44 28q29 0 104 -69
q42 -38 70.5 -63t32.5 -28q51 65 101 208q-23 -7 -44.5 -10.5t-41.5 -3.5q-46 0 -75 13q-41 18 -41 57q0 42 74 83q67 37 112 37q11 0 11 -9q0 -6 -11 -9l-36 -10q-121 -40 -121 -90q0 -47 89 -47q22 0 45.5 4t48.5 12q4 10 12 34t17 48t14 34q15 33 32 59t33 45
q55 64 100 64q63 0 63 -54q0 -58 -65 -126q-25 -26 -54 -50t-62 -41l-61 -31q-18 -50 -28 -75t-20 -46q-17 -37 -34 -63.5t-34 -43.5q17 -9 42.5 -18.5t56.5 -17.5q32 -8 60 -12t48 -4q48 0 84 12q51 17 51 54q0 13 -14 27q-15 14 -15 19q0 8 8 8q4 0 8 -3q36 -25 36 -58
q0 -49 -57 -73q-22 -9 -46.5 -13t-53.5 -4zM340 294q47 18 120 93q79 80 79 122q0 20 -17 20q-7 0 -16 -3q-90 -32 -166 -232zM72 -1q42 0 82 23l-99 78q-79 63 -89 63q-22 0 -22 -40q0 -49 40 -86q41 -38 88 -38z" />
    <glyph glyph-name="lslash" unicode="&#x142;" horiz-adv-x="216" 
d="M117 -13q-54 0 -67 65q-1 9 -2.5 18t-1.5 18q0 45 16.5 92t40.5 92t44 83q19 35 42.5 69.5t46.5 63.5t39 47q26 29 50 41.5t43 12.5q13 0 23 -13q11 -14 11 -27q0 -69 -129 -231q-51 -64 -98 -115.5t-91 -92.5q-1 -8 -1.5 -16.5t-0.5 -16.5q0 -34 11 -51.5t39 -17.5
t65.5 32.5t77.5 91.5q3 5 7 6q6 0 6 -7q0 -5 -2 -8q-14 -24 -31.5 -46t-39.5 -42q-25 -22 -49.5 -35t-48.5 -13zM86 132q28 24 66.5 69.5t81.5 106.5q97 134 116 194q9 29 9 43q0 19 -13 19q-29 0 -71 -56q-24 -32 -56 -81.5t-62 -107.5q-35 -67 -49.5 -111t-21.5 -76z
M174 297h-38q-22 0 -43.5 0.5t-29.5 2.5q-8 1 -8 7q0 4 5 9q5 4 13 6t16 3q13 1 29 1.5t32 0.5q23 0 46.5 -1t39.5 -4q14 -2 19 -4.5t5 -5.5q0 -4 -4.5 -7.5t-15.5 -4.5q-9 -1 -29 -2t-37 -1z" />
    <glyph glyph-name="Nacute" unicode="&#x143;" horiz-adv-x="884" 
d="M410 -37q-22 0 -22 22q0 8 3 12q26 32 56 84.5t66 132.5q72 161 72 234q0 108 -128 108q-61 0 -139 -27q-45 -15 -87.5 -36t-86.5 -52q-111 -76 -111 -146q0 -57 77 -57q39 0 111 20q4 1 6.5 1.5t3.5 0.5q8 0 8 -6q0 -17 -52 -29q-20 -4 -37 -7t-31 -3q-112 0 -112 88
q0 82 114 161q88 60 188 91q82 25 154 25q165 0 165 -130q0 -92 -73 -229q29 34 58.5 70.5t55.5 66.5q42 47 76 70t59 23q73 0 73 -70q0 -60 -58 -186t-58 -164q0 -30 28 -30q15 0 39 17q25 17 28 17q4 0 4 -5q0 -20 -27 -35q-28 -15 -50 -15q-53 0 -53 56q0 41 30 110
l38 87q11 25 19 47.5t13 42.5q12 41 12 64q0 35 -25 35q-14 0 -31 -8q-36 -16 -82 -59.5t-99 -110.5q-40 -50 -77 -102.5t-69 -108.5q-7 -12 -19.5 -30.5t-29.5 -39.5zM774 491q-6 0 -6 4q0 3 3 6q38 38 87 74q6 5 11 6.5t7 1.5t5.5 -2t3.5 -14q0 -5 -3 -9t-5 -6
q-3 -2 -17.5 -11.5t-33 -21t-33.5 -20t-19 -8.5z" />
    <glyph glyph-name="nacute" unicode="&#x144;" horiz-adv-x="278" 
d="M196 -6q-57 0 -57 72q0 32 10.5 62t24.5 55q-35 -31 -73.5 -76.5t-75.5 -101.5q-6 -9 -9 -9q-9 0 -9 18q0 4 2 8q11 27 22 62.5t22 83.5l4 20t6 26q2 6 14 14q10 7 20 7q7 0 7 -6q0 -5 -12 -43t-35 -109q6 8 25 29.5t50 55.5l62 68q7 7 16 7q23 0 23 -23q0 -5 -4 -12
q-56 -92 -56 -146q0 -38 36 -38q26 0 60 29q14 11 24.5 24.5t22.5 29.5q21 29 24 29t3 -6t-6 -17q-68 -113 -141 -113zM151 280q-6 0 -6 4q0 3 3 6q38 38 87 74q6 5 11 6.5t7 1.5t5.5 -2t3.5 -14q0 -5 -3 -9t-5 -6q-3 -2 -17.5 -11.5t-33 -21t-33.5 -20t-19 -8.5z" />
    <glyph glyph-name="uni0145" unicode="&#x145;" horiz-adv-x="884" 
d="M410 -37q-22 0 -22 22q0 8 3 12q26 32 56 84.5t66 132.5q72 161 72 234q0 108 -128 108q-61 0 -139 -27q-45 -15 -87.5 -36t-86.5 -52q-111 -76 -111 -146q0 -57 77 -57q39 0 111 20q4 1 6.5 1.5t3.5 0.5q8 0 8 -6q0 -17 -52 -29q-20 -4 -37 -7t-31 -3q-112 0 -112 88
q0 82 114 161q88 60 188 91q82 25 154 25q165 0 165 -130q0 -92 -73 -229q29 34 58.5 70.5t55.5 66.5q42 47 76 70t59 23q73 0 73 -70q0 -60 -58 -186t-58 -164q0 -30 28 -30q15 0 39 17q25 17 28 17q4 0 4 -5q0 -20 -27 -35q-28 -15 -50 -15q-53 0 -53 56q0 41 30 110
l38 87q11 25 19 47.5t13 42.5q12 41 12 64q0 35 -25 35q-14 0 -31 -8q-36 -16 -82 -59.5t-99 -110.5q-40 -50 -77 -102.5t-69 -108.5q-7 -12 -19.5 -30.5t-29.5 -39.5zM539 -174q-2 0 -2 1q0 2 2.5 5.5t3.5 4.5l8.5 10t19 24t12.5 25q-15 3 -15 18q0 10 7.5 19.5t18.5 9.5
q10 0 15 -6.5t5 -14.5q0 -20 -30 -58q-23 -29 -37 -35q-4 -3 -8 -3z" />
    <glyph glyph-name="uni0146" unicode="&#x146;" horiz-adv-x="278" 
d="M196 -6q-57 0 -57 72q0 32 10.5 62t24.5 55q-35 -31 -73.5 -76.5t-75.5 -101.5q-6 -9 -9 -9q-9 0 -9 18q0 4 2 8q11 27 22 62.5t22 83.5l4 20t6 26q2 6 14 14q10 7 20 7q7 0 7 -6q0 -5 -12 -43t-35 -109q6 8 25 29.5t50 55.5l62 68q7 7 16 7q23 0 23 -23q0 -5 -4 -12
q-56 -92 -56 -146q0 -38 36 -38q26 0 60 29q14 11 24.5 24.5t22.5 29.5q21 29 24 29t3 -6t-6 -17q-68 -113 -141 -113zM32 -174q-2 0 -2 1q0 2 2.5 5.5t3.5 4.5l8.5 10t19 24t12.5 25q-15 3 -15 18q0 10 7.5 19.5t18.5 9.5q10 0 15 -6.5t5 -14.5q0 -20 -30 -58
q-23 -29 -37 -35q-4 -3 -8 -3z" />
    <glyph glyph-name="Ncaron" unicode="&#x147;" horiz-adv-x="884" 
d="M932 590q6 0 6 -5t-7 -10q-29 -20 -54 -36.5t-55 -36.5q-16 -11 -23 -11q-8 0 -13 10q-10 20 -18.5 36t-15.5 32q-4 9 -4 15q0 8 8 8q4 0 9 -4t9 -9q11 -13 23.5 -27t18.5 -20q9 5 27 14.5t37 19.5t34 17t18 7zM410 -37q-22 0 -22 22q0 8 3 12q26 32 56 84.5t66 132.5
q72 161 72 234q0 108 -128 108q-61 0 -139 -27q-45 -15 -87.5 -36t-86.5 -52q-111 -76 -111 -146q0 -57 77 -57q39 0 111 20q4 1 6.5 1.5t3.5 0.5q8 0 8 -6q0 -17 -52 -29q-20 -4 -37 -7t-31 -3q-112 0 -112 88q0 82 114 161q88 60 188 91q82 25 154 25q165 0 165 -130
q0 -92 -73 -229q29 34 58.5 70.5t55.5 66.5q42 47 76 70t59 23q73 0 73 -70q0 -60 -58 -186t-58 -164q0 -30 28 -30q15 0 39 17q25 17 28 17q4 0 4 -5q0 -20 -27 -35q-28 -15 -50 -15q-53 0 -53 56q0 41 30 110l38 87q11 25 19 47.5t13 42.5q12 41 12 64q0 35 -25 35
q-14 0 -31 -8q-36 -16 -82 -59.5t-99 -110.5q-40 -50 -77 -102.5t-69 -108.5q-7 -12 -19.5 -30.5t-29.5 -39.5z" />
    <glyph glyph-name="ncaron" unicode="&#x148;" horiz-adv-x="278" 
d="M133 366q5 0 17 -11t24.5 -24t16.5 -18q6 4 20 12t30 17t28.5 15.5t15.5 6.5q6 0 3 -5q-1 -3 -4 -6q-22 -16 -37 -29.5t-46 -35.5q-7 -5 -12 -7t-7 -2q-3 0 -5.5 1.5t-7.5 7.5q-12 17 -20 31t-22 36q-1 2 -1 6q2 5 7 5zM196 -6q-57 0 -57 72q0 32 10.5 62t24.5 55
q-35 -31 -73.5 -76.5t-75.5 -101.5q-6 -9 -9 -9q-9 0 -9 18q0 4 2 8q11 27 22 62.5t22 83.5l4 20t6 26q2 6 14 14q10 7 20 7q7 0 7 -6q0 -5 -12 -43t-35 -109q6 8 25 29.5t50 55.5l62 68q7 7 16 7q23 0 23 -23q0 -5 -4 -12q-56 -92 -56 -146q0 -38 36 -38q26 0 60 29
q14 11 24.5 24.5t22.5 29.5q21 29 24 29t3 -6t-6 -17q-68 -113 -141 -113z" />
    <glyph glyph-name="napostrophe" unicode="&#x149;" horiz-adv-x="278" 
d="M12 260h-0.5t-0.5 1q0 2 2 4.5t3 3.5l8 8t17 20t11 22q-13 2 -13 14q0 8 6 16.5t16 8.5q18 0 18 -18q0 -16 -26 -48q-21 -24 -33 -30q-2 -1 -4 -1.5t-4 -0.5zM196 -6q-57 0 -57 72q0 32 10.5 62t24.5 55q-35 -31 -73.5 -76.5t-75.5 -101.5q-6 -9 -9 -9q-9 0 -9 18
q0 4 2 8q11 27 22 62.5t22 83.5l4 20t6 26q2 6 14 14q10 7 20 7q7 0 7 -6q0 -5 -12 -43t-35 -109q6 8 25 29.5t50 55.5l62 68q7 7 16 7q23 0 23 -23q0 -5 -4 -12q-56 -92 -56 -146q0 -38 36 -38q26 0 60 29q14 11 24.5 24.5t22.5 29.5q21 29 24 29t3 -6t-6 -17
q-68 -113 -141 -113z" />
    <glyph glyph-name="Eng" unicode="&#x14a;" horiz-adv-x="494" 
d="M0 -350q-33 0 -60 19t-27 56q0 27 16.5 53.5t31.5 39.5q5 5 11.5 10t10.5 5t2 -7.5t-14 -27.5q-26 -43 -26 -75q0 -23 14 -37t41 -14q62 0 108 38.5t86 94.5q17 23 39.5 65.5t48.5 96.5t51.5 113t47.5 115q26 67 42.5 121.5t16.5 82.5q0 23 -12 23q-14 0 -31 -8
q-36 -16 -82 -59.5t-99 -110.5q-40 -50 -77 -102.5t-69 -108.5q-7 -12 -19.5 -30.5t-29.5 -39.5q-22 0 -22 22q0 8 3 12q26 32 56 84.5t66 132.5q72 161 72 234q0 54 -23 84.5t-49 30.5q-13 0 -13 8q0 9 14 9q44 0 79 -32.5t35 -97.5q0 -92 -73 -229q29 34 58.5 70.5
t55.5 66.5q42 47 76 70t59 23q38 0 53.5 -17.5t15.5 -48.5q0 -39 -18.5 -93.5t-41.5 -115.5q-50 -131 -101.5 -234.5t-98.5 -161.5q-28 -34 -58.5 -64t-69.5 -48t-96 -18z" />
    <glyph glyph-name="eng" unicode="&#x14b;" horiz-adv-x="244" 
d="M14 -165q-17 -1 -31.5 7t-19.5 26q-1 3 -1 9q0 15 8.5 30t15.5 22q2 2 5.5 5t5.5 3q1 0 1 -2t-1 -6t-5 -11q-6 -11 -8.5 -21.5t-2.5 -18.5q0 -15 8.5 -23t23.5 -7q34 4 58.5 30t43.5 63q11 21 25.5 59.5t31 89.5t31.5 107q-49 -42 -89.5 -89t-77.5 -103q-6 -9 -9 -9
q-9 0 -9 18q0 4 2 8q11 27 22 62.5t22 83.5l4 20t6 26q2 6 14 14q10 7 20 7q7 0 7 -6q0 -5 -12 -43t-35 -109q6 8 25 29.5t50 55.5l62 68q7 7 16 7q22 0 22 -23q0 -6 -2 -14l-4 -16q-28 -88 -54 -153.5t-49 -103.5q-22 -36 -47.5 -62.5t-72.5 -29.5z" />
    <glyph glyph-name="Omacron" unicode="&#x14c;" horiz-adv-x="656" 
d="M177 -26q-131 0 -131 105q0 33 15 70q-66 32 -66 97q0 86 84 159q67 58 163 92q105 38 208 38q97 0 163 -36q83 -47 83 -135q0 -71 -56 -151q-73 -105 -204 -171q-134 -68 -259 -68zM185 -5q120 0 240 72q112 67 184 171q54 78 54 141q0 71 -64 105q-50 28 -128 28
q-100 0 -214 -45q-87 -35 -150 -83q-89 -68 -89 -137q0 -59 52 -77q23 41 58.5 83t79.5 83q93 85 176 120q21 8 39 13.5t33 5.5h2q12 0 12 -9q0 -10 -15 -13q-35 -6 -68 -23q-34 -18 -83 -56q-25 -19 -52.5 -43.5t-56.5 -54.5q-38 -39 -59 -68t-26 -48q17 -4 37 -4
q89 0 179 84q20 19 28 26t7 7q7 0 7 -8q-21 -30 -45.5 -52t-53.5 -39q-65 -38 -129 -38q-10 0 -19.5 1.5t-17.5 3.5q-17 -34 -17 -62q0 -39 29 -62q28 -22 70 -22zM577 577h-36.5t-29.5 3q-6 2 -6 8q0 7 4 11q3 3 7.5 3.5t8.5 0.5q27 0 52.5 -0.5t49.5 -2.5q10 -1 24 -3.5
t14 -5.5q0 -10 -16 -11q-5 0 -19 -1t-29 -1.5t-24 -0.5z" />
    <glyph glyph-name="omacron" unicode="&#x14d;" horiz-adv-x="229" 
d="M59 -12q-35 0 -35 41q0 57 50 134q-1 5 -1.5 11t-0.5 11q0 36 24 70t59 34q30 0 40.5 -21t10.5 -47q0 -22 -5 -42q-5 -21 -15 -47t-25 -55q15 -9 34 -9q17 0 32 4.5t28 17.5t20.5 23t6.5 9q2 2 4 2q4 0 6.5 -5t-1.5 -10q-16 -23 -41.5 -40.5t-55.5 -17.5q-23 0 -40 10
q-46 -73 -95 -73zM148 86q13 32 20 55t7 43v8q0 27 -9 50.5t-26 23.5q-23 0 -36 -28q-9 -19 -9 -42v-6q16 19 32 19q15 0 22 -10q3 -4 3 -7q0 -6 -12 -6q-18 0 -38 -38q14 -39 46 -62zM75 12q13 0 37 24q10 10 17 19t11 17q-34 23 -50 51q-30 -63 -30 -91q0 -20 15 -20z
M173 349h-36.5t-29.5 3q-6 2 -6 7t4 9q3 3 7.5 3.5t8.5 0.5q29 0 48.5 -0.5t43.5 -2.5q10 -1 24 -4t14 -6q0 -6 -16 -7q-7 -1 -27.5 -2t-34.5 -1z" />
    <glyph glyph-name="Obreve" unicode="&#x14e;" horiz-adv-x="656" 
d="M177 -26q-131 0 -131 105q0 33 15 70q-66 32 -66 97q0 86 84 159q67 58 163 92q105 38 208 38q97 0 163 -36q83 -47 83 -135q0 -71 -56 -151q-73 -105 -204 -171q-134 -68 -259 -68zM185 -5q120 0 240 72q112 67 184 171q54 78 54 141q0 71 -64 105q-50 28 -128 28
q-100 0 -214 -45q-87 -35 -150 -83q-89 -68 -89 -137q0 -59 52 -77q23 41 58.5 83t79.5 83q93 85 176 120q21 8 39 13.5t33 5.5h2q12 0 12 -9q0 -10 -15 -13q-35 -6 -68 -23q-34 -18 -83 -56q-25 -19 -52.5 -43.5t-56.5 -54.5q-38 -39 -59 -68t-26 -48q17 -4 37 -4
q89 0 179 84q20 19 28 26t7 7q7 0 7 -8q-21 -30 -45.5 -52t-53.5 -39q-65 -38 -129 -38q-10 0 -19.5 1.5t-17.5 3.5q-17 -34 -17 -62q0 -39 29 -62q28 -22 70 -22zM582 560q-31 0 -46 21t-15 43q0 14 4.5 20.5t8.5 6.5q10 0 10 -9q0 -18 10 -32.5t35 -14.5q20 0 43 9.5
t44 40.5q3 3 7 3q7 0 5 -9q-14 -36 -42 -57.5t-64 -21.5z" />
    <glyph glyph-name="obreve" unicode="&#x14f;" horiz-adv-x="229" 
d="M59 -12q-35 0 -35 41q0 57 50 134q-1 5 -1.5 11t-0.5 11q0 36 24 70t59 34q30 0 40.5 -21t10.5 -47q0 -22 -5 -42q-5 -21 -15 -47t-25 -55q15 -9 34 -9q17 0 32 4.5t28 17.5t20.5 23t6.5 9q2 2 4 2q4 0 6.5 -5t-1.5 -10q-16 -23 -41.5 -40.5t-55.5 -17.5q-23 0 -40 10
q-46 -73 -95 -73zM148 86q13 32 20 55t7 43v8q0 27 -9 50.5t-26 23.5q-23 0 -36 -28q-9 -19 -9 -42v-6q16 19 32 19q15 0 22 -10q3 -4 3 -7q0 -6 -12 -6q-18 0 -38 -38q14 -39 46 -62zM75 12q13 0 37 24q10 10 17 19t11 17q-34 23 -50 51q-30 -63 -30 -91q0 -20 15 -20z
M167 330q-28 0 -39.5 13.5t-11.5 30.5q0 18 5.5 26t9.5 8q7 0 7 -14q0 -19 6 -27t28 -8q27 0 45.5 10t32.5 36q4 6 9 6q9 0 4 -9q-9 -25 -33.5 -48.5t-62.5 -23.5z" />
    <glyph glyph-name="Ohungarumlaut" unicode="&#x150;" horiz-adv-x="656" 
d="M177 -26q-131 0 -131 105q0 33 15 70q-66 32 -66 97q0 86 84 159q67 58 163 92q105 38 208 38q97 0 163 -36q83 -47 83 -135q0 -71 -56 -151q-73 -105 -204 -171q-134 -68 -259 -68zM185 -5q120 0 240 72q112 67 184 171q54 78 54 141q0 71 -64 105q-50 28 -128 28
q-100 0 -214 -45q-87 -35 -150 -83q-89 -68 -89 -137q0 -59 52 -77q23 41 58.5 83t79.5 83q93 85 176 120q21 8 39 13.5t33 5.5h2q12 0 12 -9q0 -10 -15 -13q-35 -6 -68 -23q-34 -18 -83 -56q-25 -19 -52.5 -43.5t-56.5 -54.5q-38 -39 -59 -68t-26 -48q17 -4 37 -4
q89 0 179 84q20 19 28 26t7 7q7 0 7 -8q-21 -30 -45.5 -52t-53.5 -39q-65 -38 -129 -38q-10 0 -19.5 1.5t-17.5 3.5q-17 -34 -17 -62q0 -39 29 -62q28 -22 70 -22zM611 564q-1 1 -1 5q5 23 11.5 44.5t16.5 46.5q4 11 10 14q1 1 3 1q3 0 8 -2t9 -8q3 -4 3 -8t-1 -6
q-1 -4 -8.5 -17.5t-16.5 -29t-16.5 -27t-10.5 -13.5q-5 -2 -7 0zM546 564q-1 1 -1 5q5 23 11.5 44.5t16.5 46.5q4 11 10 14q1 1 3 1q3 0 8 -2t9 -8q3 -4 3 -8t-1 -6q-1 -4 -8.5 -17.5t-16.5 -29t-16.5 -27t-10.5 -13.5q-5 -2 -7 0z" />
    <glyph glyph-name="ohungarumlaut" unicode="&#x151;" horiz-adv-x="229" 
d="M59 -12q-35 0 -35 41q0 57 50 134q-1 5 -1.5 11t-0.5 11q0 36 24 70t59 34q30 0 40.5 -21t10.5 -47q0 -22 -5 -42q-5 -21 -15 -47t-25 -55q15 -9 34 -9q17 0 32 4.5t28 17.5t20.5 23t6.5 9q2 2 4 2q4 0 6.5 -5t-1.5 -10q-16 -23 -41.5 -40.5t-55.5 -17.5q-23 0 -40 10
q-46 -73 -95 -73zM148 86q13 32 20 55t7 43v8q0 27 -9 50.5t-26 23.5q-23 0 -36 -28q-9 -19 -9 -42v-6q16 19 32 19q15 0 22 -10q3 -4 3 -7q0 -6 -12 -6q-18 0 -38 -38q14 -39 46 -62zM75 12q13 0 37 24q10 10 17 19t11 17q-34 23 -50 51q-30 -63 -30 -91q0 -20 15 -20z
M198 326q-1 1 -1 5q5 23 11.5 44.5t16.5 46.5q4 11 10 14q1 1 3 1q3 0 8 -2t9 -8q3 -4 3 -8t-1 -6q-1 -4 -8.5 -17.5t-16.5 -29t-16.5 -27t-10.5 -13.5q-5 -2 -7 0zM133 326q-1 1 -1 5q5 23 11.5 44.5t16.5 46.5q4 11 10 14q1 1 3 1q3 0 8 -2t9 -8q3 -4 3 -8t-1 -6
q-1 -4 -8.5 -17.5t-16.5 -29t-16.5 -27t-10.5 -13.5q-5 -2 -7 0z" />
    <glyph glyph-name="OE" unicode="&#x152;" horiz-adv-x="992" 
d="M182 -26q-131 0 -131 105q0 33 15 70q-66 32 -66 97q0 86 84 159q67 58 163 92q105 38 208 38q99 0 163 -36q81 -47 83 -134q2 4 5 7t6 7q42 49 70.5 76.5t41.5 35.5q45 27 177 27q37 0 62.5 -2.5t39.5 -8.5q11 -5 11 -13q0 -12 -23 -12q-18 9 -68 9q-129 0 -168 -24
q-23 -14 -155 -161q3 -4 9 -4q14 0 34 1t47 3t47.5 3t34.5 1q67 0 67 -7q0 -6 -29 -12q-10 -2 -42 -4.5t-85 -6.5q-78 -4 -124 -26q-10 -4 -24 -24t-37 -61q-22 -39 -28 -64.5t-6 -36.5q0 -28 18 -42.5t62 -14.5t102.5 15.5t130.5 47.5q4 2 28 13.5t49 22.5q2 1 5 1
q1 0 1 -1q0 -3 -4 -10q-28 -40 -153 -84q-111 -40 -178 -40q-50 0 -77 18t-27 58q0 10 1 20t3 20q-18 -13 -39 -25.5t-45 -24.5q-134 -68 -259 -68zM190 -5q120 0 240 72q23 14 57.5 37t56.5 46q20 43 51.5 85t67.5 85q2 15 3.5 32t1.5 27q0 71 -64 105q-50 28 -128 28
q-100 0 -214 -45q-87 -35 -150 -83q-89 -68 -89 -137q0 -59 52 -77q23 41 58.5 83t79.5 83q93 85 176 120q21 8 39 13.5t33 5.5h2q12 0 12 -9q0 -10 -15 -13q-35 -6 -68 -23q-34 -18 -83 -56q-25 -19 -52.5 -43.5t-56.5 -54.5q-38 -39 -59 -68t-26 -48q17 -4 37 -4
q89 0 179 84q20 19 28 26t7 7q7 0 7 -8q-21 -30 -45.5 -52t-53.5 -39q-65 -38 -129 -38q-10 0 -19.5 1.5t-17.5 3.5q-17 -34 -17 -62q0 -39 29 -62q28 -22 70 -22z" />
    <glyph glyph-name="oe" unicode="&#x153;" horiz-adv-x="322" 
d="M59 -12q-35 0 -35 41q0 57 50 134q-1 5 -1.5 11t-0.5 11q0 36 24 70t59 34q24 0 37 -27q11 -21 11 -48v-8q44 53 89 53q10 0 17 -9q8 -10 8 -19q0 -31 -47 -75q-19 -18 -39.5 -32t-37.5 -20q-7 -24 -7 -42q0 -41 37 -41q35 0 79 29q14 9 32.5 25t31.5 32q7 10 14 10
q4 0 4 -4q0 -3 -2 -6q-13 -22 -32 -39t-42 -33q-53 -35 -97 -35q-52 0 -61 55q-45 -67 -91 -67zM148 86v1q0 16 6 33t15 36q2 9 3 17.5t1 15.5q0 24 -7 45q-11 32 -26 32q-23 0 -36 -28q-10 -22 -9 -48q16 19 32 19q14 0 22 -10q3 -4 3 -7q0 -6 -12 -6q-18 0 -38 -38
q14 -39 46 -62zM200 124q26 11 54 39q33 32 33 56q0 12 -12 12q-16 0 -44 -46q-25 -38 -31 -61zM75 12q13 0 37 24q10 10 17 19t11 17q-34 23 -50 51q-30 -63 -30 -91q0 -20 15 -20z" />
    <glyph glyph-name="Racute" unicode="&#x154;" horiz-adv-x="524" 
d="M523 -75q-58 0 -160 113q-34 39 -66 80.5t-60 85.5q-11 1 -21 3t-19 4q-102 -193 -102 -254q0 -5 1 -8v-7q0 -14 -10 -14q-16 0 -16 27q0 71 93 267q-48 23 -48 62q0 23 16 40q17 18 38 18q24 0 42 -24q11 20 27.5 49.5t38.5 66.5q17 21 52 21q14 0 14 -7q0 -2 -3 -7
q-29 -40 -55.5 -80.5t-49.5 -82.5l33 -59q44 3 87.5 14t80.5 27q50 22 80.5 50.5t42.5 61.5q3 8 4 16t1 15q0 67 -88 83q-61 12 -138 12q-83 0 -164.5 -14.5t-161.5 -43.5q-4 -1 -6.5 -1.5t-4.5 -0.5q-7 0 -7 6q0 12 17 27q14 14 28 18q110 36 256 36q104 0 200 -21
q113 -26 113 -108q0 -24 -14 -54q-16 -33 -45.5 -58.5t-69.5 -43.5q-66 -31 -152 -37q-10 -1 -24 -1.5t-25 0.5q20 -32 49 -69t66 -78q94 -104 138 -104q24 0 24 26q0 4 -0.5 8.5t-1.5 9.5q-3 11 -3 15q0 9 8 9q17 0 17 -40q0 -21 -15 -38q-15 -16 -37 -16zM169 235l24 48
q-10 19 -24 19q-22 0 -22 -29q0 -23 22 -38zM228 218l-14 24l-11 -20q5 -1 11.5 -2t13.5 -2zM422 553q-5 0 -5 4q0 3 3 6q21 18 55 41.5t61 40.5q6 4 11 5t7 1t5 -3.5t3 -14.5q0 -6 -3.5 -11t-5.5 -7q-3 -2 -22 -11.5t-42.5 -21.5t-43 -20.5t-23.5 -8.5z" />
    <glyph glyph-name="racute" unicode="&#x155;" horiz-adv-x="295" 
d="M203 -16q-34 0 -47.5 18t-13.5 46q0 23 7.5 48.5t18.5 47.5t19 35q-3 -1 -6 -1.5t-7 -0.5q-14 0 -31 10q-18 12 -18 25q-6 -14 -16.5 -32t-24.5 -39q-37 -58 -49 -58q-4 0 -4 4t6 12q19 26 38.5 60t39.5 76q-1 5 -1.5 10t-0.5 12q0 23 9 53q11 38 27 38q10 0 19 -18
q3 -7 5 -13.5t2 -13.5q0 -24 -41 -73q9 -31 35 -31q19 0 35 19q17 20 24 20q9 0 16 -7t7 -18q0 1 -12.5 -18t-28.5 -53t-22.5 -58t-6.5 -43q0 -35 33 -35q32 0 81 49q16 17 37 43l26 32q4 0 4 -6q0 -8 -6 -17q-14 -22 -30.5 -43.5t-30.5 -34.5q-46 -45 -92 -45zM204 343
q-6 0 -6 4q0 3 3 6q38 38 87 74q6 5 11 6.5t7 1.5t5.5 -2t3.5 -14q0 -5 -3 -9t-5 -6q-3 -2 -17.5 -11.5t-33 -21t-33.5 -20t-19 -8.5z" />
    <glyph glyph-name="uni0156" unicode="&#x156;" horiz-adv-x="524" 
d="M523 -75q-58 0 -160 113q-34 39 -66 80.5t-60 85.5q-11 1 -21 3t-19 4q-102 -193 -102 -254q0 -5 1 -8v-7q0 -14 -10 -14q-16 0 -16 27q0 71 93 267q-48 23 -48 62q0 23 16 40q17 18 38 18q24 0 42 -24q11 20 27.5 49.5t38.5 66.5q17 21 52 21q14 0 14 -7q0 -2 -3 -7
q-29 -40 -55.5 -80.5t-49.5 -82.5l33 -59q44 3 87.5 14t80.5 27q50 22 80.5 50.5t42.5 61.5q3 8 4 16t1 15q0 67 -88 83q-61 12 -138 12q-83 0 -164.5 -14.5t-161.5 -43.5q-4 -1 -6.5 -1.5t-4.5 -0.5q-7 0 -7 6q0 12 17 27q14 14 28 18q110 36 256 36q104 0 200 -21
q113 -26 113 -108q0 -24 -14 -54q-16 -33 -45.5 -58.5t-69.5 -43.5q-66 -31 -152 -37q-10 -1 -24 -1.5t-25 0.5q20 -32 49 -69t66 -78q94 -104 138 -104q24 0 24 26q0 4 -0.5 8.5t-1.5 9.5q-3 11 -3 15q0 9 8 9q17 0 17 -40q0 -21 -15 -38q-15 -16 -37 -16zM169 235l24 48
q-10 19 -24 19q-22 0 -22 -29q0 -23 22 -38zM228 218l-14 24l-11 -20q5 -1 11.5 -2t13.5 -2zM189 -174q-2 0 -2 1q0 2 2.5 5.5t3.5 4.5l8.5 10t19 24t12.5 25q-15 3 -15 18q0 10 7.5 19.5t18.5 9.5q10 0 15 -6.5t5 -14.5q0 -20 -30 -58q-23 -29 -37 -35q-4 -3 -8 -3z" />
    <glyph glyph-name="uni0157" unicode="&#x157;" horiz-adv-x="295" 
d="M203 -16q-34 0 -47.5 18t-13.5 46q0 23 7.5 48.5t18.5 47.5t19 35q-3 -1 -6 -1.5t-7 -0.5q-14 0 -31 10q-18 12 -18 25q-6 -14 -16.5 -32t-24.5 -39q-37 -58 -49 -58q-4 0 -4 4t6 12q19 26 38.5 60t39.5 76q-1 5 -1.5 10t-0.5 12q0 23 9 53q11 38 27 38q10 0 19 -18
q3 -7 5 -13.5t2 -13.5q0 -24 -41 -73q9 -31 35 -31q19 0 35 19q17 20 24 20q9 0 16 -7t7 -18q0 1 -12.5 -18t-28.5 -53t-22.5 -58t-6.5 -43q0 -35 33 -35q32 0 81 49q16 17 37 43l26 32q4 0 4 -6q0 -8 -6 -17q-14 -22 -30.5 -43.5t-30.5 -34.5q-46 -45 -92 -45zM14 -174
q-2 0 -2 1q0 2 2.5 5.5t3.5 4.5l8.5 10t19 24t12.5 25q-15 3 -15 18q0 10 7.5 19.5t18.5 9.5q10 0 15 -6.5t5 -14.5q0 -20 -30 -58q-23 -29 -37 -35q-4 -3 -8 -3z" />
    <glyph glyph-name="Rcaron" unicode="&#x158;" horiz-adv-x="524" 
d="M584 653q6 0 6 -5t-7 -10q-29 -20 -54 -36.5t-55 -36.5q-16 -11 -23 -11q-8 0 -13 10q-10 20 -18.5 36t-15.5 32q-4 9 -4 15q0 8 8 8q4 0 9 -4t9 -9q11 -13 23.5 -27t18.5 -20q9 5 27 14.5t37 19.5t34 17t18 7zM523 -75q-58 0 -160 113q-34 39 -66 80.5t-60 85.5
q-11 1 -21 3t-19 4q-102 -193 -102 -254q0 -5 1 -8v-7q0 -14 -10 -14q-16 0 -16 27q0 71 93 267q-48 23 -48 62q0 23 16 40q17 18 38 18q24 0 42 -24q11 20 27.5 49.5t38.5 66.5q17 21 52 21q14 0 14 -7q0 -2 -3 -7q-29 -40 -55.5 -80.5t-49.5 -82.5l33 -59q44 3 87.5 14
t80.5 27q50 22 80.5 50.5t42.5 61.5q3 8 4 16t1 15q0 67 -88 83q-61 12 -138 12q-83 0 -164.5 -14.5t-161.5 -43.5q-4 -1 -6.5 -1.5t-4.5 -0.5q-7 0 -7 6q0 12 17 27q14 14 28 18q110 36 256 36q104 0 200 -21q113 -26 113 -108q0 -24 -14 -54q-16 -33 -45.5 -58.5
t-69.5 -43.5q-66 -31 -152 -37q-10 -1 -24 -1.5t-25 0.5q20 -32 49 -69t66 -78q94 -104 138 -104q24 0 24 26q0 4 -0.5 8.5t-1.5 9.5q-3 11 -3 15q0 9 8 9q17 0 17 -40q0 -21 -15 -38q-15 -16 -37 -16zM169 235l24 48q-10 19 -24 19q-22 0 -22 -29q0 -23 22 -38zM228 218
l-14 24l-11 -20q5 -1 11.5 -2t13.5 -2z" />
    <glyph glyph-name="rcaron" unicode="&#x159;" horiz-adv-x="295" 
d="M186 429q5 0 17 -11t24.5 -24t16.5 -18q6 4 20 12t30 17t28.5 15.5t15.5 6.5q6 0 3 -5q-1 -3 -4 -6q-22 -16 -37 -29.5t-46 -35.5q-7 -5 -12 -7t-7 -2q-3 0 -5.5 1.5t-7.5 7.5q-12 17 -20 31t-22 36q-1 2 -1 6q2 5 7 5zM203 -16q-34 0 -47.5 18t-13.5 46q0 23 7.5 48.5
t18.5 47.5t19 35q-3 -1 -6 -1.5t-7 -0.5q-14 0 -31 10q-18 12 -18 25q-6 -14 -16.5 -32t-24.5 -39q-37 -58 -49 -58q-4 0 -4 4t6 12q19 26 38.5 60t39.5 76q-1 5 -1.5 10t-0.5 12q0 23 9 53q11 38 27 38q10 0 19 -18q3 -7 5 -13.5t2 -13.5q0 -24 -41 -73q9 -31 35 -31
q19 0 35 19q17 20 24 20q9 0 16 -7t7 -18q0 1 -12.5 -18t-28.5 -53t-22.5 -58t-6.5 -43q0 -35 33 -35q32 0 81 49q16 17 37 43l26 32q4 0 4 -6q0 -8 -6 -17q-14 -22 -30.5 -43.5t-30.5 -34.5q-46 -45 -92 -45z" />
    </font>
</defs>
</svg>
